<svg width="464" height="464" viewBox="0 0 464 464" fill="none" xmlns="http://www.w3.org/2000/svg">
<circle cx="232" cy="232" r="232" fill="#E4F8E3"/>
<path d="M86.8038 264.17C90.5766 262.226 95.0118 261.974 99.195 262.665C101.441 263.039 103.781 263.709 105.315 265.401C106.849 267.093 107.129 270.059 105.373 271.506C104.329 272.37 102.874 272.5 101.521 272.486C98.2446 272.45 94.6086 271.874 91.995 273.839C90.4974 274.97 89.5038 276.834 87.7254 277.389C85.947 277.943 84.003 276.899 83.0814 275.322C82.2297 273.682 82.0415 271.777 82.5558 270.002C82.7666 268.768 83.2597 267.6 83.9966 266.588C84.7335 265.576 85.6942 264.749 86.8038 264.17Z" fill="#9DE08B"/>
<path d="M78.1705 247.509C80.4745 250.8 84.9529 249.705 87.0337 247.704C89.1145 245.702 89.9857 242.779 90.7849 240.007C92.6065 233.664 94.4497 227.047 93.0889 220.567C92.7644 218.61 91.9047 216.781 90.6049 215.282C89.9481 214.541 89.108 213.987 88.1691 213.673C87.2301 213.36 86.2253 213.299 85.2553 213.496C82.9945 214.094 81.5977 216.304 80.5825 218.414C77.5921 224.624 76.0252 231.423 75.9961 238.315C75.9961 241.519 76.3633 244.881 78.1561 247.531" fill="#9DE08B"/>
<path d="M71.8417 252.231C74.3473 249.258 74.8225 244.931 73.7065 241.208C72.5905 237.486 70.1065 234.325 67.1833 231.74C63.7725 228.706 59.8034 226.366 55.4977 224.85C53.8312 224.174 52.0377 223.87 50.2417 223.957C49.3446 224.008 48.4736 224.277 47.7044 224.742C46.9352 225.206 46.2911 225.851 45.8281 226.621C44.5969 228.968 45.7777 231.812 47.0521 234.138C49.3002 238.228 51.8665 242.135 54.7273 245.823C57.0313 248.79 59.6665 251.713 63.1729 253.023C66.6793 254.334 70.3225 254.211 72.2161 251.807" fill="#9DE08B"/>
<path d="M78.0198 297.146C78.1394 296.657 78.2094 296.158 78.2286 295.655C78.3294 294.561 78.4662 293.2 78.6246 291.573C78.8256 289.562 79.1308 287.562 79.539 285.583C80.0721 283.175 80.7943 280.813 81.699 278.519C82.5926 276.23 83.8045 274.077 85.299 272.126C86.5189 270.539 88.0786 269.245 89.8638 268.339C91.08 267.747 92.3828 267.353 93.723 267.172C94.2259 267.152 94.7254 267.079 95.2134 266.956C94.7109 266.9 94.2038 266.9 93.7014 266.956C92.3137 267.061 90.9558 267.412 89.691 267.993C87.8151 268.881 86.1692 270.189 84.8814 271.816C83.3216 273.795 82.0624 275.993 81.1446 278.339C80.2167 280.672 79.494 283.081 78.9846 285.539C78.5971 287.542 78.3302 289.567 78.1854 291.602C78.0558 293.337 78.0126 294.741 77.9838 295.713C77.9441 296.19 77.9562 296.671 78.0198 297.146Z" fill="#263238"/>
<path d="M78.3007 294.007C78.3277 293.767 78.3277 293.526 78.3007 293.287V291.299C78.3007 289.579 78.3007 287.087 78.3871 284.013C78.5383 277.857 79.1071 271.233 80.0935 261.895C81.0583 253.118 82.3615 242.894 83.7367 236.255C84.0247 234.743 84.3271 233.375 84.6007 232.195C84.8743 231.014 85.0975 229.97 85.3207 229.135C85.5439 228.299 85.6663 227.695 85.7887 227.212C85.8599 226.978 85.901 226.736 85.9111 226.492C85.8007 226.696 85.7183 226.914 85.6663 227.14C85.5151 227.637 85.3279 228.271 85.0903 229.041C84.8527 229.811 84.5719 230.884 84.2767 232.079C83.9815 233.275 83.6359 234.621 83.3119 236.126C81.6165 243.973 80.3379 251.904 79.4815 259.886C78.4591 269.246 77.9983 277.763 77.9551 283.927C77.9551 287.015 77.9551 289.514 78.0631 291.235C78.1135 292.041 78.1567 292.675 78.1855 293.215C78.1877 293.483 78.2265 293.749 78.3007 294.007Z" fill="#263238"/>
<path d="M78.3359 277.576C78.3908 276.886 78.3908 276.192 78.3359 275.502C78.2186 273.621 78.0072 271.746 77.7023 269.886C77.2509 267.127 76.6427 264.396 75.8807 261.707C74.9822 258.405 73.8316 255.177 72.4391 252.052C70.0556 246.268 66.64 240.967 62.3591 236.406C61.6174 235.627 60.8287 234.893 59.9975 234.21C59.6303 233.908 59.3135 233.598 58.9823 233.36L58.0679 232.727C57.5349 232.301 56.9692 231.919 56.3759 231.582C56.2751 231.712 58.8455 233.231 62.0927 236.68C66.2158 241.282 69.5247 246.554 71.8775 252.268C73.2349 255.385 74.3846 258.589 75.3191 261.858C76.2119 264.868 76.8095 267.618 77.2559 269.958C77.7023 272.298 77.9327 274.199 78.0839 275.524C78.1197 276.213 78.2039 276.898 78.3359 277.576Z" fill="#263238"/>
<path d="M62.459 306.563L64.1006 329.121H93.0806L94.7294 306.563H62.459Z" fill="#263238"/>
<path d="M98.1854 297.671H59.6582V306.563H98.1854V297.671Z" fill="#263238"/>
<path d="M59.6582 328.257V330.719H61.4654H97.5518V328.257H59.6582Z" fill="#455A64"/>
<path d="M63.2452 335.061L61.4668 330.72H96.1708L94.0972 335.061H63.2452Z" fill="#455A64"/>
<path d="M94.192 313.973C94.156 314.046 94.1099 314.114 94.0552 314.175C93.94 314.333 93.8032 314.52 93.6232 314.751L91.9384 316.911L91.8592 317.011L91.7872 316.911L87.64 311.151H87.8776L83.7952 316.911L83.6656 317.091L83.5216 316.925L78.6832 311.165H78.964C78.8776 311.266 78.784 311.381 78.6976 311.496L74.3776 316.925L74.2336 317.105L74.104 316.918L70.0144 311.158H70.252C68.2432 313.455 66.5296 315.399 65.212 316.918L65.1256 317.019L65.0608 316.903C64.3912 315.795 63.8656 314.902 63.484 314.261C63.3184 313.973 63.1816 313.743 63.0808 313.541C63.026 313.463 62.9824 313.379 62.9512 313.289C62.9512 313.289 63.016 313.361 63.124 313.512L63.5704 314.189L65.2264 316.788H65.068L70.0144 310.985L70.144 310.841L70.252 310.999L74.3776 316.759H74.0896L78.4096 311.323L78.676 310.992L78.82 310.819L78.9568 310.985C80.656 313.008 82.2832 314.959 83.788 316.745H83.5144L87.64 310.985L87.7624 310.819L87.8776 310.985L91.9384 316.788H91.7944L93.5512 314.693L94.0192 314.146C94.1296 313.997 94.1872 313.939 94.192 313.973Z" fill="#E0E0E0"/>
<path d="M95.1333 306.411C95.1333 306.512 87.8685 306.591 78.9189 306.591C69.9693 306.591 62.6973 306.512 62.6973 306.411C62.6973 306.311 69.9549 306.231 78.9189 306.231C87.8829 306.231 95.1333 306.311 95.1333 306.411Z" fill="#455A64"/>
<path d="M96.5949 330.965C96.5949 331.066 88.6749 331.145 78.9693 331.145C69.2637 331.145 61.3438 331.066 61.3438 330.965C61.3438 330.864 69.2637 330.785 78.9693 330.785C88.6749 330.785 96.5949 330.864 96.5949 330.965Z" fill="#263238"/>
<path d="M294.767 239.893H362.108C364.997 239.893 367.768 241.04 369.811 243.083C371.854 245.126 373.002 247.897 373.002 250.786V335.473H283.895V250.786C283.895 247.901 285.039 245.133 287.078 243.091C289.116 241.049 291.881 239.898 294.767 239.893Z" fill="#455A64"/>
<path d="M365.5 240.382C365.608 240.382 365.687 261.658 365.687 287.902C365.687 314.146 365.608 335.422 365.5 335.422C365.392 335.422 365.312 314.146 365.312 287.902C365.312 261.658 365.399 240.382 365.5 240.382Z" fill="#263238"/>
<path d="M321.596 136.135C329.791 147.867 334.49 161.684 335.147 175.98C335.564 185.556 334.275 195.758 338.819 204.196C345.342 216.307 359.447 215.896 363.767 228.95C365.646 234.631 362.183 247.123 361.247 253.034C360.188 259.744 364.292 265.382 363.234 272.1C362.262 278.256 357.654 282.648 352.124 285.513C347.199 288.062 342.649 288.134 337.53 286.01C327.767 281.971 319.645 277.708 312.697 269.76C302.934 258.6 299.982 243.12 298.297 228.41C294.62 195.879 295.364 163.001 300.507 130.67" fill="#263238"/>
<path d="M342.469 287.384C342.57 287.352 342.674 287.325 342.778 287.305C342.987 287.255 343.304 287.204 343.707 287.082C346.744 286.256 349.466 284.544 351.526 282.164C352.302 281.257 352.893 280.208 353.269 279.076C353.628 277.787 353.834 276.46 353.881 275.123C353.933 272.039 353.619 268.96 352.945 265.95C352.318 262.681 351.505 259.196 351.26 255.416C351.141 253.487 351.279 251.55 351.67 249.656C352.122 247.69 352.733 245.763 353.499 243.896C354.283 241.981 354.971 240.027 355.558 238.043C356.169 236.014 356.341 233.879 356.062 231.779C355.727 229.689 354.927 227.701 353.722 225.961C352.545 224.268 351.175 222.717 349.64 221.339C346.666 218.56 343.448 216.299 340.698 213.692C335.791 209.152 331.832 203.685 329.048 197.608C327.969 195.281 327.074 192.874 326.37 190.408C326.024 189.335 325.822 188.298 325.578 187.362C325.333 186.426 325.225 185.548 325.066 184.77C324.843 183.193 324.67 181.976 324.627 181.17C324.627 180.767 324.57 180.45 324.555 180.22C324.541 179.989 324.555 179.896 324.555 179.896C324.555 179.896 324.555 180.004 324.606 180.22C324.656 180.436 324.67 180.76 324.721 181.163C324.786 181.991 324.98 183.208 325.225 184.763C325.39 185.54 325.57 186.404 325.765 187.348C325.959 188.291 326.226 189.299 326.586 190.372C327.308 192.813 328.216 195.196 329.3 197.5C332.103 203.522 336.058 208.938 340.942 213.44C343.678 215.989 346.904 218.271 349.906 221.065C351.462 222.463 352.851 224.036 354.046 225.752C355.283 227.54 356.102 229.582 356.444 231.728C356.731 233.879 356.557 236.066 355.933 238.144C355.371 240.188 354.586 242.125 353.859 244.026C353.099 245.87 352.488 247.772 352.03 249.714C351.642 251.581 351.504 253.491 351.62 255.395C351.814 259.124 352.65 262.595 353.269 265.885C353.931 268.92 354.231 272.024 354.162 275.13C354.101 276.49 353.884 277.838 353.514 279.148C353.114 280.3 352.501 281.368 351.706 282.294C350.436 283.767 348.891 284.978 347.156 285.858C346.075 286.432 344.926 286.867 343.736 287.154C343.32 287.263 342.896 287.34 342.469 287.384Z" fill="#455A64"/>
<path d="M208.41 313.11L242.97 296.702C242.97 296.702 256.427 231.362 258.976 226.458C261.525 221.555 272.152 217.314 272.152 217.314L270.373 305.788L267.205 326.214L218.476 330.83L208.41 313.11Z" fill="#9DE08B"/>
<path d="M178.928 328.591C178.734 328.591 177.776 329.181 178.575 330.7C179.374 332.22 185.235 337.238 186.956 335.488C188.677 333.739 186.049 331.608 186.049 331.608L178.928 328.591Z" fill="#FFBE9D"/>
<path d="M186.293 331.672C186.293 331.672 193.363 332.564 196.078 333.601C199.037 334.724 202.637 333.954 205.056 332.32C206.431 331.404 207.714 330.358 208.887 329.195L217.901 329.051C219.197 327.533 220.047 325.687 220.357 323.716C220.667 321.744 220.425 319.726 219.658 317.884C219.175 316.602 218.479 315.412 217.599 314.363C216.526 313.204 214.834 312.268 211.911 311.764L201.204 314.075C201.204 314.075 184.644 312.887 181.663 314.284C181.663 314.284 177.955 316.48 176.811 317.401C176.379 317.754 175.061 321.973 177.761 324.169C177.761 324.169 175.414 326.034 176.688 327.712L177.293 328.432C177.293 328.432 175.716 330.476 176.53 331.369C177.343 332.262 184.45 336.409 186.977 335.43C189.504 334.451 187.416 332.082 186.293 331.65" fill="#FFBE9D"/>
<path d="M179.541 320.519C179.84 320.607 180.133 320.712 180.419 320.835C180.974 321.044 181.787 321.347 182.81 321.671C183.314 321.836 183.875 322.002 184.487 322.16C185.099 322.319 185.755 322.455 186.439 322.679C187.183 322.882 187.856 323.289 188.383 323.852C188.673 324.164 188.874 324.549 188.966 324.966C189.057 325.382 189.034 325.816 188.901 326.221C188.732 326.629 188.423 326.963 188.03 327.164C187.66 327.346 187.259 327.458 186.849 327.495C186.096 327.54 185.34 327.499 184.595 327.373C183.349 327.171 182.125 326.853 180.938 326.423C179.923 326.063 179.123 325.703 178.569 325.487C178.275 325.38 177.993 325.245 177.727 325.083C178.028 325.163 178.323 325.262 178.612 325.379C179.174 325.58 179.987 325.89 181.003 326.221C182.175 326.619 183.379 326.915 184.603 327.107C185.317 327.219 186.041 327.252 186.763 327.207C187.136 327.174 187.5 327.072 187.835 326.905C188.162 326.734 188.417 326.454 188.555 326.113C188.672 325.763 188.694 325.389 188.621 325.028C188.548 324.666 188.381 324.331 188.138 324.054C187.647 323.529 187.022 323.148 186.331 322.952C185.668 322.729 185.006 322.585 184.401 322.412C183.796 322.239 183.227 322.059 182.723 321.887C181.701 321.534 180.902 321.167 180.355 320.958C180.07 320.837 179.798 320.69 179.541 320.519Z" fill="#EB996E"/>
<path d="M180.174 315.413C180.473 315.496 180.764 315.602 181.046 315.73C181.607 315.946 182.414 316.255 183.422 316.587C184.43 316.918 185.646 317.307 187.022 317.616C187.776 317.735 188.493 318.025 189.117 318.466C189.448 318.741 189.665 319.128 189.729 319.553C189.792 319.982 189.729 320.419 189.549 320.813C189.366 321.189 189.107 321.522 188.788 321.792C188.47 322.062 188.099 322.263 187.698 322.383C186.972 322.619 186.2 322.681 185.445 322.563C184.217 322.317 183.012 321.965 181.845 321.511L179.462 320.676C179.166 320.584 178.877 320.471 178.598 320.338C178.904 320.389 179.205 320.466 179.498 320.568L181.91 321.288C183.083 321.706 184.286 322.033 185.51 322.267C186.223 322.37 186.95 322.306 187.634 322.08C187.998 321.969 188.334 321.784 188.623 321.536C188.912 321.288 189.146 320.983 189.311 320.64C189.481 320.313 189.539 319.939 189.475 319.576C189.411 319.213 189.23 318.881 188.958 318.631C188.369 318.22 187.695 317.947 186.986 317.832C185.61 317.487 184.394 317.112 183.386 316.738C182.378 316.363 181.586 316.018 181.038 315.787C180.741 315.686 180.452 315.561 180.174 315.413Z" fill="#EB996E"/>
<path d="M183.579 316.855C183.432 316.384 183.323 315.903 183.255 315.415C183.093 314.947 182.975 314.465 182.902 313.975C183.246 314.349 183.469 314.818 183.543 315.321C183.723 315.814 183.736 316.353 183.579 316.855Z" fill="#EB996E"/>
<path d="M208.512 317.084L202.212 314.694C202.212 314.694 184.723 306.529 184.428 306.976C184.133 307.422 183.182 307.364 183.391 309.496C183.6 311.627 193.788 315.932 194.112 316.696C194.436 317.459 193.896 321.174 197.661 323.845C201.427 326.516 204.141 326.581 204.141 326.581" fill="#FFBE9D"/>
<path d="M204.142 326.517H203.977L203.545 326.474C202.99 326.386 202.444 326.253 201.91 326.078C199.947 325.409 198.132 324.365 196.568 323.003C195.508 322.011 194.758 320.733 194.408 319.324C194.227 318.549 194.102 317.762 194.033 316.97C194.021 316.879 193.999 316.789 193.969 316.703C193.928 316.633 193.871 316.574 193.803 316.53C193.639 316.411 193.468 316.3 193.292 316.199C192.939 315.99 192.572 315.789 192.183 315.587C190.671 314.774 189.051 313.96 187.424 313.024C186.59 312.554 185.78 312.042 184.997 311.49C184.592 311.206 184.212 310.888 183.86 310.54C183.673 310.361 183.51 310.158 183.377 309.935C183.306 309.813 183.257 309.679 183.233 309.539C183.219 309.41 183.219 309.28 183.233 309.15C183.176 308.629 183.268 308.102 183.5 307.631C183.643 307.409 183.832 307.22 184.054 307.077C184.145 307.018 184.227 306.948 184.299 306.868C184.299 306.868 184.299 306.868 184.357 306.803C184.392 306.777 184.435 306.764 184.479 306.767C184.52 306.763 184.561 306.763 184.601 306.767L184.796 306.818C185.739 307.106 186.61 307.487 187.481 307.847C189.209 308.567 190.858 309.287 192.428 310.007C195.574 311.447 198.382 312.729 200.744 313.838C201.334 314.104 201.889 314.385 202.421 314.615L203.962 315.22L206.432 316.199L207.987 316.826L208.383 316.998C208.477 316.998 208.52 317.056 208.52 317.063C208.52 317.07 208.469 317.063 208.376 317.02L207.965 316.883L206.389 316.3L203.897 315.414L202.342 314.831C201.795 314.608 201.241 314.334 200.65 314.068L192.313 310.302C190.736 309.582 189.087 308.862 187.359 308.142C186.495 307.79 185.617 307.422 184.709 307.127L184.551 307.091H184.493C184.493 307.091 184.493 307.048 184.493 307.019C184.695 307.149 184.544 307.062 184.587 307.091C184.501 307.197 184.399 307.29 184.285 307.365C184.093 307.482 183.93 307.642 183.809 307.833C183.607 308.256 183.527 308.727 183.579 309.194C183.574 309.419 183.626 309.642 183.73 309.842C183.851 310.041 183.996 310.225 184.162 310.389C184.503 310.724 184.871 311.03 185.264 311.303C186.041 311.865 186.855 312.354 187.661 312.822C189.281 313.758 190.887 314.579 192.406 315.393C192.788 315.602 193.126 315.803 193.522 316.026C193.708 316.132 193.888 316.247 194.062 316.372C194.167 316.442 194.251 316.539 194.307 316.653C194.343 316.758 194.368 316.866 194.379 316.977C194.447 317.761 194.565 318.54 194.732 319.31C195.061 320.681 195.776 321.93 196.791 322.91C198.325 324.267 200.101 325.325 202.025 326.027C202.549 326.212 203.086 326.359 203.631 326.466C203.818 326.51 203.962 326.524 204.063 326.538L204.142 326.517Z" fill="#EB996E"/>
<path d="M184.852 327.337C185.085 327.365 185.311 327.431 185.522 327.531C186.114 327.769 186.669 328.089 187.171 328.482C187.521 328.755 187.839 329.067 188.121 329.411C188.298 329.604 188.435 329.831 188.522 330.079C188.61 330.326 188.648 330.589 188.632 330.851C188.575 331.148 188.435 331.424 188.229 331.647C188.023 331.87 187.759 332.03 187.466 332.111C186.864 332.275 186.227 332.255 185.637 332.053C183.635 331.46 181.692 330.682 179.834 329.727C179.274 329.435 178.731 329.113 178.207 328.763C178.005 328.647 177.819 328.507 177.652 328.345C177.867 328.429 178.072 328.536 178.264 328.662C178.653 328.885 179.215 329.195 179.928 329.54C181.788 330.429 183.714 331.175 185.688 331.772C186.226 331.958 186.807 331.981 187.358 331.837C187.6 331.773 187.82 331.644 187.994 331.464C188.168 331.284 188.289 331.059 188.344 330.815C188.36 330.583 188.33 330.351 188.256 330.131C188.182 329.911 188.065 329.708 187.912 329.533C187.648 329.197 187.349 328.891 187.02 328.619C186.354 328.102 185.626 327.671 184.852 327.337Z" fill="#EB996E"/>
<g opacity="0.3">
<path d="M266.963 326.215C261.304 307.128 256.314 282.547 250.655 263.46C248.582 281.078 251.174 304.342 254.414 321.78C254.795 323.825 254.968 325.826 256.574 327.173L266.963 326.215Z" fill="black"/>
</g>
<path d="M257.695 313.11C257.616 313.11 257.379 311.865 256.608 309.957C256.155 308.844 255.614 307.771 254.988 306.745C254.208 305.501 253.316 304.33 252.324 303.246C251.318 302.174 250.214 301.198 249.027 300.33C248.053 299.626 247.022 299.004 245.945 298.473C244.102 297.565 242.863 297.234 242.885 297.162C243.185 297.197 243.48 297.267 243.763 297.371C244.105 297.457 244.439 297.568 244.764 297.702C245.205 297.856 245.638 298.034 246.06 298.235C247.169 298.743 248.229 299.35 249.228 300.049C250.447 300.917 251.577 301.9 252.605 302.987C253.612 304.098 254.509 305.304 255.283 306.587C255.905 307.635 256.433 308.736 256.86 309.877C257.055 310.36 257.17 310.813 257.292 311.209C257.403 311.546 257.49 311.89 257.551 312.239C257.627 312.524 257.675 312.816 257.695 313.11Z" fill="#263238"/>
<path d="M268.482 216.422C268.482 216.422 250.389 256.85 250.389 264.294C250.389 271.739 263.946 323.284 263.946 323.284C263.817 325.336 263.291 335.61 263.291 335.61L339.316 335.877L340.475 319.533L334.542 303.959L340.468 259.931C340.468 259.931 344.457 234.371 344.788 227.222C345.234 218.279 314.937 207.911 315.765 206.673L310.537 199.646L280.578 223.974L274.653 206.867L267.553 213.57L268.482 216.422Z" fill="#9DE08B"/>
<path d="M318.27 227.18C310.04 241.097 294.985 266.456 294.985 266.456L268 297.228C268 297.228 266.236 312.86 269.764 317.655C273.292 322.45 279.347 325.726 279.347 325.726C279.347 325.726 286.468 325.726 295.518 318.159C304.568 310.592 329.531 279.322 329.531 279.322L338.106 268.976C338.106 268.976 348.33 243.862 346.422 231.082C345.702 226.15 343.585 224.105 340.792 221.844C333.757 216.178 322.871 219.396 318.27 227.18Z" fill="#9DE08B"/>
<path d="M341.28 260.263C341.243 260.362 341.2 260.458 341.15 260.551C341.056 260.752 340.92 261.019 340.754 261.372C340.394 262.092 339.847 263.136 339.098 264.46C337.608 267.117 335.289 270.868 332.265 275.397C330.746 277.658 329.054 280.113 327.189 282.719C325.324 285.326 323.208 288.011 321.465 291.151C319.723 294.29 318.139 297.717 316.231 301.144C314.271 304.695 311.973 308.049 309.369 311.159C306.765 314.283 303.701 316.992 300.283 319.195C297.079 321.239 293.501 322.624 289.756 323.27C286.367 323.871 282.887 323.724 279.561 322.838C278.056 322.431 276.605 321.844 275.241 321.088C273.972 320.419 272.779 319.612 271.684 318.684C270.681 317.852 269.781 316.902 269.006 315.854C268.308 314.923 267.714 313.919 267.235 312.859C266.495 311.153 266.009 309.348 265.795 307.502C265.671 306.337 265.63 305.166 265.672 303.996C265.672 303.607 265.716 303.275 265.73 303.081C265.723 302.978 265.723 302.875 265.73 302.771C265.738 302.875 265.738 302.978 265.73 303.081C265.73 303.304 265.73 303.607 265.73 303.996C265.716 305.16 265.779 306.324 265.917 307.48C266.159 309.307 266.663 311.09 267.415 312.772C267.899 313.812 268.493 314.797 269.186 315.71C269.958 316.739 270.852 317.67 271.85 318.482C272.934 319.392 274.115 320.182 275.371 320.836C276.716 321.573 278.145 322.145 279.626 322.543C282.918 323.402 286.358 323.535 289.706 322.931C293.401 322.283 296.93 320.908 300.088 318.885C303.476 316.698 306.513 314.011 309.096 310.915C311.684 307.826 313.967 304.493 315.914 300.964C317.822 297.559 319.363 294.103 321.17 290.978C322.935 288.06 324.858 285.241 326.93 282.532C328.802 279.94 330.53 277.492 332.035 275.246C335.088 270.746 337.435 267.016 338.961 264.388C339.732 263.071 340.3 262.041 340.675 261.336L341.114 260.529C341.159 260.434 341.214 260.345 341.28 260.263Z" fill="#263238"/>
<path d="M266.616 295.851C266.616 295.901 266.234 296.139 265.737 296.693C265.076 297.395 264.668 298.298 264.579 299.258C264.491 300.219 264.726 301.181 265.248 301.992C265.629 302.626 265.968 302.935 265.968 302.979C265.968 303.022 265.514 302.777 265.039 302.143C264.418 301.303 264.128 300.264 264.225 299.224C264.322 298.184 264.799 297.217 265.564 296.506C265.843 296.189 266.209 295.962 266.616 295.851Z" fill="#263238"/>
<path d="M271.605 304.016C271.75 304.035 271.892 304.069 272.03 304.117L272.534 304.254L273.254 304.383C274.75 304.581 276.271 304.438 277.704 303.966C279.836 303.252 281.797 302.105 283.464 300.596C285.445 298.695 287.241 296.609 288.828 294.368C290.44 292.109 292.297 290.034 294.365 288.183C295.344 287.362 296.301 286.635 297.101 285.85C297.862 285.152 298.474 284.307 298.901 283.366C299.187 282.679 299.299 281.932 299.227 281.191C299.156 280.45 298.903 279.738 298.49 279.118C298.143 278.692 297.695 278.358 297.187 278.146C297.33 278.173 297.47 278.214 297.605 278.269C297.993 278.443 298.335 278.704 298.605 279.032C299.062 279.666 299.351 280.405 299.447 281.18C299.542 281.955 299.441 282.742 299.153 283.467C298.724 284.45 298.102 285.336 297.324 286.074C296.51 286.88 295.545 287.629 294.588 288.45C292.554 290.298 290.724 292.36 289.13 294.598C287.524 296.859 285.701 298.957 283.687 300.862C281.985 302.38 279.983 303.523 277.812 304.218C276.338 304.679 274.777 304.785 273.254 304.527L272.534 304.362C272.333 304.304 272.167 304.232 272.037 304.189C271.887 304.149 271.742 304.091 271.605 304.016Z" fill="#263238"/>
<path d="M321.934 222.901C321.843 223.052 321.742 223.196 321.631 223.333C321.394 223.636 321.091 224.053 320.71 224.536C319.889 225.558 318.759 227.085 317.376 228.985C313.853 233.98 310.647 239.191 307.779 244.588C304.38 250.895 301.572 256.749 299.419 260.925C298.354 263.02 297.475 264.705 296.835 265.857L296.136 267.174C296.058 267.332 295.964 267.481 295.855 267.621C295.91 267.454 295.98 267.292 296.064 267.138L296.741 265.777L299.211 260.802C301.299 256.59 304.078 250.722 307.476 244.401C310.348 238.986 313.596 233.78 317.196 228.82C318.636 226.941 319.767 225.429 320.623 224.435L321.603 223.276C321.699 223.139 321.81 223.014 321.934 222.901Z" fill="#263238"/>
<g opacity="0.3">
<path d="M265.753 302.772C269.26 304.673 273.119 304.472 277.036 303.708C280.99 302.918 284.551 300.787 287.116 297.675C286.523 301.141 284.9 304.347 282.457 306.876C279.966 309.317 276.352 310.728 272.925 310.102C269.497 309.476 266.027 306.25 265.725 302.772" fill="black"/>
</g>
<g opacity="0.3">
<path d="M298.942 281.992C301.168 285.423 301.945 289.596 301.102 293.598C304.076 289.048 304.774 283.288 303.982 277.909C303.19 272.531 300.994 267.455 298.561 262.595C298.561 262.595 295.882 267.131 295.854 267.635C295.724 270.256 296.689 275.18 297.193 277.751C297.865 278.396 298.367 279.199 298.652 280.086C298.937 280.973 298.997 281.918 298.827 282.834" fill="black"/>
</g>
<g opacity="0.3">
<path d="M277.646 321.607C284.803 327.187 295.423 327.446 303.25 322.867C310.788 318.453 315.432 310.504 319.738 302.908C326.412 291.143 334.548 276.592 339.314 263.935C339.314 263.935 325.958 282.158 321.934 290.013C319.25 295.323 316.205 300.443 312.818 305.335C308.986 310.847 303.806 315.285 297.771 318.226C291.736 321.166 285.048 322.511 278.345 322.132" fill="black"/>
</g>
<path d="M263.29 335.574C263.278 335.5 263.278 335.425 263.29 335.351C263.29 335.178 263.29 334.962 263.29 334.696C263.29 334.084 263.34 333.256 263.384 332.198C263.484 330.038 263.621 326.942 263.794 323.248V323.334C262.505 319.014 260.993 313.773 259.424 308.114C257.35 300.611 255.6 293.786 254.42 288.825C253.836 286.348 253.376 284.332 253.088 282.935C252.951 282.266 252.843 281.726 252.764 281.33C252.721 281.142 252.69 280.952 252.67 280.761C252.743 280.937 252.798 281.121 252.836 281.308L253.232 282.906C253.584 284.346 254.074 286.319 254.672 288.76C255.917 293.706 257.71 300.518 259.784 308.013C261.346 313.672 262.836 318.914 264.104 323.241V323.291C263.88 326.985 263.693 330.059 263.556 332.248C263.484 333.292 263.427 334.127 263.384 334.739C263.384 334.998 263.34 335.214 263.326 335.387C263.322 335.451 263.31 335.514 263.29 335.574Z" fill="#263238"/>
<path d="M339.336 221.427C339.336 221.484 338.558 221.211 337.312 220.901C335.688 220.491 334.025 220.25 332.352 220.181C330.677 220.135 329.002 220.265 327.355 220.57C326.088 220.807 325.317 221.023 325.303 220.966C325.463 220.863 325.638 220.785 325.821 220.735C326.305 220.568 326.798 220.427 327.297 220.311C328.948 219.925 330.642 219.756 332.337 219.807C334.045 219.858 335.739 220.129 337.377 220.613C337.867 220.756 338.348 220.929 338.817 221.131C339.177 221.311 339.336 221.398 339.336 221.427Z" fill="#263238"/>
<path d="M315.266 208.134C315.214 208.265 315.149 208.39 315.072 208.508L314.46 209.538C313.92 210.431 313.121 211.698 312.106 213.275C310.068 216.392 307.152 220.647 303.703 225.169C300.931 228.819 298.246 232.095 296.05 234.659L295.891 234.839L295.798 234.623C294.746 232.333 293.882 230.432 293.256 229.057C292.975 228.423 292.752 227.905 292.572 227.509C292.484 227.332 292.414 227.146 292.363 226.955C292.479 227.117 292.578 227.291 292.658 227.473C292.853 227.862 293.098 228.366 293.414 228.985C294.07 230.346 294.977 232.225 296.064 234.5L295.819 234.464C297.979 231.872 300.636 228.589 303.408 224.946C306.85 220.424 309.787 216.205 311.882 213.123L314.338 209.459L315.007 208.465C315.079 208.344 315.166 208.232 315.266 208.134Z" fill="#263238"/>
<path d="M332.77 324.248C332.662 324.248 332.994 320.497 333.49 315.896C333.987 311.296 334.498 307.58 334.599 307.595C334.7 307.609 334.369 311.339 333.879 315.94C333.39 320.54 332.857 324.256 332.77 324.248Z" fill="#263238"/>
<path d="M280.656 323.264C281.065 325.338 281.351 327.434 281.513 329.542C281.804 331.635 281.966 333.744 281.995 335.856C281.591 333.782 281.305 331.685 281.139 329.578C280.856 327.484 280.695 325.376 280.656 323.264Z" fill="#263238"/>
<path d="M319.113 241.03C319.079 240.887 319.01 240.755 318.913 240.644C318.817 240.533 318.695 240.446 318.558 240.392C318.421 240.338 318.274 240.317 318.127 240.332C317.981 240.346 317.84 240.396 317.717 240.476L317.666 240.519C317.553 240.619 317.469 240.748 317.42 240.891C317.372 241.035 317.362 241.188 317.391 241.337C317.42 241.485 317.488 241.623 317.586 241.738C317.685 241.852 317.812 241.939 317.955 241.99C318.097 242.041 318.251 242.053 318.399 242.027C318.548 242 318.688 241.935 318.804 241.838C318.92 241.741 319.009 241.616 319.062 241.474C319.115 241.332 319.13 241.179 319.106 241.03H319.113Z" fill="white"/>
<path d="M311.602 222.729C311.567 222.586 311.499 222.454 311.402 222.343C311.306 222.232 311.184 222.146 311.047 222.091C310.91 222.037 310.763 222.016 310.616 222.031C310.47 222.045 310.329 222.095 310.206 222.175L310.162 222.218C310.049 222.319 309.965 222.447 309.917 222.59C309.868 222.734 309.858 222.887 309.887 223.036C309.916 223.184 309.984 223.323 310.083 223.437C310.181 223.552 310.308 223.638 310.451 223.689C310.593 223.74 310.747 223.752 310.896 223.726C311.045 223.699 311.184 223.634 311.3 223.537C311.416 223.44 311.505 223.315 311.558 223.173C311.611 223.032 311.626 222.879 311.602 222.729Z" fill="white"/>
<path d="M294.373 237.466C294.338 237.324 294.269 237.191 294.173 237.08C294.076 236.969 293.954 236.883 293.818 236.829C293.681 236.774 293.533 236.754 293.387 236.768C293.24 236.783 293.099 236.832 292.976 236.912H292.933C292.82 237.012 292.735 237.14 292.687 237.284C292.638 237.427 292.628 237.58 292.656 237.728C292.685 237.877 292.752 238.015 292.85 238.13C292.948 238.244 293.075 238.332 293.217 238.383C293.359 238.434 293.512 238.447 293.661 238.421C293.81 238.396 293.949 238.332 294.066 238.236C294.182 238.14 294.272 238.015 294.326 237.874C294.38 237.733 294.396 237.58 294.373 237.43V237.466Z" fill="white"/>
<path d="M275.747 230.065C275.713 229.923 275.645 229.79 275.549 229.679C275.454 229.568 275.332 229.482 275.196 229.427C275.06 229.373 274.912 229.352 274.766 229.367C274.62 229.381 274.48 229.431 274.357 229.511L274.307 229.554C274.194 229.655 274.109 229.783 274.061 229.927C274.013 230.07 274.003 230.224 274.032 230.372C274.061 230.52 274.128 230.659 274.227 230.773C274.326 230.888 274.453 230.975 274.595 231.025C274.738 231.076 274.891 231.089 275.04 231.062C275.189 231.035 275.328 230.97 275.445 230.874C275.561 230.777 275.65 230.651 275.703 230.51C275.756 230.368 275.771 230.215 275.747 230.065Z" fill="white"/>
<path d="M272.454 222.772C272.419 222.629 272.35 222.497 272.254 222.386C272.157 222.275 272.035 222.189 271.898 222.134C271.762 222.08 271.614 222.059 271.468 222.074C271.321 222.088 271.18 222.138 271.057 222.218L271.007 222.261C270.89 222.362 270.803 222.491 270.752 222.636C270.702 222.781 270.69 222.937 270.718 223.088C270.747 223.239 270.814 223.38 270.914 223.496C271.014 223.613 271.143 223.701 271.288 223.753C271.432 223.804 271.588 223.817 271.739 223.789C271.89 223.762 272.032 223.695 272.149 223.596C272.266 223.496 272.355 223.368 272.408 223.224C272.46 223.079 272.473 222.923 272.447 222.772H272.454Z" fill="white"/>
<path d="M273.888 214.348C273.853 214.205 273.784 214.073 273.688 213.962C273.591 213.851 273.469 213.765 273.333 213.711C273.196 213.656 273.048 213.635 272.902 213.65C272.755 213.665 272.615 213.714 272.491 213.794L272.441 213.83C272.328 213.93 272.243 214.058 272.195 214.201C272.146 214.344 272.136 214.498 272.164 214.646C272.193 214.794 272.26 214.933 272.358 215.047C272.456 215.162 272.582 215.249 272.725 215.301C272.867 215.352 273.02 215.365 273.169 215.339C273.317 215.314 273.457 215.249 273.574 215.153C273.69 215.057 273.78 214.933 273.834 214.792C273.887 214.65 273.904 214.498 273.881 214.348H273.888Z" fill="white"/>
<path d="M263.571 225.94C263.537 225.797 263.468 225.665 263.371 225.554C263.275 225.443 263.153 225.357 263.016 225.302C262.879 225.248 262.732 225.227 262.585 225.242C262.439 225.256 262.298 225.306 262.175 225.386L262.124 225.422C262.011 225.522 261.927 225.65 261.878 225.793C261.83 225.936 261.819 226.09 261.848 226.238C261.876 226.386 261.943 226.524 262.041 226.639C262.14 226.754 262.266 226.841 262.408 226.892C262.55 226.944 262.703 226.957 262.852 226.931C263.001 226.905 263.141 226.841 263.257 226.745C263.374 226.649 263.463 226.524 263.517 226.383C263.571 226.242 263.587 226.089 263.564 225.94H263.571Z" fill="white"/>
<path d="M287.497 229.28C287.463 229.138 287.395 229.005 287.299 228.894C287.203 228.783 287.082 228.697 286.946 228.642C286.81 228.588 286.662 228.567 286.516 228.582C286.37 228.596 286.23 228.646 286.107 228.726L286.057 228.769C285.944 228.87 285.859 228.998 285.811 229.142C285.763 229.285 285.753 229.438 285.782 229.587C285.811 229.735 285.878 229.874 285.977 229.988C286.076 230.103 286.203 230.19 286.345 230.24C286.488 230.291 286.641 230.303 286.79 230.277C286.939 230.25 287.078 230.185 287.195 230.088C287.311 229.992 287.4 229.866 287.453 229.724C287.506 229.583 287.521 229.43 287.497 229.28Z" fill="white"/>
<path d="M267.236 244.307C267.201 244.164 267.132 244.032 267.035 243.921C266.939 243.81 266.817 243.724 266.68 243.669C266.544 243.615 266.396 243.594 266.249 243.609C266.103 243.624 265.962 243.673 265.839 243.753H265.788C265.675 243.853 265.591 243.981 265.542 244.124C265.494 244.267 265.483 244.421 265.512 244.569C265.541 244.717 265.607 244.856 265.705 244.97C265.804 245.085 265.93 245.172 266.072 245.224C266.214 245.275 266.367 245.288 266.516 245.262C266.665 245.236 266.805 245.172 266.921 245.076C267.038 244.98 267.127 244.856 267.181 244.714C267.235 244.573 267.251 244.421 267.228 244.271L267.236 244.307Z" fill="white"/>
<path d="M248.717 287.522C248.682 287.379 248.613 287.247 248.516 287.136C248.42 287.025 248.298 286.939 248.161 286.884C248.025 286.83 247.877 286.809 247.73 286.824C247.584 286.838 247.443 286.888 247.32 286.968L247.277 287.004C247.164 287.104 247.079 287.232 247.03 287.375C246.982 287.518 246.972 287.672 247 287.82C247.029 287.968 247.096 288.107 247.194 288.221C247.292 288.336 247.418 288.423 247.56 288.474C247.703 288.526 247.856 288.539 248.004 288.513C248.153 288.487 248.293 288.423 248.409 288.327C248.526 288.231 248.616 288.106 248.67 287.965C248.723 287.824 248.74 287.671 248.717 287.522Z" fill="white"/>
<path d="M255.326 262.595C255.291 262.452 255.223 262.32 255.126 262.209C255.03 262.098 254.908 262.012 254.771 261.958C254.634 261.903 254.487 261.883 254.34 261.897C254.194 261.912 254.053 261.961 253.93 262.041L253.879 262.084C253.766 262.185 253.682 262.313 253.633 262.457C253.585 262.6 253.575 262.754 253.604 262.902C253.633 263.05 253.701 263.189 253.799 263.303C253.898 263.418 254.025 263.505 254.168 263.555C254.31 263.606 254.463 263.619 254.612 263.592C254.761 263.565 254.901 263.5 255.017 263.403C255.133 263.307 255.222 263.181 255.275 263.039C255.328 262.898 255.343 262.745 255.319 262.595H255.326Z" fill="white"/>
<path d="M304.056 218.834C304.021 218.691 303.952 218.558 303.856 218.447C303.759 218.336 303.637 218.25 303.501 218.196C303.364 218.142 303.216 218.121 303.07 218.135C302.923 218.15 302.782 218.199 302.659 218.279L302.609 218.315C302.496 218.416 302.411 218.544 302.362 218.687C302.314 218.83 302.304 218.983 302.332 219.131C302.361 219.28 302.428 219.418 302.526 219.533C302.624 219.648 302.75 219.735 302.893 219.786C303.035 219.837 303.188 219.85 303.336 219.825C303.485 219.799 303.625 219.735 303.741 219.639C303.858 219.543 303.948 219.418 304.002 219.277C304.055 219.136 304.072 218.983 304.049 218.834H304.056Z" fill="white"/>
<path d="M327.27 268.456C327.235 268.313 327.167 268.18 327.07 268.069C326.973 267.958 326.852 267.872 326.715 267.818C326.578 267.764 326.43 267.743 326.284 267.757C326.138 267.772 325.997 267.821 325.873 267.901L325.823 267.945C325.707 268.045 325.619 268.174 325.568 268.319C325.518 268.465 325.506 268.62 325.535 268.771C325.563 268.922 325.631 269.063 325.731 269.18C325.831 269.297 325.959 269.385 326.104 269.436C326.249 269.488 326.405 269.5 326.556 269.473C326.707 269.445 326.848 269.378 326.965 269.279C327.083 269.18 327.172 269.052 327.224 268.907C327.276 268.763 327.29 268.607 327.263 268.456H327.27Z" fill="white"/>
<path d="M336.318 225.752C336.284 225.609 336.217 225.477 336.121 225.366C336.025 225.255 335.904 225.168 335.767 225.114C335.631 225.06 335.484 225.039 335.338 225.053C335.192 225.068 335.051 225.117 334.929 225.198L334.878 225.234C334.765 225.334 334.68 225.462 334.632 225.605C334.584 225.748 334.573 225.901 334.602 226.05C334.63 226.198 334.697 226.336 334.795 226.451C334.894 226.566 335.02 226.653 335.162 226.704C335.304 226.755 335.457 226.769 335.606 226.743C335.755 226.717 335.894 226.653 336.011 226.557C336.128 226.461 336.217 226.336 336.271 226.195C336.325 226.054 336.341 225.901 336.318 225.752Z" fill="white"/>
<path d="M332.77 253.717C332.735 253.574 332.667 253.441 332.57 253.33C332.473 253.219 332.352 253.133 332.215 253.079C332.078 253.024 331.93 253.004 331.784 253.018C331.638 253.033 331.497 253.082 331.373 253.162L331.323 253.205C331.207 253.306 331.119 253.435 331.068 253.58C331.018 253.725 331.006 253.881 331.035 254.032C331.063 254.183 331.131 254.324 331.231 254.441C331.331 254.557 331.459 254.646 331.604 254.697C331.749 254.749 331.905 254.761 332.056 254.733C332.207 254.706 332.348 254.639 332.465 254.54C332.583 254.441 332.672 254.312 332.724 254.168C332.776 254.023 332.79 253.868 332.763 253.717H332.77Z" fill="white"/>
<path d="M312.457 273.915C312.422 273.772 312.354 273.639 312.257 273.528C312.16 273.417 312.039 273.331 311.902 273.277C311.765 273.223 311.617 273.202 311.471 273.216C311.325 273.231 311.184 273.28 311.06 273.36L311.01 273.404C310.897 273.504 310.812 273.633 310.764 273.776C310.716 273.919 310.706 274.073 310.735 274.221C310.764 274.37 310.831 274.508 310.93 274.623C311.029 274.737 311.156 274.824 311.298 274.875C311.441 274.925 311.594 274.938 311.743 274.911C311.892 274.885 312.032 274.82 312.148 274.723C312.264 274.626 312.353 274.501 312.406 274.359C312.459 274.217 312.474 274.064 312.45 273.915H312.457Z" fill="white"/>
<path d="M313.317 257.094C313.282 256.952 313.213 256.819 313.117 256.708C313.02 256.597 312.898 256.511 312.762 256.457C312.625 256.402 312.477 256.382 312.331 256.396C312.184 256.411 312.044 256.46 311.92 256.54L311.87 256.583C311.754 256.684 311.666 256.813 311.615 256.958C311.565 257.103 311.553 257.259 311.582 257.41C311.61 257.561 311.678 257.702 311.778 257.818C311.877 257.935 312.006 258.024 312.151 258.075C312.296 258.126 312.451 258.139 312.603 258.111C312.754 258.084 312.895 258.017 313.012 257.918C313.129 257.819 313.219 257.69 313.271 257.546C313.323 257.401 313.337 257.246 313.31 257.094H313.317Z" fill="white"/>
<path d="M325.561 225.897C325.527 225.754 325.46 225.621 325.364 225.51C325.268 225.399 325.147 225.313 325.01 225.258C324.874 225.204 324.727 225.183 324.581 225.198C324.435 225.212 324.295 225.262 324.172 225.342L324.121 225.385C324.008 225.486 323.924 225.614 323.876 225.758C323.827 225.901 323.817 226.055 323.846 226.203C323.875 226.352 323.943 226.49 324.042 226.604C324.14 226.719 324.267 226.806 324.41 226.856C324.552 226.907 324.706 226.92 324.855 226.893C325.003 226.866 325.143 226.801 325.259 226.705C325.375 226.608 325.464 226.482 325.517 226.341C325.57 226.199 325.585 226.046 325.561 225.897Z" fill="white"/>
<path d="M309.096 209.61C309.062 209.468 308.994 209.335 308.898 209.224C308.802 209.113 308.681 209.027 308.545 208.972C308.408 208.918 308.261 208.897 308.115 208.912C307.969 208.926 307.829 208.976 307.706 209.056L307.656 209.092C307.543 209.192 307.458 209.32 307.409 209.463C307.361 209.607 307.35 209.76 307.379 209.908C307.408 210.056 307.474 210.195 307.573 210.31C307.671 210.424 307.797 210.512 307.939 210.563C308.082 210.614 308.235 210.627 308.383 210.601C308.532 210.576 308.672 210.511 308.788 210.415C308.905 210.319 308.995 210.195 309.048 210.054C309.102 209.912 309.119 209.76 309.096 209.61Z" fill="white"/>
<path d="M308.471 235.868C308.437 235.725 308.369 235.591 308.273 235.479C308.177 235.367 308.055 235.28 307.917 235.226C307.78 235.171 307.632 235.151 307.485 235.166C307.338 235.182 307.197 235.232 307.074 235.314L307.031 235.35C306.918 235.45 306.833 235.578 306.784 235.721C306.736 235.865 306.725 236.018 306.754 236.166C306.783 236.314 306.849 236.453 306.948 236.568C307.046 236.682 307.172 236.77 307.314 236.821C307.457 236.872 307.61 236.885 307.758 236.859C307.907 236.834 308.047 236.77 308.163 236.673C308.28 236.577 308.37 236.453 308.423 236.312C308.477 236.17 308.494 236.018 308.471 235.868Z" fill="white"/>
<path d="M287.416 315.968C287.381 315.829 287.314 315.701 287.22 315.594C287.126 315.486 287.008 315.402 286.876 315.348C286.743 315.294 286.6 315.272 286.458 315.283C286.315 315.295 286.178 315.339 286.056 315.413L286.005 315.449C285.892 315.55 285.807 315.678 285.759 315.821C285.71 315.964 285.7 316.117 285.729 316.265C285.757 316.414 285.824 316.552 285.922 316.667C286.02 316.782 286.147 316.869 286.289 316.92C286.431 316.971 286.584 316.985 286.733 316.959C286.882 316.933 287.021 316.869 287.138 316.773C287.255 316.677 287.344 316.552 287.398 316.411C287.452 316.27 287.468 316.117 287.445 315.968H287.416Z" fill="white"/>
<path d="M263.26 302.792C263.225 302.649 263.156 302.516 263.06 302.405C262.963 302.294 262.841 302.208 262.705 302.154C262.568 302.1 262.42 302.079 262.274 302.093C262.127 302.108 261.987 302.157 261.863 302.237L261.813 302.281C261.7 302.381 261.615 302.51 261.567 302.653C261.519 302.796 261.509 302.95 261.538 303.098C261.567 303.247 261.634 303.385 261.733 303.5C261.832 303.614 261.959 303.701 262.101 303.752C262.244 303.802 262.397 303.815 262.546 303.788C262.695 303.762 262.834 303.697 262.951 303.6C263.067 303.503 263.156 303.377 263.209 303.236C263.262 303.094 263.277 302.941 263.253 302.792H263.26Z" fill="white"/>
<path d="M243.728 309.251C243.693 309.108 243.625 308.975 243.528 308.864C243.432 308.753 243.31 308.667 243.173 308.613C243.036 308.559 242.889 308.538 242.742 308.552C242.596 308.567 242.455 308.616 242.332 308.696L242.288 308.732C242.175 308.833 242.091 308.961 242.042 309.104C241.994 309.247 241.983 309.4 242.012 309.548C242.041 309.697 242.107 309.835 242.205 309.95C242.304 310.065 242.43 310.152 242.572 310.203C242.714 310.254 242.867 310.267 243.016 310.242C243.165 310.216 243.305 310.152 243.421 310.056C243.538 309.96 243.627 309.835 243.681 309.694C243.735 309.553 243.751 309.4 243.728 309.251Z" fill="white"/>
<path d="M241.64 320.376C241.605 320.233 241.536 320.1 241.44 319.989C241.343 319.878 241.221 319.792 241.085 319.738C240.948 319.684 240.8 319.663 240.654 319.677C240.507 319.692 240.366 319.741 240.243 319.821L240.193 319.857C240.08 319.958 239.995 320.086 239.946 320.229C239.898 320.372 239.888 320.525 239.916 320.673C239.945 320.822 240.012 320.96 240.11 321.075C240.208 321.19 240.334 321.277 240.477 321.328C240.619 321.379 240.772 321.392 240.92 321.367C241.069 321.341 241.209 321.277 241.325 321.181C241.442 321.085 241.532 320.96 241.586 320.819C241.639 320.678 241.656 320.525 241.633 320.376H241.64Z" fill="white"/>
<path d="M259.948 324.098C259.913 323.955 259.844 323.823 259.748 323.712C259.651 323.601 259.53 323.515 259.393 323.461C259.256 323.406 259.108 323.385 258.962 323.4C258.815 323.415 258.675 323.464 258.551 323.544L258.508 323.587C258.395 323.688 258.31 323.816 258.262 323.96C258.214 324.103 258.204 324.256 258.233 324.405C258.262 324.553 258.329 324.692 258.428 324.806C258.527 324.921 258.654 325.008 258.797 325.058C258.939 325.109 259.092 325.121 259.241 325.095C259.39 325.068 259.53 325.003 259.646 324.906C259.762 324.81 259.851 324.684 259.904 324.542C259.957 324.401 259.972 324.248 259.948 324.098Z" fill="white"/>
<path d="M253.829 299.185C253.794 299.042 253.725 298.91 253.629 298.799C253.532 298.688 253.41 298.602 253.273 298.547C253.137 298.493 252.989 298.472 252.843 298.487C252.696 298.501 252.555 298.551 252.432 298.631L252.382 298.674C252.265 298.775 252.178 298.904 252.127 299.049C252.077 299.194 252.065 299.35 252.093 299.501C252.122 299.652 252.189 299.793 252.289 299.909C252.389 300.026 252.518 300.114 252.663 300.166C252.807 300.217 252.963 300.23 253.114 300.202C253.265 300.175 253.407 300.108 253.524 300.009C253.641 299.909 253.73 299.781 253.783 299.637C253.835 299.492 253.848 299.337 253.822 299.185H253.829Z" fill="white"/>
<path d="M276.295 305.521C276.261 305.377 276.193 305.243 276.097 305.131C276.001 305.019 275.879 304.932 275.741 304.878C275.604 304.823 275.456 304.803 275.309 304.818C275.162 304.834 275.021 304.885 274.898 304.966L274.855 305.002C274.742 305.103 274.657 305.231 274.609 305.374C274.56 305.517 274.55 305.67 274.578 305.818C274.607 305.967 274.674 306.105 274.772 306.22C274.87 306.335 274.996 306.422 275.139 306.473C275.281 306.524 275.434 306.538 275.583 306.512C275.731 306.486 275.871 306.422 275.988 306.326C276.104 306.23 276.194 306.105 276.248 305.964C276.302 305.823 276.318 305.67 276.295 305.521Z" fill="white"/>
<path d="M329.697 299.15C329.665 299.006 329.598 298.873 329.502 298.761C329.407 298.649 329.285 298.562 329.148 298.507C329.011 298.452 328.863 298.432 328.717 298.447C328.57 298.463 328.43 298.514 328.307 298.596L328.257 298.632C328.144 298.732 328.059 298.86 328.011 299.003C327.962 299.146 327.952 299.299 327.981 299.448C328.009 299.596 328.076 299.734 328.174 299.849C328.272 299.964 328.399 300.051 328.541 300.102C328.683 300.154 328.836 300.167 328.985 300.141C329.134 300.115 329.273 300.051 329.39 299.955C329.507 299.859 329.596 299.734 329.65 299.593C329.704 299.452 329.72 299.299 329.697 299.15Z" fill="white"/>
<path d="M296.654 330.807C296.62 330.664 296.551 330.532 296.454 330.421C296.358 330.31 296.236 330.224 296.099 330.169C295.962 330.115 295.815 330.094 295.668 330.109C295.522 330.123 295.381 330.173 295.258 330.253L295.207 330.296C295.094 330.397 295.01 330.525 294.961 330.669C294.913 330.812 294.903 330.965 294.932 331.114C294.961 331.262 295.029 331.401 295.127 331.515C295.226 331.63 295.353 331.717 295.496 331.767C295.638 331.818 295.792 331.83 295.941 331.804C296.089 331.777 296.229 331.712 296.345 331.615C296.461 331.519 296.55 331.393 296.603 331.251C296.656 331.11 296.671 330.957 296.647 330.807H296.654Z" fill="white"/>
<path d="M310.745 313.183C310.711 313.04 310.643 312.907 310.547 312.796C310.452 312.685 310.33 312.599 310.194 312.545C310.058 312.49 309.91 312.469 309.764 312.484C309.618 312.499 309.478 312.548 309.355 312.628L309.305 312.671C309.192 312.772 309.107 312.901 309.059 313.044C309.011 313.187 309.001 313.341 309.03 313.489C309.059 313.638 309.126 313.776 309.225 313.891C309.324 314.005 309.451 314.092 309.593 314.143C309.736 314.193 309.889 314.206 310.038 314.179C310.187 314.153 310.327 314.088 310.443 313.991C310.559 313.894 310.648 313.768 310.701 313.627C310.754 313.485 310.769 313.332 310.745 313.183Z" fill="white"/>
<path d="M319.119 327.518C319.087 327.375 319.021 327.241 318.927 327.129C318.833 327.016 318.713 326.927 318.578 326.87C318.443 326.813 318.296 326.789 318.15 326.801C318.003 326.812 317.862 326.858 317.737 326.935L317.694 326.978C317.581 327.079 317.496 327.207 317.448 327.35C317.4 327.494 317.39 327.647 317.419 327.796C317.448 327.944 317.515 328.082 317.614 328.197C317.713 328.311 317.84 328.398 317.982 328.449C318.125 328.5 318.278 328.512 318.427 328.486C318.576 328.459 318.715 328.394 318.831 328.297C318.948 328.2 319.037 328.075 319.09 327.933C319.143 327.791 319.158 327.638 319.134 327.489L319.119 327.518Z" fill="white"/>
<path d="M295.826 252.451C295.791 252.308 295.723 252.175 295.626 252.065C295.53 251.954 295.408 251.867 295.271 251.813C295.134 251.759 294.987 251.738 294.84 251.753C294.694 251.767 294.553 251.816 294.43 251.896L294.379 251.94C294.266 252.04 294.182 252.169 294.133 252.312C294.085 252.456 294.075 252.609 294.104 252.757C294.133 252.906 294.201 253.044 294.299 253.159C294.398 253.273 294.525 253.36 294.668 253.411C294.81 253.461 294.963 253.474 295.112 253.447C295.261 253.421 295.401 253.356 295.517 253.259C295.633 253.162 295.722 253.037 295.775 252.895C295.828 252.753 295.843 252.6 295.819 252.451H295.826Z" fill="white"/>
<path d="M314.784 289.049C314.749 288.906 314.681 288.773 314.584 288.662C314.488 288.551 314.366 288.465 314.229 288.411C314.092 288.356 313.945 288.336 313.798 288.35C313.652 288.365 313.511 288.414 313.388 288.494L313.337 288.53C313.224 288.631 313.139 288.759 313.091 288.902C313.043 289.045 313.032 289.198 313.061 289.346C313.089 289.495 313.156 289.633 313.254 289.748C313.353 289.862 313.479 289.95 313.621 290.001C313.763 290.052 313.916 290.065 314.065 290.04C314.214 290.014 314.353 289.95 314.47 289.854C314.587 289.758 314.676 289.633 314.73 289.492C314.784 289.351 314.8 289.198 314.777 289.049H314.784Z" fill="white"/>
<path d="M308.634 302.908C308.599 302.765 308.53 302.633 308.434 302.522C308.337 302.411 308.215 302.324 308.079 302.27C307.942 302.216 307.794 302.195 307.648 302.21C307.501 302.224 307.361 302.273 307.237 302.353L307.187 302.39C307.074 302.49 306.989 302.618 306.941 302.761C306.892 302.904 306.882 303.057 306.91 303.206C306.939 303.354 307.006 303.492 307.104 303.607C307.202 303.722 307.329 303.809 307.471 303.86C307.613 303.911 307.766 303.925 307.915 303.899C308.063 303.873 308.203 303.809 308.32 303.713C308.436 303.617 308.526 303.492 308.58 303.351C308.634 303.21 308.65 303.057 308.627 302.908H308.634Z" fill="white"/>
<path d="M328.846 314.04C328.811 313.897 328.742 313.764 328.646 313.653C328.549 313.542 328.427 313.456 328.291 313.402C328.154 313.348 328.006 313.327 327.86 313.341C327.713 313.356 327.573 313.405 327.449 313.485L327.399 313.529C327.286 313.629 327.201 313.758 327.153 313.901C327.105 314.044 327.095 314.198 327.124 314.346C327.153 314.495 327.22 314.633 327.319 314.748C327.418 314.862 327.545 314.949 327.687 315C327.83 315.05 327.983 315.063 328.132 315.036C328.281 315.01 328.42 314.945 328.536 314.848C328.653 314.751 328.742 314.626 328.795 314.484C328.848 314.342 328.863 314.189 328.839 314.04H328.846Z" fill="white"/>
<path d="M273.544 330.116C273.511 329.973 273.443 329.839 273.347 329.727C273.25 329.615 273.128 329.528 272.991 329.474C272.854 329.419 272.705 329.399 272.558 329.414C272.411 329.43 272.27 329.48 272.147 329.562L272.097 329.598C271.984 329.698 271.899 329.826 271.851 329.97C271.802 330.113 271.792 330.266 271.82 330.414C271.849 330.562 271.916 330.701 272.014 330.816C272.112 330.93 272.239 331.018 272.381 331.069C272.523 331.12 272.676 331.133 272.825 331.107C272.974 331.082 273.113 331.018 273.23 330.922C273.346 330.825 273.436 330.701 273.49 330.56C273.544 330.418 273.56 330.266 273.537 330.116H273.544Z" fill="white"/>
<path d="M227.463 325.905C227.429 325.762 227.36 325.63 227.263 325.519C227.167 325.408 227.045 325.321 226.908 325.267C226.771 325.213 226.624 325.192 226.477 325.207C226.331 325.221 226.19 325.27 226.067 325.351L226.016 325.394C225.9 325.494 225.812 325.624 225.762 325.769C225.711 325.914 225.7 326.07 225.728 326.22C225.757 326.371 225.824 326.512 225.924 326.629C226.024 326.746 226.153 326.834 226.297 326.886C226.442 326.937 226.598 326.95 226.749 326.922C226.9 326.894 227.041 326.828 227.159 326.728C227.276 326.629 227.365 326.501 227.417 326.356C227.47 326.212 227.483 326.056 227.456 325.905H227.463Z" fill="white"/>
<path d="M268.055 318.338C268.02 318.195 267.952 318.062 267.855 317.951C267.759 317.84 267.637 317.754 267.5 317.7C267.363 317.645 267.216 317.625 267.069 317.639C266.923 317.654 266.782 317.703 266.658 317.783L266.608 317.826C266.492 317.927 266.404 318.056 266.354 318.201C266.303 318.346 266.291 318.502 266.32 318.653C266.348 318.804 266.416 318.945 266.516 319.062C266.616 319.178 266.744 319.267 266.889 319.318C267.034 319.37 267.19 319.382 267.341 319.355C267.492 319.327 267.633 319.26 267.751 319.161C267.868 319.062 267.957 318.933 268.009 318.789C268.061 318.645 268.075 318.489 268.048 318.338H268.055Z" fill="white"/>
<path d="M229.176 310.108C229.142 309.964 229.074 309.83 228.978 309.718C228.882 309.606 228.76 309.519 228.622 309.465C228.485 309.41 228.337 309.39 228.19 309.405C228.043 309.421 227.902 309.471 227.779 309.553L227.736 309.589C227.623 309.69 227.538 309.818 227.489 309.961C227.441 310.104 227.431 310.257 227.459 310.405C227.488 310.554 227.554 310.692 227.653 310.807C227.751 310.922 227.877 311.009 228.019 311.06C228.162 311.111 228.315 311.124 228.463 311.099C228.612 311.073 228.752 311.009 228.868 310.913C228.985 310.817 229.075 310.692 229.129 310.551C229.182 310.41 229.199 310.257 229.176 310.108Z" fill="white"/>
<path d="M294.12 283.971C294.085 283.828 294.017 283.696 293.92 283.585C293.824 283.474 293.702 283.388 293.565 283.334C293.428 283.279 293.281 283.259 293.134 283.273C292.988 283.288 292.847 283.337 292.724 283.417L292.673 283.453C292.56 283.553 292.475 283.681 292.427 283.824C292.378 283.968 292.368 284.121 292.397 284.269C292.425 284.417 292.492 284.556 292.59 284.67C292.688 284.785 292.815 284.873 292.957 284.924C293.099 284.975 293.252 284.988 293.401 284.962C293.55 284.937 293.689 284.872 293.806 284.776C293.923 284.68 294.012 284.556 294.066 284.415C294.12 284.273 294.136 284.121 294.113 283.971H294.12Z" fill="white"/>
<path d="M280.527 244.307C280.492 244.164 280.423 244.032 280.326 243.921C280.23 243.81 280.108 243.724 279.971 243.669C279.835 243.615 279.687 243.594 279.54 243.609C279.394 243.624 279.253 243.673 279.13 243.753H279.079C278.966 243.853 278.882 243.981 278.833 244.124C278.785 244.267 278.774 244.421 278.803 244.569C278.832 244.717 278.898 244.856 278.996 244.97C279.095 245.085 279.221 245.172 279.363 245.224C279.505 245.275 279.658 245.288 279.807 245.262C279.956 245.236 280.096 245.172 280.212 245.076C280.329 244.98 280.418 244.856 280.472 244.714C280.526 244.573 280.542 244.421 280.519 244.271L280.527 244.307Z" fill="white"/>
<path d="M277.13 278.694C277.095 278.551 277.026 278.419 276.93 278.308C276.833 278.197 276.711 278.11 276.574 278.056C276.438 278.002 276.29 277.981 276.144 277.996C275.997 278.01 275.856 278.06 275.733 278.14L275.69 278.183C275.577 278.284 275.492 278.412 275.444 278.555C275.396 278.699 275.386 278.852 275.415 279.001C275.444 279.149 275.511 279.287 275.61 279.402C275.709 279.516 275.836 279.603 275.978 279.654C276.121 279.705 276.274 279.717 276.423 279.691C276.572 279.664 276.711 279.599 276.827 279.502C276.944 279.405 277.033 279.28 277.086 279.138C277.139 278.996 277.154 278.843 277.13 278.694Z" fill="white"/>
<path d="M271.599 267.485C271.565 267.342 271.496 267.21 271.399 267.099C271.303 266.988 271.181 266.902 271.044 266.847C270.907 266.793 270.76 266.772 270.613 266.787C270.467 266.801 270.326 266.851 270.203 266.931H270.159C270.047 267.031 269.962 267.159 269.913 267.302C269.865 267.445 269.854 267.598 269.883 267.747C269.912 267.895 269.978 268.033 270.077 268.148C270.175 268.263 270.301 268.35 270.443 268.401C270.585 268.453 270.738 268.466 270.887 268.44C271.036 268.414 271.176 268.35 271.292 268.254C271.409 268.158 271.499 268.033 271.552 267.892C271.606 267.751 271.622 267.598 271.599 267.449V267.485Z" fill="white"/>
<path d="M296.055 302.749C296.02 302.606 295.952 302.473 295.855 302.362C295.759 302.251 295.637 302.165 295.5 302.111C295.363 302.057 295.216 302.036 295.069 302.05C294.923 302.065 294.782 302.114 294.658 302.194L294.608 302.238C294.492 302.338 294.404 302.467 294.354 302.612C294.303 302.757 294.291 302.913 294.32 303.064C294.348 303.215 294.416 303.356 294.516 303.473C294.616 303.59 294.744 303.678 294.889 303.729C295.034 303.781 295.19 303.793 295.341 303.766C295.492 303.738 295.633 303.671 295.75 303.572C295.868 303.473 295.957 303.345 296.009 303.2C296.061 303.056 296.075 302.9 296.048 302.749H296.055Z" fill="white"/>
<path d="M278.813 295.831C278.782 295.685 278.716 295.549 278.621 295.434C278.526 295.32 278.404 295.23 278.266 295.174C278.129 295.117 277.979 295.094 277.831 295.109C277.683 295.123 277.54 295.173 277.416 295.255L277.365 295.298C277.253 295.399 277.168 295.527 277.12 295.67C277.071 295.814 277.061 295.967 277.09 296.116C277.12 296.264 277.187 296.402 277.286 296.517C277.384 296.631 277.511 296.718 277.654 296.769C277.797 296.82 277.95 296.832 278.099 296.806C278.248 296.779 278.387 296.714 278.503 296.617C278.619 296.52 278.708 296.395 278.761 296.253C278.814 296.111 278.83 295.958 278.805 295.809L278.813 295.831Z" fill="white"/>
<path d="M286.193 257.851C286.159 257.708 286.092 257.575 285.996 257.464C285.9 257.353 285.779 257.267 285.642 257.213C285.506 257.158 285.359 257.137 285.213 257.152C285.067 257.167 284.926 257.216 284.804 257.296L284.753 257.332C284.64 257.433 284.555 257.561 284.507 257.704C284.459 257.847 284.448 258 284.477 258.148C284.505 258.297 284.572 258.435 284.67 258.55C284.769 258.665 284.895 258.752 285.037 258.803C285.179 258.854 285.332 258.867 285.481 258.842C285.63 258.816 285.769 258.752 285.886 258.656C286.003 258.56 286.092 258.435 286.146 258.294C286.2 258.153 286.216 258 286.193 257.851Z" fill="white"/>
<path d="M259.948 284.743C259.913 284.6 259.844 284.467 259.748 284.357C259.651 284.246 259.53 284.159 259.393 284.105C259.256 284.051 259.108 284.03 258.962 284.045C258.815 284.059 258.675 284.108 258.551 284.188L258.508 284.232C258.395 284.332 258.31 284.461 258.262 284.604C258.214 284.748 258.204 284.901 258.233 285.049C258.262 285.198 258.329 285.336 258.428 285.451C258.527 285.565 258.654 285.652 258.797 285.703C258.939 285.753 259.092 285.766 259.241 285.739C259.39 285.713 259.53 285.648 259.646 285.551C259.762 285.454 259.851 285.329 259.904 285.187C259.957 285.045 259.972 284.892 259.948 284.743Z" fill="white"/>
<path d="M300.454 272.401C300.419 272.258 300.351 272.126 300.254 272.015C300.158 271.904 300.036 271.818 299.899 271.763C299.762 271.709 299.615 271.688 299.468 271.703C299.322 271.717 299.181 271.767 299.057 271.847L299.007 271.883C298.894 271.983 298.809 272.111 298.761 272.254C298.712 272.397 298.702 272.55 298.731 272.699C298.759 272.847 298.826 272.985 298.924 273.1C299.022 273.215 299.149 273.302 299.291 273.353C299.433 273.405 299.586 273.418 299.735 273.392C299.884 273.366 300.023 273.302 300.14 273.206C300.257 273.11 300.346 272.985 300.4 272.844C300.454 272.703 300.47 272.55 300.447 272.401H300.454Z" fill="white"/>
<path d="M338.033 240.175C337.998 240.032 337.93 239.899 337.833 239.788C337.737 239.677 337.615 239.591 337.478 239.537C337.341 239.482 337.194 239.462 337.047 239.476C336.901 239.491 336.76 239.54 336.637 239.62L336.586 239.663C336.473 239.764 336.389 239.892 336.34 240.036C336.292 240.179 336.282 240.333 336.311 240.481C336.34 240.63 336.408 240.768 336.506 240.882C336.605 240.997 336.732 241.084 336.875 241.134C337.017 241.185 337.171 241.198 337.319 241.171C337.468 241.144 337.608 241.079 337.724 240.983C337.84 240.886 337.929 240.76 337.982 240.619C338.035 240.477 338.05 240.324 338.026 240.175H338.033Z" fill="white"/>
<path d="M322.778 215.774C322.743 215.631 322.674 215.499 322.577 215.388C322.481 215.277 322.359 215.191 322.222 215.136C322.086 215.082 321.938 215.061 321.791 215.076C321.645 215.09 321.504 215.14 321.381 215.22L321.33 215.263C321.217 215.364 321.133 215.492 321.085 215.635C321.036 215.779 321.026 215.932 321.055 216.081C321.084 216.229 321.152 216.367 321.251 216.482C321.349 216.597 321.476 216.683 321.619 216.734C321.761 216.785 321.915 216.797 322.064 216.771C322.212 216.744 322.352 216.679 322.468 216.582C322.584 216.485 322.673 216.36 322.726 216.218C322.779 216.076 322.794 215.923 322.77 215.774H322.778Z" fill="white"/>
<path d="M293.212 218.834C293.177 218.691 293.109 218.558 293.012 218.447C292.915 218.336 292.794 218.25 292.657 218.196C292.52 218.142 292.372 218.121 292.226 218.135C292.08 218.15 291.939 218.199 291.815 218.279L291.765 218.315C291.652 218.416 291.567 218.544 291.519 218.687C291.47 218.83 291.46 218.983 291.488 219.131C291.517 219.28 291.584 219.418 291.682 219.533C291.78 219.648 291.907 219.735 292.049 219.786C292.191 219.837 292.344 219.85 292.493 219.825C292.642 219.799 292.781 219.735 292.898 219.639C293.014 219.543 293.104 219.418 293.158 219.277C293.212 219.136 293.228 218.983 293.205 218.834H293.212Z" fill="white"/>
<path d="M263.053 131.245C257.387 134.845 255.133 142.412 256.199 146.884C256.746 149.137 257.768 151.405 257.322 153.673C256.94 155.639 255.522 157.216 254.442 158.915C252.663 161.775 251.845 165.13 252.109 168.488C252.373 171.846 253.705 175.032 255.909 177.579C258.114 180.126 261.075 181.902 264.361 182.645C267.647 183.388 271.084 183.06 274.17 181.71" fill="#263238"/>
<path d="M259.697 160.758C245.901 130.418 278.719 115.175 296.618 120.23C313.445 124.982 320.623 133.355 323.395 144.609C326.167 155.862 326.03 168.066 321.617 178.787C319.457 184.072 315.525 189.443 309.845 190.106" fill="#263238"/>
<path d="M275.863 234.853C275.625 220.352 275.452 200.444 275.452 200.524C275.452 200.603 263.018 198.457 260.404 182.214C259.123 174.128 259.533 160.873 260.21 150.037C260.829 140.281 267.287 128.315 277.007 129.344L307.355 137.012C308.78 137.162 310.097 137.842 311.043 138.917C311.99 139.992 312.499 141.383 312.467 142.816L310.495 205.578" fill="#FFBE9D"/>
<path d="M265.637 159.953C265.625 160.493 265.825 161.016 266.194 161.41C266.562 161.804 267.071 162.038 267.61 162.063C267.874 162.087 268.139 162.059 268.392 161.979C268.644 161.899 268.878 161.769 269.079 161.597C269.281 161.426 269.446 161.215 269.564 160.978C269.683 160.742 269.753 160.484 269.77 160.219C269.78 159.68 269.58 159.157 269.212 158.762C268.844 158.367 268.336 158.131 267.797 158.103C267.533 158.079 267.267 158.108 267.015 158.189C266.762 158.27 266.529 158.4 266.327 158.573C266.126 158.745 265.961 158.956 265.843 159.193C265.724 159.43 265.654 159.689 265.637 159.953Z" fill="#263238"/>
<path d="M287.18 159.954C287.17 160.492 287.371 161.013 287.739 161.406C288.108 161.798 288.615 162.032 289.153 162.056C289.416 162.081 289.682 162.052 289.935 161.972C290.187 161.892 290.421 161.763 290.622 161.591C290.824 161.419 290.989 161.208 291.107 160.972C291.226 160.735 291.296 160.477 291.313 160.213C291.325 159.673 291.125 159.15 290.756 158.756C290.388 158.362 289.879 158.128 289.34 158.103C289.076 158.079 288.809 158.107 288.557 158.188C288.304 158.268 288.07 158.398 287.868 158.571C287.667 158.744 287.502 158.955 287.384 159.192C287.266 159.43 287.196 159.689 287.18 159.954Z" fill="#263238"/>
<path d="M263.391 156.165C263.643 156.446 265.263 155.33 267.502 155.445C269.741 155.56 271.347 156.698 271.606 156.432C271.729 156.316 271.477 155.82 270.778 155.272C269.832 154.566 268.69 154.17 267.509 154.142C266.343 154.101 265.193 154.431 264.226 155.085C263.521 155.575 263.269 156.036 263.391 156.165Z" fill="#263238"/>
<path d="M284.687 156.697C284.946 156.971 286.523 155.79 288.762 155.79C291.001 155.79 292.657 156.899 292.895 156.625C293.017 156.503 292.751 156.013 292.031 155.495C291.058 154.823 289.901 154.471 288.719 154.487C287.553 154.487 286.417 154.86 285.479 155.552C284.788 156.085 284.557 156.575 284.687 156.697Z" fill="#263238"/>
<path d="M276.999 173.978C276.999 173.848 275.616 173.611 273.356 173.316C272.78 173.258 272.24 173.143 272.146 172.754C272.095 172.162 272.228 171.568 272.528 171.055C273.06 169.672 273.629 168.218 274.22 166.692C276.574 160.485 278.273 155.373 278.021 155.28C277.769 155.186 275.66 160.147 273.312 166.36L271.685 170.752C271.325 171.443 271.22 172.239 271.39 172.999C271.474 173.2 271.602 173.38 271.765 173.525C271.929 173.67 272.123 173.775 272.333 173.834C272.65 173.923 272.977 173.969 273.305 173.971C275.58 174.093 276.992 174.1 276.999 173.978Z" fill="#263238"/>
<path d="M275.449 200.525C283.104 200.642 290.641 198.633 297.222 194.722C297.222 194.722 291.721 206.026 275.449 204.506V200.525Z" fill="#EB996E"/>
<path d="M284.134 153.507C284.35 154.119 286.596 153.824 289.224 154.148C291.852 154.472 293.984 155.177 294.336 154.63C294.495 154.371 294.12 153.795 293.264 153.19C292.117 152.467 290.822 152.014 289.474 151.865C288.127 151.717 286.764 151.877 285.488 152.333C284.523 152.736 284.033 153.219 284.134 153.507Z" fill="#263238"/>
<path d="M263.909 150.534C264.305 151.045 265.853 150.534 267.71 150.491C269.568 150.447 271.145 150.836 271.505 150.303C271.663 150.044 271.418 149.533 270.727 149.051C269.809 148.458 268.73 148.166 267.638 148.215C266.547 148.237 265.488 148.594 264.607 149.238C263.952 149.749 263.736 150.275 263.909 150.534Z" fill="#263238"/>
<path d="M309.68 164.215C309.918 164.099 318.385 160.355 318.486 170.09C318.587 179.824 308.788 177.916 308.766 177.635C308.744 177.355 309.68 164.215 309.68 164.215Z" fill="#FFBE9D"/>
<path d="M311.702 173.905C311.746 173.905 311.875 174.02 312.163 174.15C312.57 174.312 313.023 174.312 313.43 174.15C314.453 173.761 315.302 172.12 315.331 170.363C315.353 169.529 315.183 168.701 314.834 167.944C314.741 167.64 314.575 167.363 314.35 167.139C314.126 166.914 313.849 166.748 313.546 166.655C313.35 166.605 313.144 166.625 312.962 166.712C312.781 166.798 312.635 166.947 312.552 167.13C312.422 167.404 312.487 167.598 312.437 167.612C312.386 167.627 312.221 167.454 312.3 167.051C312.351 166.81 312.483 166.594 312.674 166.439C312.806 166.336 312.956 166.26 313.117 166.216C313.277 166.171 313.445 166.159 313.61 166.18C314.011 166.255 314.385 166.431 314.697 166.692C315.01 166.953 315.25 167.29 315.396 167.67C315.82 168.508 316.033 169.438 316.015 170.377C315.972 172.336 314.986 174.186 313.582 174.604C313.321 174.682 313.046 174.702 312.777 174.66C312.508 174.619 312.252 174.519 312.026 174.366C311.724 174.143 311.674 173.92 311.702 173.905Z" fill="#EB996E"/>
<path d="M273.766 124.529C268.351 127.33 266.119 138.404 268.359 144.077C270.598 149.751 276.639 152.516 282.593 153.819C288.547 155.122 294.387 155.259 300.262 153.646C300.665 157.592 303.034 161.645 306.864 162.689C311.94 164.064 317.052 159.42 318.183 154.287C319.313 149.153 317.614 143.868 315.943 138.879" fill="#263238"/>
<path d="M316.715 159.845C316.715 159.845 316.47 160.133 315.959 160.565C315.244 161.169 314.497 161.734 313.72 162.257C312.558 163.058 311.281 163.677 309.932 164.093C308.248 164.624 306.437 164.596 304.77 164.013C303.129 163.352 301.753 162.164 300.86 160.637C300.137 159.416 299.66 158.066 299.456 156.662C299.314 155.729 299.263 154.783 299.305 153.84C299.289 153.495 299.331 153.149 299.428 152.817C299.536 152.817 299.428 154.293 299.845 156.59C300.092 157.925 300.58 159.203 301.285 160.363C302.14 161.77 303.425 162.866 304.95 163.488C306.51 164.027 308.2 164.062 309.781 163.589C311.089 163.21 312.337 162.65 313.489 161.925C315.491 160.673 316.657 159.765 316.715 159.845Z" fill="#263238"/>
<path d="M277.661 180.227C277.947 181.071 278.355 181.869 278.871 182.595C279.13 182.96 279.463 183.264 279.85 183.489C280.236 183.714 280.665 183.853 281.11 183.899C281.585 183.895 282.052 183.775 282.469 183.547C282.886 183.32 283.24 182.993 283.5 182.595C284.002 181.781 284.234 180.828 284.163 179.874C284.127 179.017 283.731 177.995 282.881 177.894C282.524 177.881 282.169 177.961 281.851 178.124L277.373 179.939" fill="#EB996E"/>
<path d="M279.446 183.906C279.446 183.769 280.454 184.165 281.836 183.611C282.62 183.308 283.263 182.726 283.643 181.977C283.858 181.519 283.974 181.022 283.984 180.517C283.994 180.013 283.897 179.511 283.701 179.046C283.597 178.809 283.467 178.584 283.312 178.377C283.132 178.189 283.161 178.197 282.974 178.225C282.786 178.254 282.491 178.413 282.254 178.506L281.534 178.809C280.576 179.197 279.705 179.529 278.978 179.809C277.538 180.357 276.58 180.645 276.537 180.529C276.494 180.414 277.343 179.953 278.754 179.277C279.474 178.938 280.302 178.557 281.246 178.117L281.966 177.793C282.232 177.685 282.426 177.57 282.786 177.455C283.001 177.384 283.234 177.384 283.449 177.455C283.645 177.539 283.817 177.673 283.946 177.844C284.426 178.468 284.716 179.218 284.782 180.004C284.847 180.789 284.684 181.577 284.313 182.272C284.074 182.713 283.75 183.102 283.359 183.418C282.969 183.733 282.519 183.967 282.038 184.108C281.412 184.313 280.741 184.341 280.101 184.187C279.64 184.108 279.431 183.957 279.446 183.906Z" fill="#263238"/>
<path d="M320.618 157.54C319.624 157.468 311.582 158.512 312.215 173.452C312.806 187.413 322.598 184.339 325.722 179.083C328.66 174.107 330.374 158.224 320.618 157.54Z" fill="#455A64"/>
<path d="M325.561 159.304C325.539 159.175 325.527 159.045 325.525 158.915C325.525 158.62 325.525 158.246 325.482 157.77C325.482 156.741 325.41 155.301 325.36 153.515C325.288 149.85 325.187 144.745 325.065 138.863L325.245 139.036H321.105L321.292 138.849C321.292 139.957 321.349 141.131 321.385 142.326C321.522 147.928 321.652 153.126 321.76 157.526V157.655H321.637C319.937 158.047 318.427 159.02 317.368 160.406C316.565 161.48 315.985 162.704 315.661 164.006C315.446 164.844 315.299 165.699 315.222 166.561C315.222 166.857 315.186 167.087 315.179 167.238C315.172 167.389 315.179 167.476 315.179 167.476C315.17 167.397 315.17 167.317 315.179 167.238C315.179 167.087 315.179 166.857 315.179 166.554C315.214 165.681 315.335 164.812 315.539 163.962C315.839 162.623 316.41 161.358 317.217 160.247C318.303 158.805 319.859 157.786 321.616 157.367L321.493 157.526C321.371 153.155 321.22 147.935 321.061 142.326C321.025 141.138 320.997 139.965 320.968 138.849V138.654H325.482V138.834C325.547 144.724 325.605 149.821 325.648 153.493C325.648 155.279 325.648 156.719 325.648 157.749C325.648 158.224 325.648 158.598 325.648 158.886C325.638 159.029 325.609 159.169 325.561 159.304Z" fill="#455A64"/>
<path d="M320.617 138.856C320.617 138.856 316.412 129.021 306.397 124.161C302.567 122.253 298.543 120.762 294.395 119.712C294.395 119.712 300.241 118.329 309.695 122.534C314.015 124.449 318.335 126.933 321.215 130.67C323.029 133.039 325.304 137.668 325.297 138.856H320.617Z" fill="#455A64"/>
<path d="M294.695 257.994C294.695 257.994 294.753 257.922 294.875 257.8C294.998 257.678 295.185 257.49 295.415 257.238C296.106 256.508 296.755 255.738 297.359 254.934C298.32 253.648 299.198 252.301 299.987 250.902C300.923 249.268 301.903 247.338 302.961 245.186C305.085 240.866 307.54 235.667 310.089 229.691C311.356 226.703 312.652 223.528 313.948 220.18L314.913 217.646C315.217 216.759 315.605 215.903 316.072 215.09C316.571 214.247 317.293 213.559 318.16 213.102C318.601 212.86 319.097 212.733 319.6 212.735C319.875 212.754 320.139 212.849 320.363 213.009C320.576 213.181 320.742 213.404 320.846 213.657V213.707V213.765C320.784 214.108 320.652 214.434 320.457 214.722C320.239 215.023 319.919 215.233 319.557 215.313C318.865 215.409 318.161 215.28 317.548 214.946C316.905 214.645 316.38 214.139 316.058 213.506C315.735 212.873 315.634 212.151 315.77 211.454C315.917 210.737 316.338 210.107 316.943 209.697C317.541 209.28 318.261 209.075 318.988 209.114C319.365 209.116 319.735 209.213 320.064 209.395C320.394 209.578 320.672 209.84 320.875 210.158C320.976 210.34 321.024 210.547 321.011 210.755C320.998 210.963 320.926 211.163 320.803 211.331C320.565 211.632 320.248 211.862 319.888 211.994C319.284 212.223 318.623 212.252 318.002 212.075C317.38 211.899 316.832 211.527 316.439 211.014C316.057 210.492 315.889 209.842 315.971 209.2C316.034 208.574 316.285 207.982 316.691 207.501C317.104 207.015 317.68 206.698 318.311 206.608C318.63 206.566 318.954 206.599 319.257 206.704C319.561 206.809 319.836 206.983 320.061 207.213C320.291 207.461 320.415 207.789 320.407 208.127C320.402 208.296 320.363 208.462 320.291 208.614C320.219 208.767 320.116 208.902 319.989 209.013C319.754 209.224 319.472 209.377 319.167 209.46C318.862 209.542 318.542 209.552 318.232 209.488C317.932 209.41 317.653 209.269 317.411 209.076C317.169 208.882 316.97 208.64 316.828 208.365C316.549 207.849 316.371 207.284 316.303 206.702C316.099 205.57 316.232 204.404 316.684 203.346C316.936 202.807 317.373 202.376 317.915 202.13C318.47 201.924 319.082 201.945 319.622 202.187C319.904 202.289 320.153 202.468 320.34 202.703C320.527 202.938 320.645 203.221 320.68 203.519C320.694 203.824 320.614 204.126 320.451 204.384C320.287 204.642 320.048 204.842 319.766 204.959C319.509 205.091 319.226 205.159 318.938 205.159C318.65 205.159 318.366 205.091 318.11 204.959C317.622 204.678 317.256 204.227 317.08 203.692C316.917 203.185 316.885 202.645 316.987 202.122C317.043 201.613 317.154 201.111 317.318 200.625C317.48 200.125 317.783 199.683 318.189 199.35C318.588 199.03 319.053 198.802 319.55 198.681C319.809 198.607 320.083 198.607 320.342 198.681C320.59 198.767 320.814 198.91 320.997 199.098C321.18 199.278 321.325 199.494 321.422 199.732C321.526 199.988 321.526 200.275 321.422 200.531C321.306 200.768 321.12 200.964 320.89 201.093C320.66 201.221 320.395 201.277 320.133 201.251C319.646 201.244 319.172 201.086 318.779 200.798C318.033 200.248 317.52 199.439 317.339 198.53C317.151 197.632 317.292 196.697 317.735 195.894C317.93 195.509 318.208 195.173 318.549 194.908C318.885 194.653 319.278 194.482 319.694 194.411C320.109 194.327 320.542 194.388 320.918 194.584C321.104 194.685 321.262 194.831 321.377 195.008C321.493 195.185 321.563 195.388 321.58 195.599C321.578 195.997 321.444 196.382 321.199 196.695C320.954 197.007 320.612 197.23 320.227 197.327C319.865 197.404 319.49 197.377 319.143 197.25C318.797 197.122 318.493 196.9 318.268 196.607C317.836 196.086 317.583 195.44 317.548 194.764C317.611 193.587 317.853 192.426 318.268 191.322C318.563 190.286 318.83 189.335 319.075 188.486C319.557 186.794 319.931 185.476 320.198 184.569C320.32 184.13 320.421 183.791 320.493 183.554C320.565 183.316 320.608 183.208 320.608 183.208C320.608 183.208 320.608 183.33 320.529 183.561C320.45 183.791 320.378 184.151 320.27 184.59C320.025 185.505 319.665 186.83 319.211 188.522L318.441 191.366C318.196 192.41 317.721 193.526 317.771 194.75C317.824 195.383 318.076 195.983 318.491 196.463C318.69 196.722 318.958 196.919 319.263 197.034C319.568 197.148 319.9 197.175 320.219 197.111C320.543 197.028 320.83 196.843 321.04 196.584C321.25 196.325 321.372 196.005 321.386 195.671C321.371 195.502 321.314 195.339 321.221 195.198C321.128 195.056 321.002 194.939 320.853 194.858C320.527 194.696 320.158 194.648 319.802 194.721C319.424 194.785 319.068 194.941 318.765 195.174C318.463 195.419 318.218 195.726 318.045 196.074C317.688 196.813 317.594 197.651 317.779 198.45C317.951 199.286 318.429 200.028 319.118 200.531C319.462 200.779 319.874 200.917 320.299 200.927C320.498 200.951 320.7 200.914 320.878 200.82C321.055 200.726 321.2 200.58 321.292 200.402C321.336 200.202 321.324 199.993 321.257 199.8C321.189 199.607 321.07 199.436 320.911 199.307C320.762 199.157 320.583 199.042 320.385 198.969C320.18 198.915 319.964 198.915 319.759 198.969C319.305 199.067 318.884 199.28 318.535 199.586C318.186 199.892 317.921 200.282 317.764 200.718C317.607 201.185 317.503 201.668 317.455 202.158C317.357 202.638 317.387 203.134 317.541 203.598C317.684 204.052 317.992 204.435 318.405 204.671C318.614 204.776 318.844 204.83 319.078 204.83C319.312 204.83 319.542 204.776 319.751 204.671C319.967 204.587 320.151 204.44 320.28 204.248C320.408 204.056 320.475 203.829 320.471 203.598C320.439 203.366 320.344 203.147 320.195 202.965C320.046 202.783 319.851 202.646 319.629 202.569C319.173 202.37 318.658 202.352 318.189 202.518C317.729 202.733 317.359 203.103 317.145 203.562C316.732 204.557 316.614 205.649 316.807 206.709C316.87 207.246 317.034 207.766 317.289 208.242C317.406 208.471 317.57 208.673 317.769 208.836C317.969 208.998 318.2 209.117 318.448 209.186C318.701 209.24 318.964 209.234 319.214 209.168C319.464 209.101 319.695 208.977 319.888 208.804C319.978 208.724 320.051 208.627 320.103 208.518C320.155 208.409 320.184 208.291 320.188 208.17C320.193 208.05 320.173 207.93 320.131 207.817C320.088 207.705 320.022 207.602 319.939 207.515C319.751 207.33 319.524 207.19 319.275 207.107C319.025 207.023 318.759 206.998 318.499 207.033C317.957 207.112 317.465 207.389 317.116 207.81C316.738 208.216 316.508 208.736 316.461 209.288C316.414 209.841 316.553 210.393 316.857 210.856C317.203 211.299 317.681 211.621 318.223 211.774C318.764 211.927 319.34 211.903 319.867 211.706C320.149 211.59 320.396 211.404 320.587 211.166C320.668 211.054 320.715 210.921 320.722 210.783C320.73 210.645 320.698 210.508 320.63 210.388C320.457 210.129 320.222 209.916 319.947 209.769C319.672 209.622 319.365 209.545 319.053 209.546C318.416 209.496 317.783 209.673 317.265 210.046C316.747 210.419 316.378 210.964 316.223 211.583C316.106 212.184 316.191 212.808 316.464 213.356C316.738 213.904 317.184 214.346 317.735 214.614C318.27 214.918 318.889 215.04 319.499 214.96C319.774 214.875 320.017 214.709 320.196 214.484C320.376 214.26 320.484 213.987 320.507 213.7V213.808C320.438 213.609 320.311 213.435 320.143 213.307C319.976 213.179 319.774 213.103 319.564 213.088C319.118 213.086 318.679 213.2 318.29 213.419C317.478 213.844 316.802 214.487 316.339 215.277C315.882 216.066 315.503 216.898 315.208 217.761L314.229 220.302C312.933 223.643 311.623 226.782 310.341 229.806C307.778 235.782 305.301 240.995 303.141 245.286C302.068 247.446 301.075 249.354 300.117 250.989C299.31 252.383 298.413 253.722 297.431 254.999C296.629 256.093 295.712 257.097 294.695 257.994Z" fill="white"/>
<path d="M329.32 150.534C329.233 149.619 329.012 148.722 328.665 147.87C327.619 145.58 325.784 143.743 323.495 142.694C321.924 141.984 320.235 141.571 318.513 141.477C316.532 141.375 314.545 141.525 312.602 141.923C308.476 142.686 304.142 144.465 299.289 145.199C296.923 145.513 294.527 145.513 292.161 145.199C289.965 144.868 287.814 144.284 285.753 143.457C282.253 142.047 279.071 139.952 276.393 137.294C274.591 135.516 273.066 133.477 271.871 131.246C271.67 130.906 271.492 130.552 271.339 130.187L270.993 129.388C270.907 129.194 270.842 129.028 270.784 128.898C270.757 128.844 270.737 128.786 270.727 128.726C270.764 128.774 270.796 128.827 270.82 128.884L271.058 129.359L271.439 130.137C271.604 130.497 271.791 130.845 272.001 131.181C273.236 133.365 274.778 135.361 276.58 137.106C280.831 141.27 286.295 143.975 292.183 144.832C294.515 145.142 296.878 145.142 299.21 144.832C303.998 144.112 308.339 142.341 312.515 141.592C314.486 141.198 316.499 141.058 318.506 141.174C320.264 141.281 321.986 141.718 323.582 142.463C325.909 143.554 327.756 145.459 328.773 147.82C329.026 148.462 329.193 149.135 329.27 149.822V150.354C329.296 150.411 329.313 150.472 329.32 150.534Z" fill="#455A64"/>
<path d="M318.456 135.019C318.286 135.06 318.113 135.089 317.938 135.105C317.6 135.156 317.096 135.228 316.455 135.343C315.173 135.552 313.337 135.962 311.076 136.524C308.432 137.237 305.739 137.759 303.02 138.086C299.678 138.428 296.306 138.353 292.983 137.863C289.658 137.38 286.403 136.506 283.284 135.256C280.728 134.244 278.28 132.978 275.976 131.476C275.012 130.821 274.148 130.216 273.413 129.64C272.679 129.064 272.06 128.568 271.584 128.121L270.49 127.092C270.245 126.854 270.116 126.724 270.13 126.71C270.277 126.805 270.414 126.913 270.54 127.034L271.678 128.006C272.168 128.438 272.823 128.899 273.543 129.446C274.263 129.993 275.156 130.591 276.12 131.224C281.253 134.462 287.007 136.589 293.012 137.467C296.309 137.95 299.652 138.032 302.969 137.712C305.673 137.418 308.353 136.936 310.99 136.272C313.258 135.746 315.116 135.372 316.412 135.199C317.06 135.112 317.564 135.062 317.909 135.04C318.09 135.014 318.274 135.007 318.456 135.019Z" fill="#455A64"/>
<path d="M319.523 183.257C319.427 183.238 319.332 183.209 319.242 183.171C318.991 183.065 318.75 182.937 318.522 182.789C317.652 182.217 316.929 181.447 316.413 180.543C315.674 179.19 315.232 177.695 315.117 176.158C314.951 174.299 314.951 172.429 315.117 170.571C315.272 168.713 315.581 166.87 316.038 165.063C316.365 163.57 316.906 162.132 317.644 160.793C318.175 159.885 318.915 159.117 319.804 158.554C320.03 158.405 320.272 158.279 320.524 158.18C320.704 158.115 320.805 158.086 320.805 158.1C320.805 158.115 320.437 158.266 319.854 158.676C319.04 159.272 318.367 160.039 317.881 160.923C317.189 162.255 316.685 163.678 316.384 165.149C315.947 166.943 315.648 168.767 315.491 170.607C315.34 172.442 315.34 174.287 315.491 176.122C315.583 177.628 315.985 179.099 316.672 180.442C317.147 181.333 317.816 182.105 318.63 182.703C319.177 183.084 319.545 183.221 319.523 183.257Z" fill="#263238"/>
<path d="M287.138 181.033L279.748 182.483C278.636 182.701 277.911 183.779 278.129 184.892L278.183 185.167C278.402 186.279 279.48 187.004 280.592 186.786L287.982 185.336C289.095 185.118 289.819 184.039 289.601 182.927L289.547 182.652C289.329 181.539 288.25 180.815 287.138 181.033Z" fill="#455A64"/>
<path d="M288.555 182.129L322.719 171.415C323.124 171.288 323.564 171.327 323.941 171.522C324.319 171.718 324.604 172.055 324.735 172.459C324.801 172.667 324.824 172.886 324.803 173.103C324.782 173.321 324.718 173.531 324.614 173.723C324.509 173.914 324.368 174.083 324.197 174.219C324.026 174.354 323.829 174.454 323.619 174.511L288.684 183.943L288.555 182.129Z" fill="#455A64"/>
<path d="M313.805 177.419C314.171 177.258 314.549 177.125 314.935 177.023L318.06 176.073C319.371 175.669 320.983 175.237 322.683 174.683C323.102 174.527 323.483 174.281 323.799 173.963C324.11 173.646 324.283 173.219 324.281 172.775C324.279 172.557 324.209 172.345 324.08 172.169C323.95 171.993 323.769 171.863 323.561 171.796C323.086 171.675 322.588 171.69 322.121 171.839L311.875 175.137L308.758 176.101C308.401 176.249 308.032 176.367 307.656 176.454C308.016 176.279 308.389 176.132 308.772 176.015L311.854 174.935C314.467 174.049 318.053 172.818 322.085 171.529C322.621 171.374 323.19 171.374 323.727 171.529C324 171.628 324.238 171.808 324.407 172.044C324.577 172.281 324.671 172.563 324.677 172.854C324.678 173.393 324.466 173.911 324.087 174.294C323.708 174.627 323.26 174.873 322.776 175.014C321.012 175.569 319.435 175.957 318.103 176.332L314.979 177.174C314.596 177.293 314.203 177.374 313.805 177.419Z" fill="#263238"/>
<path d="M257.976 151.255C259.143 155.359 254.974 158.88 253.505 162.89C252.065 166.764 253.289 171.105 255.039 174.849C256.788 178.593 259.092 182.136 259.985 186.16C262.196 196.096 253.21 206.803 254.945 216.832C255.564 220.49 257.04 224.306 258.315 227.784C259.546 231.063 259.546 234.678 258.315 237.957C256.371 243.717 253.073 246.417 250.755 252.019C249.567 254.899 249.66 258.096 249.718 261.192C249.776 264.288 249.761 267.528 248.379 270.307C246.996 273.086 243.843 275.232 240.848 274.425C242.464 276.236 244.632 277.464 247.017 277.918C249.401 278.372 251.869 278.028 254.038 276.938C257.976 274.836 260.18 270.573 262.066 266.527C271.196 246.936 276.027 245.28 275.746 223.665C275.746 222.276 275.472 200.625 275.472 200.625C273.58 200.117 271.766 199.354 270.08 198.357C259.884 191.316 259.51 178.773 259.589 169.046" fill="#263238"/>
<path d="M278.352 216.831V224.989C278.352 224.989 272.08 256.993 270.194 274.769C268.308 292.546 267.998 297.241 267.998 297.241C267.998 297.241 272.498 304.261 281.908 292.337C291.319 280.414 292.996 278.535 296.762 278.326C296.762 278.326 292.161 228.337 292.37 226.486C292.603 225.174 293.18 223.947 294.04 222.929L278.352 216.831Z" fill="#FFBE9D"/>
<path d="M290.692 198.429C290.692 198.429 280.447 212.022 279.612 213.894C278.776 215.766 278.352 216.818 278.352 216.818L294.04 222.887L309.312 206.154L314.956 191.301L313.279 173.733C313.279 173.733 309.938 173.524 309.312 176.454C308.928 178.31 308.785 180.207 308.887 182.099L304.207 178.334L296.654 176.037C296.654 176.037 294.876 178.96 297.806 180.429C300.736 181.898 301.572 181.869 301.572 181.869L304.207 186.47L303.055 191.625L297.712 186.585C297.195 186.096 296.523 185.804 295.813 185.759C295.102 185.715 294.399 185.92 293.824 186.34L290.368 188.846L287.136 187.406L280.864 193.014L278.352 195.311C278.352 195.311 280.029 198.45 283.392 196.989L286.74 195.549L290.692 198.429Z" fill="#FFBE9D"/>
<path d="M278.353 219.59C278.343 219.444 278.343 219.297 278.353 219.151C278.353 218.863 278.389 218.431 278.454 217.876C278.538 217.184 278.67 216.498 278.85 215.824C279.073 214.894 279.443 214.004 279.944 213.189C282.291 209.589 285.985 204.549 290.593 198.35V198.537L286.618 195.614H286.755L284.689 196.528C283.979 196.874 283.242 197.161 282.486 197.385C281.662 197.582 280.795 197.483 280.038 197.104C279.267 196.708 278.627 196.098 278.194 195.347L278.137 195.247L278.23 195.16C280.923 192.626 283.926 190.07 287.007 187.334L287.101 187.255L287.202 187.312L289.988 188.961H289.808L293.062 186.801C293.631 186.434 294.142 186.081 294.754 185.707C295.088 185.541 295.46 185.47 295.831 185.502C296.201 185.534 296.556 185.667 296.857 185.887L303.2 191.251L302.905 191.351C303.25 189.803 303.625 188.126 303.999 186.434V186.563L301.364 181.963L301.53 182.056C301.082 181.995 300.644 181.877 300.226 181.703C299.816 181.552 299.406 181.379 298.995 181.199C298.585 181.019 298.182 180.818 297.778 180.623C297.57 180.523 297.368 180.386 297.166 180.271C296.969 180.13 296.786 179.971 296.619 179.795C296.377 179.539 296.189 179.237 296.065 178.907C295.942 178.577 295.885 178.225 295.899 177.873C295.922 177.185 296.112 176.513 296.454 175.915L296.526 175.792L296.67 175.835L304.215 178.139H304.251L308.931 181.905L308.636 182.063C308.535 180.199 308.668 178.329 309.032 176.498C309.108 176.026 309.284 175.575 309.547 175.175C309.81 174.776 310.155 174.436 310.558 174.179C311.363 173.704 312.288 173.472 313.222 173.51H313.417V173.668C314.007 179.911 314.562 185.8 315.073 191.236V191.272C312.985 196.744 311.084 201.712 309.399 206.111L297.577 219.158L294.366 222.635C293.998 223.017 293.718 223.319 293.523 223.528L293.228 223.823C293.228 223.823 293.314 223.708 293.494 223.499L294.308 222.585L297.476 219.064L309.241 206.104V206.14L314.857 191.279V191.351C314.331 185.915 313.77 180.033 313.165 173.783L313.33 173.949C312.472 173.914 311.621 174.129 310.882 174.568C310.52 174.799 310.21 175.105 309.976 175.465C309.741 175.825 309.586 176.231 309.522 176.656C309.16 178.454 309.03 180.29 309.133 182.121V182.539L308.809 182.279L304.057 178.492H304.122L296.576 176.195L296.785 176.109C296.481 176.652 296.311 177.259 296.288 177.88C296.275 178.185 296.323 178.489 296.429 178.775C296.536 179.06 296.698 179.322 296.907 179.543C297.056 179.696 297.217 179.835 297.39 179.961C297.584 180.069 297.757 180.184 297.958 180.285C298.362 180.479 298.758 180.681 299.161 180.854C299.919 181.224 300.719 181.502 301.544 181.682H301.659L301.702 181.754L304.338 186.355L304.374 186.419V186.491C303.992 188.183 303.654 189.861 303.272 191.409L303.207 191.711L302.97 191.51L296.648 186.16C296.402 185.977 296.111 185.866 295.806 185.838C295.501 185.81 295.195 185.867 294.92 186.002C294.387 186.319 293.811 186.722 293.264 187.075L290.002 189.235L289.916 189.292L289.822 189.242L287.036 187.586H287.238C284.156 190.307 281.146 192.863 278.446 195.383L278.482 195.196C278.88 195.891 279.47 196.456 280.182 196.823C280.875 197.176 281.672 197.268 282.428 197.083C283.169 196.866 283.892 196.589 284.588 196.255L286.654 195.347H286.734L286.798 195.391L290.766 198.328L290.874 198.407L290.794 198.515C286.165 204.715 282.435 209.711 280.059 213.275C279.559 214.076 279.183 214.947 278.943 215.86C278.76 216.528 278.618 217.206 278.518 217.891C278.439 218.445 278.403 218.877 278.382 219.158C278.36 219.439 278.353 219.59 278.353 219.59Z" fill="#EB996E"/>
<path d="M297.763 201.575C297.691 201.575 297.965 200.466 298.08 198.695C298.156 197.662 297.988 196.627 297.59 195.671C296.99 194.552 296.134 193.59 295.092 192.863C293.231 191.437 291.291 190.117 289.282 188.91L287.446 187.83C287.21 187.714 286.987 187.571 286.783 187.405C287.037 187.467 287.279 187.566 287.503 187.7C287.964 187.909 288.619 188.24 289.411 188.68C291.472 189.829 293.445 191.129 295.315 192.568C296.404 193.327 297.29 194.344 297.893 195.527C298.306 196.533 298.46 197.628 298.339 198.709C298.278 199.423 298.16 200.131 297.986 200.826C297.947 201.085 297.872 201.337 297.763 201.575Z" fill="#EB996E"/>
<path d="M308.743 195.053C308.789 194.419 308.878 193.789 309.009 193.167C309.234 191.666 309.342 190.149 309.333 188.631C309.314 187.109 309.179 185.59 308.93 184.088C308.791 183.471 308.693 182.846 308.635 182.216C308.899 182.796 309.086 183.408 309.189 184.037C309.854 187.059 309.881 190.185 309.268 193.217C309.175 193.85 308.999 194.467 308.743 195.053Z" fill="#EB996E"/>
<path d="M238.823 141.697L231.335 128.471C235.972 120.939 237.625 111.945 235.967 103.256C234.31 94.5678 229.463 86.8135 222.379 81.5174C215.294 76.2213 206.485 73.7664 197.683 74.6353C188.881 75.5042 180.722 79.634 174.81 86.2129C168.898 92.7919 165.66 101.344 165.734 110.189C165.807 119.034 169.186 127.531 175.206 134.011C181.227 140.491 189.453 144.485 198.268 145.208C207.084 145.931 215.851 143.33 222.846 137.917L238.823 141.697Z" fill="white"/>
<path d="M238.823 141.698L222.795 138.026H222.659L222.745 137.911L222.875 138.04C220.629 139.784 218.186 141.255 215.595 142.425C212.511 143.805 209.245 144.736 205.897 145.19C204.042 145.448 202.167 145.542 200.295 145.471C199.338 145.42 198.351 145.392 197.365 145.312L194.377 144.859C185.472 143.096 177.574 138.003 172.295 130.617C169.347 126.537 167.31 121.872 166.319 116.937C165.296 111.727 165.438 106.354 166.736 101.205C168.071 95.8233 170.67 90.8373 174.318 86.6612L175.758 85.07C176.233 84.5372 176.802 84.098 177.313 83.63C177.823 83.123 178.359 82.6424 178.919 82.19L180.618 80.9228C181.177 80.5084 181.764 80.1331 182.375 79.7996L184.167 78.7124L186.047 77.8124C186.658 77.4892 187.291 77.2078 187.94 76.97C192.971 74.9825 198.384 74.1484 203.78 74.5292C208.886 74.8871 213.851 76.3618 218.324 78.8492C226.365 83.324 232.377 90.7203 235.115 99.506C236.214 103.245 236.734 107.13 236.655 111.026C236.562 114.402 235.979 117.746 234.927 120.955C234.048 123.625 232.857 126.182 231.378 128.572V128.479L238.801 141.748C238.484 141.194 236.079 137.025 231.219 128.565V128.522V128.479C232.675 126.094 233.846 123.547 234.711 120.89C235.738 117.696 236.303 114.372 236.389 111.019C236.452 107.157 235.925 103.309 234.827 99.6068C232.092 90.9084 226.123 83.5914 218.151 79.166C213.719 76.7177 208.804 75.2702 203.751 74.9252C198.406 74.5486 193.044 75.3779 188.063 77.3516C187.42 77.5869 186.795 77.866 186.191 78.1868L184.333 79.0868L182.555 80.1668C181.947 80.5044 181.367 80.8897 180.819 81.3188L179.135 82.5716C178.566 82.9748 178.083 83.5004 177.551 83.954C177.018 84.4076 176.485 84.8756 176.01 85.394L174.57 86.9636C170.961 91.0997 168.389 96.0359 167.067 101.364C165.782 106.46 165.637 111.778 166.643 116.937C167.624 121.816 169.637 126.429 172.547 130.466C177.788 137.769 185.606 142.81 194.42 144.571L197.379 145.024C198.359 145.111 199.338 145.132 200.259 145.19C202.116 145.265 203.976 145.178 205.818 144.931C211.973 144.116 217.803 141.686 222.716 137.889L223.278 137.457L222.846 138.026L222.788 137.875L238.823 141.698Z" fill="#263238"/>
<path d="M193.512 109.947C193.512 110.517 193.343 111.074 193.027 111.547C192.71 112.021 192.26 112.39 191.734 112.608C191.208 112.826 190.629 112.883 190.07 112.772C189.511 112.661 188.998 112.387 188.595 111.984C188.193 111.581 187.918 111.068 187.807 110.509C187.696 109.951 187.753 109.372 187.971 108.845C188.189 108.319 188.558 107.869 189.032 107.553C189.506 107.236 190.062 107.067 190.632 107.067C191.396 107.067 192.128 107.371 192.668 107.911C193.209 108.451 193.512 109.184 193.512 109.947Z" fill="#263238"/>
<path d="M205.004 109.947C205.004 110.517 204.835 111.074 204.519 111.547C204.202 112.021 203.753 112.39 203.226 112.608C202.7 112.826 202.121 112.883 201.562 112.772C201.004 112.661 200.49 112.387 200.088 111.984C199.685 111.581 199.411 111.068 199.299 110.509C199.188 109.951 199.245 109.372 199.463 108.845C199.681 108.319 200.05 107.869 200.524 107.553C200.998 107.236 201.555 107.067 202.124 107.067C202.888 107.067 203.62 107.371 204.161 107.911C204.701 108.451 205.004 109.184 205.004 109.947Z" fill="#263238"/>
<path d="M216.474 108.507C216.76 109 216.894 109.567 216.858 110.136C216.822 110.705 216.617 111.251 216.271 111.703C215.924 112.156 215.451 112.496 214.911 112.68C214.371 112.863 213.789 112.883 213.238 112.735C212.687 112.588 212.193 112.28 211.817 111.851C211.441 111.422 211.201 110.891 211.128 110.326C211.054 109.76 211.15 109.186 211.403 108.675C211.656 108.164 212.055 107.739 212.55 107.455C213.21 107.077 213.993 106.974 214.729 107.171C215.464 107.368 216.091 107.848 216.474 108.507Z" fill="#263238"/>
<path d="M380.372 335.675C380.372 335.783 307.177 335.863 216.932 335.863C126.687 335.863 53.4922 335.783 53.4922 335.675C53.4922 335.567 126.666 335.488 216.968 335.488C307.271 335.488 380.372 335.575 380.372 335.675Z" fill="#263238"/>
<path d="M287.889 335.856C289.578 333.285 291.857 331.154 294.536 329.641C297.214 328.129 300.215 327.277 303.289 327.158C313.809 326.798 319.065 335.856 319.065 335.856H287.889Z" fill="#455A64"/>
<path d="M308.049 335.573C307.91 335.057 307.807 334.533 307.74 334.003C307.174 331.506 305.685 329.314 303.571 327.869C303.105 327.608 302.656 327.32 302.225 327.005C302.768 327.088 303.287 327.29 303.744 327.595C304.891 328.265 305.875 329.183 306.622 330.282C307.37 331.38 307.862 332.632 308.064 333.946C308.177 334.483 308.172 335.038 308.049 335.573Z" fill="#263238"/>
<path d="M281.383 335.473V335.401C281.365 334.341 280.932 333.331 280.176 332.589C279.42 331.847 278.403 331.432 277.343 331.434H187.818C186.747 331.434 185.72 331.859 184.962 332.617C184.205 333.374 183.779 334.402 183.779 335.473H281.383Z" fill="#455A64"/>
<path d="M109.992 178.614C109.992 180.5 111.432 292.935 111.432 292.935L194.952 313.03H201.814L197.422 156.07H191.143L109.992 178.614Z" fill="#263238"/>
<path d="M127.654 288.263L101.77 335.696H125.429C121.195 335.279 162.869 335.696 162.869 335.696L125.429 325.767L137.143 299.163L136.142 288.263H127.654Z" fill="#263238"/>
<path d="M128.229 297.018L125.428 208.602L150.858 206.168L153.99 300.567L144.911 301.028L128.229 297.018Z" fill="#263238"/>
<path d="M157.547 304.068C157.547 304.068 157.547 303.931 157.547 303.657C157.547 303.384 157.547 302.973 157.547 302.448C157.547 301.368 157.547 299.791 157.547 297.753C157.547 293.642 157.511 287.673 157.49 280.164C157.49 265.137 157.454 243.991 157.425 219.468L157.605 219.648H127.545L127.732 219.461V223.536C127.732 247.454 127.732 269.709 127.696 288.256V288.292C119.906 302.57 113.447 314.421 108.926 322.701C106.665 326.834 104.886 330.074 103.67 332.292C103.065 333.386 102.597 334.221 102.28 334.804C101.963 335.388 101.783 335.654 101.783 335.654C101.783 335.654 101.934 335.352 102.237 334.783C102.539 334.214 103 333.343 103.583 332.241C104.786 330.016 106.535 326.762 108.767 322.615L127.415 288.141V288.22C127.415 269.673 127.415 247.418 127.415 223.5V219.237H157.785V219.417C157.785 243.941 157.734 265.087 157.72 280.113C157.72 287.616 157.677 293.592 157.662 297.703C157.662 299.74 157.662 301.303 157.662 302.397C157.662 302.923 157.662 303.326 157.662 303.607C157.662 303.888 157.547 304.068 157.547 304.068Z" fill="#455A64"/>
<path d="M137.145 299.163C137.239 299.199 133.639 307.53 129.103 317.754C124.567 327.978 120.808 336.243 120.715 336.2C120.621 336.157 124.221 327.834 128.757 317.602C133.293 307.371 137.051 299.12 137.145 299.163Z" fill="#455A64"/>
<path d="M194.916 313.059C194.916 313.059 194.916 312.923 194.916 312.656C194.916 312.39 194.916 311.979 194.916 311.468C194.916 310.41 194.88 308.876 194.859 306.903C194.859 302.943 194.736 297.212 194.599 290.127C194.333 275.958 193.692 256.395 192.907 234.788C192.123 213.181 191.525 193.597 191.323 179.427C191.215 172.343 191.165 166.604 191.187 162.644C191.187 160.671 191.187 159.138 191.187 158.079C191.187 157.568 191.187 157.179 191.187 156.891C191.187 156.603 191.187 156.488 191.187 156.488C191.187 156.488 191.187 156.625 191.187 156.891C191.187 157.158 191.187 157.568 191.187 158.079C191.187 159.138 191.187 160.671 191.244 162.644C191.244 166.604 191.359 172.335 191.503 179.42C191.813 193.59 192.454 213.174 193.239 234.774C194.023 256.374 194.621 275.951 194.823 290.12C194.931 297.205 194.974 302.943 194.959 306.903C194.959 308.876 194.959 310.41 194.959 311.468C194.959 311.979 194.959 312.375 194.959 312.656C194.959 312.937 194.916 313.059 194.916 313.059Z" fill="#455A64"/>
<path d="M152.992 218.812C153.1 218.812 153.179 237.619 153.179 260.81C153.179 284.001 153.1 302.808 152.992 302.808C152.884 302.808 152.805 284.009 152.805 260.81C152.805 237.612 152.891 218.812 152.992 218.812Z" fill="#455A64"/>
<path d="M107.999 328.294C107.862 328.138 107.742 327.969 107.639 327.79C107.516 327.617 107.379 327.408 107.221 327.17C107.03 326.888 106.857 326.595 106.703 326.292C105.647 324.387 104.878 322.337 104.42 320.208C103.756 317.044 103.605 313.794 103.974 310.582C104.424 306.649 105.478 302.81 107.099 299.198C107.956 297.334 109.052 295.589 110.36 294.007C110.658 293.615 110.978 293.24 111.318 292.884C111.649 292.524 111.966 292.164 112.297 291.818C113.017 291.163 113.643 290.494 114.356 289.925C115.67 288.807 117.068 287.794 118.539 286.894C119.259 286.505 119.915 286.094 120.591 285.77C121.268 285.446 121.909 285.101 122.557 284.87C124.558 284.013 126.673 283.45 128.835 283.2C129.42 283.12 130.009 283.084 130.599 283.092C130.805 283.075 131.012 283.075 131.219 283.092C131.016 283.127 130.812 283.148 130.607 283.157C130.02 283.184 129.436 283.244 128.857 283.337C126.719 283.641 124.633 284.237 122.658 285.108C122.017 285.346 121.398 285.706 120.721 286.015C120.044 286.325 119.396 286.735 118.698 287.153C117.249 288.056 115.872 289.069 114.579 290.184C113.859 290.746 113.233 291.415 112.549 292.063C112.225 292.402 111.908 292.783 111.584 293.114C111.253 293.47 110.94 293.842 110.648 294.23C109.361 295.791 108.282 297.512 107.437 299.35C105.832 302.923 104.781 306.72 104.319 310.61C103.937 313.787 104.059 317.004 104.679 320.143C105.114 322.257 105.841 324.3 106.839 326.213C106.983 326.521 107.146 326.819 107.329 327.106L107.711 327.746C107.819 327.922 107.915 328.105 107.999 328.294Z" fill="#455A64"/>
</svg>
