<svg width="438" height="438" viewBox="0 0 438 438" fill="none" xmlns="http://www.w3.org/2000/svg">
<g clip-path="url(#clip0_85_5175)">
<path d="M438 334.982H0V335.201H438V334.982Z" fill="#EBEBEB"/>
<path d="M74.9662 343.321H45.9531V343.54H74.9662V343.321Z" fill="#EBEBEB"/>
<path d="M190.971 340.947H149.922V341.166H190.971V340.947Z" fill="#EBEBEB"/>
<path d="M133.22 351.459H104.531V351.678H133.22V351.459Z" fill="#EBEBEB"/>
<path d="M394.111 349.988H387.199V350.207H394.111V349.988Z" fill="#EBEBEB"/>
<path d="M379.406 349.988H342.93V350.207H379.406V349.988Z" fill="#EBEBEB"/>
<path d="M280.613 346.292H242.84V346.511H280.613V346.292Z" fill="#EBEBEB"/>
<path d="M207.613 295.912H38.4659C37.1408 295.91 35.8708 295.382 34.9346 294.444C33.9984 293.507 33.4727 292.236 33.4727 290.911V53.1378C33.4842 51.8204 34.0151 50.5606 34.95 49.6323C35.8849 48.7039 37.1483 48.1819 38.4659 48.1797H207.613C208.939 48.1797 210.212 48.7067 211.15 49.6447C212.088 50.5828 212.615 51.855 212.615 53.1816V290.911C212.615 292.237 212.088 293.509 211.15 294.447C210.212 295.386 208.939 295.912 207.613 295.912ZM38.4659 48.3549C37.1989 48.3572 35.9845 48.8621 35.0895 49.7589C34.1944 50.6556 33.6917 51.8708 33.6917 53.1378V290.911C33.6917 292.178 34.1944 293.393 35.0895 294.289C35.9845 295.186 37.1989 295.691 38.4659 295.693H207.613C208.881 295.691 210.096 295.187 210.992 294.29C211.889 293.394 212.393 292.178 212.396 290.911V53.1378C212.393 51.87 211.889 50.6548 210.992 49.7583C210.096 48.8619 208.881 48.3572 207.613 48.3549H38.4659Z" fill="#EBEBEB"/>
<path d="M397.099 295.912H227.943C226.617 295.91 225.347 295.382 224.409 294.445C223.471 293.507 222.944 292.236 222.941 290.911V53.1378C222.955 51.8196 223.488 50.5598 224.424 49.6317C225.361 48.7036 226.625 48.1819 227.943 48.1797H397.099C398.415 48.1842 399.676 48.7073 400.609 49.6354C401.542 50.5635 402.072 51.8219 402.083 53.1378V290.911C402.083 292.234 401.559 293.504 400.625 294.441C399.69 295.379 398.423 295.908 397.099 295.912ZM227.943 48.3549C226.676 48.3572 225.46 48.8619 224.564 49.7583C223.667 50.6548 223.163 51.87 223.16 53.1378V290.911C223.163 292.178 223.667 293.394 224.564 294.29C225.46 295.187 226.676 295.691 227.943 295.693H397.099C398.367 295.691 399.582 295.187 400.478 294.29C401.375 293.394 401.88 292.178 401.882 290.911V53.1378C401.88 51.87 401.375 50.6548 400.478 49.7583C399.582 48.8619 398.367 48.3572 397.099 48.3549H227.943Z" fill="#EBEBEB"/>
<path d="M335.936 134.554H383.293V80.0665H335.936V134.554Z" fill="#EBEBEB"/>
<path d="M341.097 83.5439C341.146 83.5416 341.195 83.5265 341.237 83.5001C341.368 83.4213 354.604 75.546 358.818 75.546C363.032 75.546 375.655 83.43 375.786 83.5001C375.817 83.5194 375.85 83.5324 375.886 83.5384C375.921 83.5444 375.958 83.5433 375.993 83.5351C376.028 83.527 376.061 83.5119 376.09 83.4909C376.119 83.4698 376.144 83.4432 376.163 83.4125C376.199 83.3505 376.211 83.2768 376.194 83.2067C376.178 83.1365 376.135 83.0754 376.075 83.0358C375.55 82.703 363.18 75.0029 358.818 75.0029C354.455 75.0029 341.499 82.703 340.956 83.0358C340.925 83.0539 340.898 83.0781 340.876 83.107C340.854 83.1358 340.838 83.1688 340.829 83.2039C340.82 83.239 340.818 83.2755 340.823 83.3114C340.829 83.3472 340.841 83.3816 340.86 83.4125C340.886 83.4521 340.921 83.4847 340.962 83.5076C341.003 83.5305 341.049 83.543 341.097 83.5439Z" fill="#EBEBEB"/>
<path d="M330.566 134.554H381.82V80.0665H330.566V134.554Z" fill="#F5F5F5"/>
<path d="M377.531 130.262V84.3682H334.87V130.262H377.531Z" fill="white"/>
<path d="M353.703 115.035C353.703 113.996 353.395 112.98 352.818 112.115C352.24 111.251 351.419 110.577 350.459 110.179C349.498 109.782 348.442 109.677 347.422 109.88C346.402 110.083 345.466 110.584 344.731 111.319C343.996 112.054 343.495 112.99 343.292 114.01C343.09 115.029 343.194 116.086 343.591 117.047C343.989 118.007 344.663 118.828 345.527 119.406C346.392 119.983 347.408 120.291 348.447 120.291C349.841 120.291 351.178 119.738 352.164 118.752C353.15 117.766 353.703 116.429 353.703 115.035Z" fill="#F5F5F5"/>
<path d="M369.137 99.5919C369.137 98.5524 368.829 97.5362 368.251 96.6719C367.674 95.8075 366.853 95.1338 365.892 94.736C364.932 94.3382 363.875 94.2341 362.856 94.4369C361.836 94.6397 360.9 95.1403 360.164 95.8754C359.429 96.6104 358.929 97.547 358.726 98.5665C358.523 99.5861 358.627 100.643 359.025 101.603C359.423 102.564 360.097 103.385 360.961 103.962C361.825 104.54 362.841 104.848 363.881 104.848C365.275 104.848 366.612 104.294 367.598 103.308C368.583 102.323 369.137 100.986 369.137 99.5919Z" fill="#F5F5F5"/>
<path d="M268.081 179.22H315.438V124.733H268.081V179.22Z" fill="#EBEBEB"/>
<path d="M273.233 128.212C273.279 128.224 273.327 128.224 273.373 128.212C273.505 128.133 286.741 120.258 290.955 120.258C295.168 120.258 307.791 128.142 307.923 128.203C307.953 128.222 307.987 128.235 308.023 128.241C308.058 128.248 308.094 128.246 308.129 128.238C308.165 128.23 308.198 128.215 308.227 128.194C308.256 128.173 308.281 128.146 308.3 128.116C308.336 128.054 308.347 127.98 308.331 127.91C308.315 127.84 308.272 127.779 308.212 127.739C307.686 127.415 295.317 119.706 290.955 119.706C286.592 119.706 273.636 127.406 273.093 127.739C273.062 127.757 273.034 127.781 273.012 127.81C272.99 127.839 272.974 127.872 272.966 127.907C272.957 127.942 272.955 127.979 272.96 128.014C272.965 128.05 272.978 128.085 272.997 128.116C273.025 128.15 273.062 128.177 273.103 128.193C273.144 128.21 273.189 128.217 273.233 128.212Z" fill="#EBEBEB"/>
<path d="M262.706 179.22H313.961V124.733H262.706V179.22Z" fill="#F5F5F5"/>
<path d="M309.656 174.928V129.034H266.995V174.928H309.656Z" fill="white"/>
<path d="M284.282 161.254C284.282 160.215 283.973 159.198 283.396 158.334C282.818 157.47 281.997 156.796 281.037 156.398C280.077 156 279.02 155.896 278 156.099C276.981 156.302 276.044 156.802 275.309 157.537C274.574 158.273 274.073 159.209 273.871 160.229C273.668 161.248 273.772 162.305 274.17 163.265C274.567 164.226 275.241 165.047 276.105 165.624C276.97 166.202 277.986 166.51 279.026 166.51C280.42 166.51 281.756 165.956 282.742 164.971C283.728 163.985 284.282 162.648 284.282 161.254Z" fill="#F5F5F5"/>
<path d="M302.824 142.708C302.824 141.669 302.516 140.652 301.939 139.788C301.361 138.924 300.54 138.25 299.58 137.852C298.619 137.454 297.563 137.35 296.543 137.553C295.524 137.756 294.587 138.257 293.852 138.992C293.117 139.727 292.616 140.663 292.413 141.683C292.211 142.702 292.315 143.759 292.713 144.72C293.11 145.68 293.784 146.501 294.648 147.078C295.513 147.656 296.529 147.964 297.568 147.964C298.962 147.964 300.299 147.41 301.285 146.425C302.271 145.439 302.824 144.102 302.824 142.708Z" fill="#F5F5F5"/>
<path d="M292.383 161.254C292.383 160.215 292.691 159.198 293.269 158.334C293.846 157.47 294.667 156.796 295.627 156.398C296.588 156 297.645 155.896 298.664 156.099C299.684 156.302 300.62 156.802 301.355 157.537C302.09 158.273 302.591 159.209 302.794 160.229C302.997 161.248 302.893 162.305 302.495 163.265C302.097 164.226 301.423 165.047 300.559 165.624C299.695 166.202 298.678 166.51 297.639 166.51C296.245 166.51 294.908 165.956 293.922 164.971C292.937 163.985 292.383 162.648 292.383 161.254Z" fill="#F5F5F5"/>
<path d="M273.828 142.708C273.828 141.669 274.136 140.652 274.714 139.788C275.291 138.924 276.112 138.25 277.073 137.852C278.033 137.454 279.09 137.35 280.11 137.553C281.129 137.756 282.066 138.257 282.801 138.992C283.536 139.727 284.036 140.663 284.239 141.683C284.442 142.702 284.338 143.759 283.94 144.72C283.542 145.68 282.869 146.501 282.004 147.078C281.14 147.656 280.124 147.964 279.084 147.964C277.69 147.964 276.353 147.41 275.368 146.425C274.382 145.439 273.828 144.102 273.828 142.708Z" fill="#F5F5F5"/>
<path d="M68.3025 214.638L238.965 214.638L238.965 69.4494L68.3025 69.4494L68.3025 214.638Z" fill="#E6E6E6"/>
<path d="M65.8494 214.638L236.512 214.638L236.512 69.4494L65.8494 69.4494L65.8494 214.638Z" fill="#F5F5F5"/>
<path d="M232.113 209.697V74.3896L70.2548 74.3896V209.697H232.113Z" fill="white"/>
<path d="M72.1055 209.697L72.1055 74.3896H70.2483L70.2483 209.697H72.1055Z" fill="#E6E6E6"/>
<path d="M67.6732 194.717L234.691 194.717V188.077L67.6732 188.077V194.717Z" fill="#F5F5F5"/>
<path d="M61.0544 61.2676H243.753C243.842 61.2665 243.931 61.2831 244.014 61.3164C244.097 61.3498 244.172 61.3993 244.236 61.4621C244.299 61.5248 244.35 61.5996 244.384 61.682C244.418 61.7644 244.436 61.8528 244.436 61.9422C244.436 62.0315 244.418 62.1199 244.384 62.2023C244.35 62.2847 244.299 62.3595 244.236 62.4222C244.172 62.485 244.097 62.5345 244.014 62.5679C243.931 62.6012 243.842 62.6178 243.753 62.6167H61.0544C60.9651 62.6178 60.8764 62.6012 60.7936 62.5679C60.7107 62.5345 60.6353 62.485 60.5717 62.4222C60.5082 62.3595 60.4577 62.2847 60.4233 62.2023C60.3888 62.1199 60.3711 62.0315 60.3711 61.9422C60.3711 61.8528 60.3888 61.7644 60.4233 61.682C60.4577 61.5996 60.5082 61.5248 60.5717 61.4621C60.6353 61.3993 60.7107 61.3498 60.7936 61.3164C60.8764 61.2831 60.9651 61.2665 61.0544 61.2676Z" fill="#E6E6E6"/>
<path d="M56.9922 61.9419C56.9922 62.6128 57.1913 63.2686 57.5642 63.8262C57.9371 64.3839 58.467 64.8185 59.087 65.0748C59.707 65.3311 60.3891 65.3977 61.0469 65.2662C61.7048 65.1347 62.3088 64.8109 62.7826 64.336C63.2564 63.861 63.5785 63.2561 63.7084 62.5979C63.8382 61.9397 63.7698 61.2578 63.5119 60.6385C63.2539 60.0192 62.818 59.4903 62.2594 59.1188C61.7007 58.7474 61.0444 58.55 60.3736 58.5518C59.9288 58.5518 59.4884 58.6395 59.0775 58.81C58.6667 58.9805 58.2936 59.2303 57.9795 59.5452C57.6654 59.8602 57.4165 60.234 57.2471 60.6452C57.0777 61.0565 56.991 61.4971 56.9922 61.9419Z" fill="#E6E6E6"/>
<path d="M238.044 65.6997C238.163 65.7056 238.281 65.6874 238.393 65.646C238.504 65.6047 238.606 65.5411 238.692 65.4591C238.778 65.3772 238.846 65.2786 238.893 65.1693C238.94 65.0601 238.964 64.9425 238.964 64.8237V62.8527C238.964 62.7339 238.94 62.6163 238.893 62.507C238.846 62.3978 238.778 62.2992 238.692 62.2172C238.606 62.1353 238.504 62.0717 238.393 62.0304C238.281 61.989 238.163 61.9707 238.044 61.9767C237.812 61.9767 237.589 62.069 237.425 62.2333C237.26 62.3975 237.168 62.6204 237.168 62.8527V64.8237C237.168 65.056 237.26 65.2788 237.425 65.4431C237.589 65.6074 237.812 65.6997 238.044 65.6997Z" fill="#E6E6E6"/>
<path d="M71.2705 65.7005C71.5029 65.7005 71.7257 65.6082 71.89 65.444C72.0542 65.2797 72.1465 65.0569 72.1465 64.8245V62.8535C72.1465 62.6212 72.0542 62.3984 71.89 62.2341C71.7257 62.0698 71.5029 61.9775 71.2705 61.9775C71.0382 61.9775 70.8154 62.0698 70.6511 62.2341C70.4868 62.3984 70.3945 62.6212 70.3945 62.8535V64.8245C70.3945 65.0569 70.4868 65.2797 70.6511 65.444C70.8154 65.6082 71.0382 65.7005 71.2705 65.7005Z" fill="#E6E6E6"/>
<path opacity="0.4" d="M61.2697 173.289L234.691 173.289V61.9407L61.2697 61.9407V173.289Z" fill="#E0E0E0"/>
<path d="M223.766 61.9419C223.766 62.6124 223.964 63.2678 224.337 63.8253C224.709 64.3828 225.239 64.8174 225.858 65.0739C226.478 65.3305 227.16 65.3977 227.817 65.2669C228.475 65.1361 229.079 64.8132 229.553 64.3391C230.027 63.8649 230.35 63.2609 230.481 62.6033C230.612 61.9456 230.544 61.264 230.288 60.6445C230.031 60.0251 229.597 59.4956 229.039 59.1231C228.482 58.7506 227.826 58.5518 227.156 58.5518C226.257 58.5518 225.394 58.9089 224.759 59.5447C224.123 60.1805 223.766 61.0428 223.766 61.9419Z" fill="#E6E6E6"/>
<path d="M327.844 238.684H327.213C327.239 238.566 327.257 238.446 327.266 238.325C327.266 235.697 324.051 233.551 320.074 233.542C320.321 233.009 320.452 232.43 320.459 231.842C320.459 229.214 317.928 227.051 314.792 227.051C313.937 227.054 313.091 227.227 312.304 227.559C312.333 227.391 312.354 227.221 312.365 227.051C312.365 223.634 309.089 220.857 305.042 220.857C301.643 220.857 298.822 222.82 297.981 225.465C296.915 224.355 295.63 223.477 294.209 222.887C292.788 222.296 291.26 222.004 289.72 222.031C287.95 221.984 286.195 222.37 284.608 223.155C283.02 223.939 281.648 225.099 280.61 226.534C280.04 225.971 279.364 225.527 278.621 225.226C277.879 224.925 277.084 224.774 276.283 224.782C273.155 224.782 270.624 226.919 270.624 229.565C270.625 230.153 270.757 230.733 271.009 231.264C267.032 231.264 263.808 233.411 263.808 236.056C263.821 236.302 263.859 236.545 263.922 236.783H263.23C257.974 236.783 253.734 238.535 253.734 240.786C253.734 243.038 257.983 244.781 263.23 244.781C265.167 244.803 267.095 244.531 268.95 243.975C271.105 247.032 277.824 249.231 285.778 249.231C294.959 249.231 302.493 246.261 303.298 242.477C305.937 243.403 308.719 243.854 311.515 243.809C313.831 243.827 316.138 243.532 318.374 242.933H318.418C318.786 245 322.877 246.629 327.879 246.629C333.135 246.629 337.384 244.834 337.384 242.626C337.384 240.419 333.091 238.684 327.844 238.684Z" fill="#E6E6E6"/>
<path d="M341.414 241.101C343.35 241.101 345.206 241.869 346.574 243.238C347.943 244.606 348.712 246.462 348.712 248.398C348.712 256.474 328.686 263.088 304.211 263.088H282.118C257.643 263.088 237.617 256.474 237.617 248.398C237.617 246.462 238.386 244.606 239.754 243.238C241.123 241.869 242.979 241.101 244.914 241.101H341.414Z" fill="#F0F0F0"/>
<path d="M138.328 334.982H177.047V263.089H138.328V334.982Z" fill="#E6E6E6"/>
<path d="M145.679 334.982H138.32V328.263H153.388L145.679 334.982Z" fill="#F0F0F0"/>
<path d="M348.371 334.982H387.09V263.089H348.371V334.982Z" fill="#E6E6E6"/>
<path d="M138.329 332.012H354.789V263.097H138.329V332.012Z" fill="#F0F0F0"/>
<path d="M347.431 334.982H354.781V328.263H339.723L347.431 334.982Z" fill="#F0F0F0"/>
<path d="M348.647 269.334V295.614H144.539V269.334H348.647ZM349.112 268.87H144.031V296.087H349.077V268.87H349.112Z" fill="#FAFAFA"/>
<path d="M348.647 299.461V325.741H144.539V299.461H348.647ZM349.112 298.997H144.031V326.232H349.077V298.997H349.112Z" fill="#FAFAFA"/>
<path d="M227.673 271.56H265.428C265.786 271.56 266.139 271.49 266.469 271.353C266.8 271.216 267.099 271.015 267.352 270.762C267.604 270.509 267.804 270.208 267.94 269.878C268.076 269.547 268.145 269.193 268.144 268.836H224.957C224.956 269.193 225.025 269.547 225.161 269.878C225.297 270.208 225.497 270.509 225.749 270.762C226.002 271.015 226.301 271.216 226.631 271.353C226.961 271.49 227.315 271.56 227.673 271.56Z" fill="#FAFAFA"/>
<path d="M227.673 301.713H265.428C265.785 301.713 266.138 301.642 266.467 301.506C266.797 301.369 267.096 301.169 267.348 300.917C267.601 300.665 267.801 300.366 267.937 300.036C268.074 299.707 268.144 299.354 268.144 298.997H224.957C224.957 299.717 225.243 300.408 225.752 300.917C226.262 301.427 226.952 301.713 227.673 301.713Z" fill="#FAFAFA"/>
<path d="M218.996 374.542C312.8 374.542 388.844 370.102 388.844 364.625C388.844 359.149 312.8 354.709 218.996 354.709C125.192 354.709 49.1484 359.149 49.1484 364.625C49.1484 370.102 125.192 374.542 218.996 374.542Z" fill="#F5F5F5"/>
<path d="M115.557 163.505L114.777 163.102C121.583 149.815 130.722 137.86 141.758 127.808L142.354 128.456C131.393 138.438 122.316 150.31 115.557 163.505Z" fill="#5CCB3E"/>
<path d="M104.591 194.778L103.715 194.603C104.983 188.408 106.722 182.32 108.918 176.391L109.742 176.697C107.563 182.583 105.841 188.628 104.591 194.778Z" fill="#5CCB3E"/>
<path opacity="0.9" d="M295.199 289.423C333.887 250.735 333.887 188.009 295.199 149.321C256.511 110.633 193.786 110.633 155.098 149.321C116.41 188.009 116.41 250.735 155.098 289.423C193.786 328.111 256.511 328.111 295.199 289.423Z" fill="#FAFAFA"/>
<g opacity="0.4">
<path d="M155.051 274.783H131.758L136.26 263.728H150.548L155.051 274.783Z" fill="#5CCB3E"/>
<path opacity="0.2" d="M155.051 274.783H131.758L136.26 263.728H150.548L155.051 274.783Z" fill="#FAFAFA"/>
<path d="M190.449 274.783H155.05L150.547 263.728H185.946L190.449 274.783Z" fill="#5CCB3E"/>
<path opacity="0.3" d="M190.449 274.783H155.05L150.547 263.728H185.946L190.449 274.783Z" fill="black"/>
<path d="M184.778 274.783H161.477L165.979 263.728H180.276L184.778 274.783Z" fill="#5CCB3E"/>
<path opacity="0.2" d="M184.778 274.783H161.477L165.979 263.728H180.276L184.778 274.783Z" fill="#FAFAFA"/>
<path d="M220.17 274.783H184.78L180.277 263.728H215.668L220.17 274.783Z" fill="#5CCB3E"/>
<path opacity="0.3" d="M220.17 274.783H184.78L180.277 263.728H215.668L220.17 274.783Z" fill="black"/>
<path d="M214.504 274.783H191.211L195.714 263.728H210.001L214.504 274.783Z" fill="#5CCB3E"/>
<path opacity="0.2" d="M214.504 274.783H191.211L195.714 263.728H210.001L214.504 274.783Z" fill="#FAFAFA"/>
<path d="M249.893 274.783H214.503L210 263.728H245.399L249.893 274.783Z" fill="#5CCB3E"/>
<path opacity="0.3" d="M249.893 274.783H214.503L210 263.728H245.399L249.893 274.783Z" fill="black"/>
<path d="M244.226 274.783H220.934L225.436 263.728H239.724L244.226 274.783Z" fill="#5CCB3E"/>
<path opacity="0.2" d="M244.226 274.783H220.934L225.436 263.728H239.724L244.226 274.783Z" fill="#FAFAFA"/>
<path d="M279.628 274.783H244.229L239.727 263.728H275.126L279.628 274.783Z" fill="#5CCB3E"/>
<path opacity="0.3" d="M279.628 274.783H244.229L239.727 263.728H275.126L279.628 274.783Z" fill="black"/>
<path d="M273.958 274.783H250.656L255.159 263.728H269.455L273.958 274.783Z" fill="#5CCB3E"/>
<path opacity="0.2" d="M273.958 274.783H250.656L255.159 263.728H269.455L273.958 274.783Z" fill="#FAFAFA"/>
<path d="M292.842 274.783C293.969 271.121 294.991 267.436 295.908 263.728H269.453L273.956 274.783H292.842Z" fill="#5CCB3E"/>
<path opacity="0.3" d="M292.842 274.783C293.969 271.121 294.991 267.436 295.908 263.728H269.453L273.956 274.783H292.842Z" fill="black"/>
<path d="M295.909 263.728H284.889L280.387 274.783H292.843C293.976 271.121 294.998 267.436 295.909 263.728Z" fill="#5CCB3E"/>
<path opacity="0.2" d="M295.909 263.728H284.889L280.387 274.783H292.843C293.976 271.121 294.998 267.436 295.909 263.728Z" fill="#FAFAFA"/>
<path d="M164.134 263.728H140.832L145.335 252.664H159.631L164.134 263.728Z" fill="#5CCB3E"/>
<path opacity="0.2" d="M164.134 263.728H140.832L145.335 252.664H159.631L164.134 263.728Z" fill="#FAFAFA"/>
<path d="M199.526 263.728H164.135L159.633 252.664H195.023L199.526 263.728Z" fill="#5CCB3E"/>
<path opacity="0.3" d="M199.526 263.728H164.135L159.633 252.664H195.023L199.526 263.728Z" fill="black"/>
<path d="M193.855 263.728H170.562L175.065 252.664H189.353L193.855 263.728Z" fill="#5CCB3E"/>
<path opacity="0.2" d="M193.855 263.728H170.562L175.065 252.664H189.353L193.855 263.728Z" fill="#FAFAFA"/>
<path d="M229.245 263.728H193.854L189.352 252.664H224.751L229.245 263.728Z" fill="#5CCB3E"/>
<path opacity="0.3" d="M229.245 263.728H193.854L189.352 252.664H224.751L229.245 263.728Z" fill="black"/>
<path d="M223.578 263.728H200.285L204.788 252.664H219.075L223.578 263.728Z" fill="#5CCB3E"/>
<path opacity="0.2" d="M223.578 263.728H200.285L204.788 252.664H219.075L223.578 263.728Z" fill="#FAFAFA"/>
<path d="M258.98 263.728H223.581L219.078 252.664H254.477L258.98 263.728Z" fill="#5CCB3E"/>
<path opacity="0.3" d="M258.98 263.728H223.581L219.078 252.664H254.477L258.98 263.728Z" fill="black"/>
<path d="M253.309 263.728H230.008L234.51 252.664H248.807L253.309 263.728Z" fill="#5CCB3E"/>
<path opacity="0.2" d="M253.309 263.728H230.008L234.51 252.664H248.807L253.309 263.728Z" fill="#FAFAFA"/>
<path d="M288.698 263.728H253.307L248.805 252.664H284.195L288.698 263.728Z" fill="#5CCB3E"/>
<path opacity="0.3" d="M288.698 263.728H253.307L248.805 252.664H284.195L288.698 263.728Z" fill="black"/>
<path d="M283.035 263.728H259.742L264.245 252.664H278.532L283.035 263.728Z" fill="#5CCB3E"/>
<path opacity="0.2" d="M283.035 263.728H259.742L264.245 252.664H278.532L283.035 263.728Z" fill="#FAFAFA"/>
<path d="M295.91 263.728C296.786 260.058 297.618 256.378 298.302 252.664H278.574L283.077 263.728H295.91Z" fill="#5CCB3E"/>
<path opacity="0.3" d="M295.91 263.728C296.786 260.058 297.618 256.378 298.302 252.664H278.574L283.077 263.728H295.91Z" fill="black"/>
<path d="M298.3 252.664H293.964L289.461 263.728H295.908C296.811 260.058 297.616 256.378 298.3 252.664Z" fill="#5CCB3E"/>
<path opacity="0.2" d="M298.3 252.664H293.964L289.461 263.728H295.908C296.811 260.058 297.616 256.378 298.3 252.664Z" fill="#FAFAFA"/>
<path d="M171.914 252.664H148.621L153.124 241.609H167.411L171.914 252.664Z" fill="#5CCB3E"/>
<path opacity="0.2" d="M171.914 252.664H148.621L153.124 241.609H167.411L171.914 252.664Z" fill="#FAFAFA"/>
<path d="M207.312 252.664H171.913L167.41 241.609H202.809L207.312 252.664Z" fill="#5CCB3E"/>
<path opacity="0.3" d="M207.312 252.664H171.913L167.41 241.609H202.809L207.312 252.664Z" fill="black"/>
<path d="M201.645 252.664H178.344L182.846 241.609H197.134L201.645 252.664Z" fill="#5CCB3E"/>
<path opacity="0.2" d="M201.645 252.664H178.344L182.846 241.609H197.134L201.645 252.664Z" fill="#FAFAFA"/>
<path d="M237.035 252.664H201.644L197.133 241.609H232.532L237.035 252.664Z" fill="#5CCB3E"/>
<path opacity="0.3" d="M237.035 252.664H201.644L197.133 241.609H232.532L237.035 252.664Z" fill="black"/>
<path d="M231.367 252.664H208.074L212.577 241.609H226.864L231.367 252.664Z" fill="#5CCB3E"/>
<path opacity="0.2" d="M231.367 252.664H208.074L212.577 241.609H226.864L231.367 252.664Z" fill="#FAFAFA"/>
<path d="M266.76 252.664H231.37L226.867 241.609H262.258L266.76 252.664Z" fill="#5CCB3E"/>
<path opacity="0.3" d="M266.76 252.664H231.37L226.867 241.609H262.258L266.76 252.664Z" fill="black"/>
<path d="M261.09 252.664H237.797L242.3 241.609H256.587L261.09 252.664Z" fill="#5CCB3E"/>
<path opacity="0.2" d="M261.09 252.664H237.797L242.3 241.609H256.587L261.09 252.664Z" fill="#FAFAFA"/>
<path d="M296.488 252.664H261.089L256.586 241.609H291.985L296.488 252.664Z" fill="#5CCB3E"/>
<path opacity="0.3" d="M296.488 252.664H261.089L256.586 241.609H291.985L296.488 252.664Z" fill="black"/>
<path d="M290.821 252.664H267.52L272.022 241.609H286.318L290.821 252.664Z" fill="#5CCB3E"/>
<path opacity="0.2" d="M290.821 252.664H267.52L272.022 241.609H286.318L290.821 252.664Z" fill="#FAFAFA"/>
<path d="M298.304 252.664C298.987 249.003 299.571 245.318 300.056 241.609H286.32L290.84 252.664H298.304Z" fill="#5CCB3E"/>
<path opacity="0.3" d="M298.304 252.664C298.987 249.003 299.571 245.318 300.056 241.609H286.32L290.84 252.664H298.304Z" fill="black"/>
<path d="M299.081 248.161L297.25 252.664H298.301C298.582 251.169 298.841 249.668 299.081 248.161Z" fill="#5CCB3E"/>
<path opacity="0.2" d="M299.081 248.161L297.25 252.664H298.301C298.582 251.169 298.841 249.668 299.081 248.161Z" fill="#FAFAFA"/>
<path d="M180.988 241.609H157.695L162.198 230.554H176.494L180.988 241.609Z" fill="#5CCB3E"/>
<path opacity="0.2" d="M180.988 241.609H157.695L162.198 230.554H176.494L180.988 241.609Z" fill="#FAFAFA"/>
<path d="M216.385 241.609H180.986L176.492 230.554H211.883L216.385 241.609Z" fill="#5CCB3E"/>
<path opacity="0.3" d="M216.385 241.609H180.986L176.492 230.554H211.883L216.385 241.609Z" fill="black"/>
<path d="M210.719 241.609H187.426L191.928 230.554H206.216L210.719 241.609Z" fill="#5CCB3E"/>
<path opacity="0.2" d="M210.719 241.609H187.426L191.928 230.554H206.216L210.719 241.609Z" fill="#FAFAFA"/>
<path d="M246.108 241.609H210.717L206.215 230.554H241.614L246.108 241.609Z" fill="#5CCB3E"/>
<path opacity="0.3" d="M246.108 241.609H210.717L206.215 230.554H241.614L246.108 241.609Z" fill="black"/>
<path d="M240.445 241.609H217.152L221.655 230.554H235.943L240.445 241.609Z" fill="#5CCB3E"/>
<path opacity="0.2" d="M240.445 241.609H217.152L221.655 230.554H235.943L240.445 241.609Z" fill="#FAFAFA"/>
<path d="M275.843 241.609H240.444L235.941 230.554H271.341L275.843 241.609Z" fill="#5CCB3E"/>
<path opacity="0.3" d="M275.843 241.609H240.444L235.941 230.554H271.341L275.843 241.609Z" fill="black"/>
<path d="M270.177 241.609H246.875L251.378 230.554H265.674L270.177 241.609Z" fill="#5CCB3E"/>
<path opacity="0.2" d="M270.177 241.609H246.875L251.378 230.554H265.674L270.177 241.609Z" fill="#FAFAFA"/>
<path d="M300.016 241.609C300.471 237.935 300.807 234.25 301.023 230.554H265.668L270.171 241.609H300.016Z" fill="#5CCB3E"/>
<path opacity="0.3" d="M300.016 241.609C300.471 237.935 300.807 234.25 301.023 230.554H265.668L270.171 241.609H300.016Z" fill="black"/>
<path d="M299.898 241.609H276.605L281.108 230.554H295.396L299.898 241.609Z" fill="#5CCB3E"/>
<path opacity="0.2" d="M299.898 241.609H276.605L281.108 230.554H295.396L299.898 241.609Z" fill="#FAFAFA"/>
<path d="M300.02 241.609C300.475 237.935 300.811 234.25 301.027 230.554H295.395L299.897 241.609H300.02Z" fill="#5CCB3E"/>
<path opacity="0.3" d="M300.02 241.609C300.475 237.935 300.811 234.25 301.027 230.554H295.395L299.897 241.609H300.02Z" fill="black"/>
<path d="M175.828 319.011H183.782L179.279 307.956H161.637C166.645 311.269 171.39 314.965 175.828 319.011Z" fill="#5CCB3E"/>
<path opacity="0.3" d="M175.828 319.011H183.782L179.279 307.956H161.637C166.645 311.269 171.39 314.965 175.828 319.011Z" fill="black"/>
<path d="M175.828 319.011H178.114L173.612 307.956H161.637C166.645 311.269 171.39 314.965 175.828 319.011Z" fill="#5CCB3E"/>
<path opacity="0.2" d="M175.828 319.011H178.114L173.612 307.956H161.637C166.645 311.269 171.39 314.965 175.828 319.011Z" fill="#FAFAFA"/>
<path d="M213.502 319.011H178.112L173.609 307.956H209L213.502 319.011Z" fill="#5CCB3E"/>
<path opacity="0.3" d="M213.502 319.011H178.112L173.609 307.956H209L213.502 319.011Z" fill="black"/>
<path d="M207.84 319.011H184.547L189.05 307.956H203.337L207.84 319.011Z" fill="#5CCB3E"/>
<path opacity="0.2" d="M207.84 319.011H184.547L189.05 307.956H203.337L207.84 319.011Z" fill="#FAFAFA"/>
<path d="M243.229 319.011H207.839L203.336 307.956H238.726L243.229 319.011Z" fill="#5CCB3E"/>
<path opacity="0.3" d="M243.229 319.011H207.839L203.336 307.956H238.726L243.229 319.011Z" fill="black"/>
<path d="M237.562 319.011H214.27L218.772 307.956H233.06L237.562 319.011Z" fill="#5CCB3E"/>
<path opacity="0.2" d="M237.562 319.011H214.27L218.772 307.956H233.06L237.562 319.011Z" fill="#FAFAFA"/>
<path d="M272.764 318.538L268.454 307.956H233.02L237.522 319.011H272.238C272.44 318.862 272.597 318.696 272.764 318.538Z" fill="#5CCB3E"/>
<path opacity="0.3" d="M272.764 318.538L268.454 307.956H233.02L237.522 319.011H272.238C272.44 318.862 272.597 318.696 272.764 318.538Z" fill="black"/>
<path d="M267.294 319.011H243.992L248.495 307.956H262.791L267.294 319.011Z" fill="#5CCB3E"/>
<path opacity="0.2" d="M267.294 319.011H243.992L248.495 307.956H262.791L267.294 319.011Z" fill="#FAFAFA"/>
<path d="M272.278 319.011C275.54 315.796 278.243 312.06 280.276 307.956H262.809L267.311 319.011H272.278Z" fill="#5CCB3E"/>
<path opacity="0.3" d="M272.278 319.011C275.54 315.796 278.243 312.06 280.276 307.956H262.809L267.311 319.011H272.278Z" fill="black"/>
<path d="M280.273 307.956H278.223L274.824 316.296C276.934 313.719 278.76 310.923 280.273 307.956Z" fill="#5CCB3E"/>
<path opacity="0.2" d="M280.273 307.956H278.223L274.824 316.296C276.934 313.719 278.76 310.923 280.273 307.956Z" fill="#FAFAFA"/>
<path d="M148.33 298.138C152.544 301.703 157.09 304.813 161.637 307.957H163.135L158.632 296.902H146.902C147.375 297.314 147.848 297.735 148.33 298.138Z" fill="#5CCB3E"/>
<path opacity="0.3" d="M148.33 298.138C152.544 301.703 157.09 304.813 161.637 307.957H163.135L158.632 296.902H146.902C147.375 297.314 147.848 297.735 148.33 298.138Z" fill="black"/>
<path d="M148.33 298.136C150.73 300.169 153.245 302.052 155.803 303.874L152.964 296.866H146.902C147.375 297.313 147.848 297.733 148.33 298.136Z" fill="#5CCB3E"/>
<path opacity="0.2" d="M148.33 298.136C150.73 300.169 153.245 302.052 155.803 303.874L152.964 296.866H146.902C147.375 297.313 147.848 297.733 148.33 298.136Z" fill="#FAFAFA"/>
<path d="M161.634 307.957H192.855L188.344 296.902H152.953L155.791 303.91C157.727 305.259 159.69 306.6 161.634 307.957Z" fill="#5CCB3E"/>
<path opacity="0.3" d="M161.634 307.957H192.855L188.344 296.902H152.953L155.791 303.91C157.727 305.259 159.69 306.6 161.634 307.957Z" fill="black"/>
<path d="M187.191 307.957H163.898L168.401 296.902H182.689L187.191 307.957Z" fill="#5CCB3E"/>
<path opacity="0.2" d="M187.191 307.957H163.898L168.401 296.902H182.689L187.191 307.957Z" fill="#FAFAFA"/>
<path d="M222.589 307.957H187.19L182.688 296.902H218.087L222.589 307.957Z" fill="#5CCB3E"/>
<path opacity="0.3" d="M222.589 307.957H187.19L182.688 296.902H218.087L222.589 307.957Z" fill="black"/>
<path d="M216.91 307.957H193.617L198.12 296.902H212.407L216.91 307.957Z" fill="#5CCB3E"/>
<path opacity="0.2" d="M216.91 307.957H193.617L198.12 296.902H212.407L216.91 307.957Z" fill="#FAFAFA"/>
<path d="M252.312 307.957H216.913L212.41 296.902H247.809L252.312 307.957Z" fill="#5CCB3E"/>
<path opacity="0.3" d="M252.312 307.957H216.913L212.41 296.902H247.809L252.312 307.957Z" fill="black"/>
<path d="M246.644 307.957H223.352L227.854 296.902H242.142L246.644 307.957Z" fill="#5CCB3E"/>
<path opacity="0.2" d="M246.644 307.957H223.352L227.854 296.902H242.142L246.644 307.957Z" fill="#FAFAFA"/>
<path d="M281.249 306.03L277.535 296.902H242.145L246.647 307.957H280.277C280.618 307.318 280.934 306.679 281.249 306.03Z" fill="#5CCB3E"/>
<path opacity="0.3" d="M281.249 306.03L277.535 296.902H242.145L246.647 307.957H280.277C280.618 307.318 280.934 306.679 281.249 306.03Z" fill="black"/>
<path d="M276.367 307.957H253.074L257.577 296.902H271.864L276.367 307.957Z" fill="#5CCB3E"/>
<path opacity="0.2" d="M276.367 307.957H253.074L257.577 296.902H271.864L276.367 307.957Z" fill="#FAFAFA"/>
<path d="M280.273 307.957C282.105 304.373 283.72 300.681 285.108 296.902H271.863L276.366 307.957H280.273Z" fill="#5CCB3E"/>
<path opacity="0.3" d="M280.273 307.957C282.105 304.373 283.72 300.681 285.108 296.902H271.863L276.366 307.957H280.273Z" fill="black"/>
<path d="M146.902 296.902H170.913L166.446 285.838H136.285C139.516 289.809 143.067 293.51 146.902 296.902Z" fill="#5CCB3E"/>
<path opacity="0.3" d="M146.902 296.902H170.913L166.446 285.838H136.285C139.516 289.809 143.067 293.51 146.902 296.902Z" fill="black"/>
<path d="M146.904 296.902H165.248L160.745 285.838H146.457L143.312 293.555C144.475 294.706 145.672 295.821 146.904 296.902Z" fill="#5CCB3E"/>
<path opacity="0.2" d="M146.904 296.902H165.248L160.745 285.838H146.457L143.312 293.555C144.475 294.706 145.672 295.821 146.904 296.902Z" fill="#FAFAFA"/>
<path d="M200.644 296.902H165.245L160.742 285.838H196.141L200.644 296.902Z" fill="#5CCB3E"/>
<path opacity="0.3" d="M200.644 296.902H165.245L160.742 285.838H196.141L200.644 296.902Z" fill="black"/>
<path d="M194.969 296.902H171.676L176.178 285.838H190.475L194.969 296.902Z" fill="#5CCB3E"/>
<path opacity="0.2" d="M194.969 296.902H171.676L176.178 285.838H190.475L194.969 296.902Z" fill="#FAFAFA"/>
<path d="M230.37 296.902H194.97L190.477 285.838H225.867L230.37 296.902Z" fill="#5CCB3E"/>
<path opacity="0.3" d="M230.37 296.902H194.97L190.477 285.838H225.867L230.37 296.902Z" fill="black"/>
<path d="M224.703 296.902H201.41L205.913 285.838H220.2L224.703 296.902Z" fill="#5CCB3E"/>
<path opacity="0.2" d="M224.703 296.902H201.41L205.913 285.838H220.2L224.703 296.902Z" fill="#FAFAFA"/>
<path d="M260.088 296.902H224.698L220.195 285.838H255.586L260.088 296.902Z" fill="#5CCB3E"/>
<path opacity="0.3" d="M260.088 296.902H224.698L220.195 285.838H255.586L260.088 296.902Z" fill="black"/>
<path d="M254.422 296.902H231.129L235.632 285.838H249.919L254.422 296.902Z" fill="#5CCB3E"/>
<path opacity="0.2" d="M254.422 296.902H231.129L235.632 285.838H249.919L254.422 296.902Z" fill="#FAFAFA"/>
<path d="M287.336 290.779L285.33 285.838H249.922L254.425 296.902H285.084C285.899 294.817 286.626 292.758 287.336 290.779Z" fill="#5CCB3E"/>
<path opacity="0.3" d="M287.336 290.779L285.33 285.838H249.922L254.425 296.902H285.084C285.899 294.817 286.626 292.758 287.336 290.779Z" fill="black"/>
<path d="M284.153 296.902H260.852L265.354 285.838H279.651L284.153 296.902Z" fill="#5CCB3E"/>
<path opacity="0.2" d="M284.153 296.902H260.852L265.354 285.838H279.651L284.153 296.902Z" fill="#FAFAFA"/>
<path d="M285.11 296.902C286.555 293.074 287.817 289.333 289.043 286.022C289.06 285.959 289.08 285.898 289.104 285.838H279.652L284.155 296.902H285.11Z" fill="#5CCB3E"/>
<path opacity="0.3" d="M285.11 296.902C286.555 293.074 287.817 289.333 289.043 286.022C289.06 285.959 289.08 285.898 289.104 285.838H279.652L284.155 296.902H285.11Z" fill="black"/>
<path d="M136.286 285.837H144.599L140.096 274.782H128.48C130.823 278.644 133.431 282.338 136.286 285.837Z" fill="#5CCB3E"/>
<path opacity="0.2" d="M136.286 285.837H144.599L140.096 274.782H128.48C130.823 278.644 133.431 282.338 136.286 285.837Z" fill="#FAFAFA"/>
<path d="M179.999 285.837H144.6L140.098 274.782H175.497L179.999 285.837Z" fill="#5CCB3E"/>
<path opacity="0.3" d="M179.999 285.837H144.6L140.098 274.782H175.497L179.999 285.837Z" fill="black"/>
<path d="M174.333 285.837H151.031L155.534 274.782H169.83L174.333 285.837Z" fill="#5CCB3E"/>
<path opacity="0.2" d="M174.333 285.837H151.031L155.534 274.782H169.83L174.333 285.837Z" fill="#FAFAFA"/>
<path d="M209.717 285.837H174.327L169.824 274.782H205.215L209.717 285.837Z" fill="#5CCB3E"/>
<path opacity="0.3" d="M209.717 285.837H174.327L169.824 274.782H205.215L209.717 285.837Z" fill="black"/>
<path d="M204.055 285.837H180.762L185.264 274.782H199.552L204.055 285.837Z" fill="#5CCB3E"/>
<path opacity="0.2" d="M204.055 285.837H180.762L185.264 274.782H199.552L204.055 285.837Z" fill="#FAFAFA"/>
<path d="M239.444 285.837H204.053L199.551 274.782H234.941L239.444 285.837Z" fill="#5CCB3E"/>
<path opacity="0.3" d="M239.444 285.837H204.053L199.551 274.782H234.941L239.444 285.837Z" fill="black"/>
<path d="M233.777 285.837H210.484L214.987 274.782H229.275L233.777 285.837Z" fill="#5CCB3E"/>
<path opacity="0.2" d="M233.777 285.837H210.484L214.987 274.782H229.275L233.777 285.837Z" fill="#FAFAFA"/>
<path d="M269.175 285.837H233.776L229.273 274.782H264.673L269.175 285.837Z" fill="#5CCB3E"/>
<path opacity="0.3" d="M269.175 285.837H233.776L229.273 274.782H264.673L269.175 285.837Z" fill="black"/>
<path d="M263.505 285.837H240.203L244.706 274.782H259.002L263.505 285.837Z" fill="#5CCB3E"/>
<path opacity="0.2" d="M263.505 285.837H240.203L244.706 274.782H259.002L263.505 285.837Z" fill="#FAFAFA"/>
<path d="M289.086 285.837C290.435 282.182 291.682 278.496 292.826 274.782H259.004L263.507 285.837H289.086Z" fill="#5CCB3E"/>
<path opacity="0.3" d="M289.086 285.837C290.435 282.182 291.682 278.496 292.826 274.782H259.004L263.507 285.837H289.086Z" fill="black"/>
<path d="M291.014 280.406L288.728 274.782H274.44L269.938 285.837H289.087C289.77 284.042 290.401 282.228 291.014 280.406Z" fill="#5CCB3E"/>
<path opacity="0.2" d="M291.014 280.406L288.728 274.782H274.44L269.938 285.837H289.087C289.77 284.042 290.401 282.228 291.014 280.406Z" fill="#FAFAFA"/>
<path d="M292.844 274.782H288.727L291.013 280.406C291.655 278.543 292.266 276.669 292.844 274.782Z" fill="#5CCB3E"/>
<path opacity="0.3" d="M292.844 274.782H288.727L291.013 280.406C291.655 278.543 292.266 276.669 292.844 274.782Z" fill="black"/>
</g>
<path d="M225.291 98.4688C201.359 98.4688 177.965 105.565 158.066 118.861C138.167 132.157 122.658 151.055 113.5 173.165C104.341 195.275 101.945 219.605 106.614 243.077C111.283 266.549 122.807 288.109 139.73 305.032C156.652 321.954 178.213 333.479 201.685 338.147C225.157 342.816 249.486 340.42 271.596 331.262C293.707 322.103 312.605 306.594 325.9 286.696C339.196 266.797 346.293 243.403 346.293 219.471C346.293 187.379 333.544 156.602 310.852 133.909C288.16 111.217 257.383 98.4688 225.291 98.4688ZM225.133 318.441C205.54 318.439 186.387 312.628 170.097 301.741C153.807 290.854 141.111 275.382 133.614 257.279C126.117 239.177 124.156 219.258 127.98 200.042C131.803 180.825 141.239 163.174 155.094 149.32C168.949 135.466 186.601 126.032 205.818 122.21C225.035 118.389 244.954 120.351 263.055 127.849C281.157 135.348 296.629 148.045 307.514 164.337C318.399 180.628 324.209 199.781 324.209 219.374C324.209 232.385 321.646 245.268 316.667 257.288C311.688 269.307 304.39 280.229 295.19 289.428C285.99 298.628 275.068 305.925 263.047 310.903C251.027 315.881 238.144 318.442 225.133 318.441Z" fill="#5CCB3E"/>
<path opacity="0.4" d="M225.295 334.245C288.577 334.245 340.051 282.754 340.051 219.489C340.051 156.225 288.56 104.733 225.295 104.733C162.03 104.733 110.539 156.216 110.539 219.489C110.539 282.763 162.004 334.245 225.295 334.245ZM225.295 105.609C255.486 105.649 284.429 117.66 305.777 139.008C327.125 160.356 339.136 189.299 339.175 219.489C339.175 282.29 288.078 333.369 225.295 333.369C162.512 333.369 111.415 282.272 111.415 219.489C111.415 156.706 162.486 105.574 225.295 105.574V105.609Z" fill="#FAFAFA"/>
<path d="M194.625 140.16C199.583 141.334 204.664 142.508 209.683 143.577C214.703 144.645 219.748 145.618 224.689 146.283L226.52 146.494L226.967 146.538H226.897C226.897 146.538 226.94 146.538 227.037 146.538C227.827 146.336 228.576 146.002 229.253 145.548C231.22 144.255 233.067 142.789 234.772 141.168C238.416 137.795 241.973 133.976 245.398 130.174L249.401 132.951C246.779 137.705 243.714 142.201 240.247 146.38C238.415 148.625 236.344 150.663 234.071 152.459C232.656 153.596 231.043 154.463 229.314 155.017C228.743 155.191 228.156 155.308 227.562 155.368C227.212 155.39 226.861 155.39 226.511 155.368H225.977L223.892 155.262C218.501 154.863 213.137 154.158 207.826 153.151C202.57 152.188 197.419 151.049 192.207 149.647L194.625 140.16Z" fill="#7F3E3B"/>
<path d="M187.113 149.059C190.617 154.123 211.641 156.067 211.641 156.067L212.929 142.595C207.576 140.719 202.068 139.318 196.469 138.407C181.621 136.287 183.294 143.506 187.113 149.059Z" fill="#5CCB3E"/>
<path opacity="0.2" d="M187.113 149.059C190.617 154.123 211.641 156.067 211.641 156.067L212.929 142.595C207.576 140.719 202.068 139.318 196.469 138.407C181.621 136.287 183.294 143.506 187.113 149.059Z" fill="white"/>
<path d="M244.574 131.856L246.247 125.654L252.02 128.133C252.02 128.133 249.585 134.817 247.386 134.484L244.574 131.856Z" fill="#7F3E3B"/>
<path d="M251.015 121.817L255.79 121.52L252.023 128.133L246.25 125.654L251.015 121.817Z" fill="#7F3E3B"/>
<path d="M201.23 139.906C201.23 139.906 209.569 159.519 203.56 196.04H168.818C168.397 190.705 170.841 164.696 164.832 139.573C168.653 138.829 172.519 138.337 176.404 138.101C181.323 137.82 186.254 137.82 191.173 138.101C194.567 138.446 197.929 139.049 201.23 139.906Z" fill="#5CCB3E"/>
<path opacity="0.2" d="M201.23 139.906C201.23 139.906 209.569 159.519 203.56 196.04H168.818C168.397 190.705 170.841 164.696 164.832 139.573C168.653 138.829 172.519 138.337 176.404 138.101C181.323 137.82 186.254 137.82 191.173 138.101C194.567 138.446 197.929 139.049 201.23 139.906Z" fill="white"/>
<path opacity="0.3" d="M165.922 144.602C167.547 153.199 168.508 161.909 168.795 170.654C170.068 165.53 170.929 160.313 171.371 155.052C171.739 149.227 169.478 145.539 165.922 144.602Z" fill="black"/>
<path d="M190.87 167.729C187.787 164.338 182.487 157.584 180.84 151.514L189.109 147.134L196.809 151.076C196.73 156.235 193.98 163.226 192.009 167.483C191.755 168 191.229 168.132 190.87 167.729Z" fill="#FAFAFA"/>
<path d="M177.302 121.476C178.397 126.232 179.623 134.931 176.426 138.12C176.426 138.12 177.819 142.053 186.649 142.053C196.355 142.053 191.195 138.12 191.195 138.12C185.852 136.858 185.852 132.925 186.649 129.237L177.302 121.476Z" fill="#7F3E3B"/>
<path opacity="0.2" d="M181.102 124.637L186.629 129.209C186.43 130.073 186.307 130.952 186.262 131.837C184.229 131.548 181.373 129.323 181.084 127.203C180.93 126.354 180.936 125.484 181.102 124.637Z" fill="black"/>
<path d="M191.579 118.76C193.015 117.533 193.664 110.201 190.834 106.689C188.005 103.176 185.578 111.691 185.578 111.691C185.578 111.691 186.875 122.789 191.579 118.76Z" fill="#263238"/>
<path d="M175.199 116.507C177.179 122.639 178.02 126.345 182.015 128.859C183.303 129.687 184.794 130.147 186.325 130.189C187.856 130.232 189.37 129.854 190.702 129.098C192.035 128.343 193.135 127.237 193.884 125.901C194.633 124.564 195.003 123.049 194.953 121.518C194.874 115.622 191.651 106.547 184.862 105.417C183.399 105.133 181.887 105.238 180.478 105.722C179.069 106.206 177.812 107.053 176.833 108.176C175.854 109.3 175.188 110.661 174.901 112.123C174.614 113.585 174.717 115.097 175.199 116.507Z" fill="#7F3E3B"/>
<path d="M191.737 103.841C191.941 103.469 192.041 103.048 192.026 102.623C192.022 102.113 191.856 101.617 191.552 101.207C191.248 100.797 190.822 100.494 190.334 100.342C189.847 100.19 189.324 100.197 188.841 100.361C188.358 100.526 187.939 100.839 187.646 101.257C187.149 100.688 186.532 100.236 185.84 99.9328C185.148 99.6299 184.398 99.4838 183.643 99.5049C182.848 99.5316 182.071 99.7446 181.374 100.127C180.923 99.7431 180.345 99.543 179.753 99.5663C179.178 99.5869 178.63 99.8117 178.206 100.2C177.782 100.589 177.511 101.116 177.44 101.686C177.194 101.647 176.945 101.629 176.696 101.634C175.665 101.67 174.69 102.114 173.986 102.868C173.282 103.621 172.905 104.623 172.938 105.654C172.938 105.654 172.938 105.654 172.938 105.707C172.789 105.698 172.64 105.698 172.491 105.707C172.076 105.722 171.667 105.818 171.289 105.991C170.911 106.163 170.571 106.409 170.288 106.713C170.005 107.017 169.784 107.375 169.639 107.764C169.494 108.154 169.427 108.568 169.443 108.983V109.036C169.047 109.251 168.72 109.572 168.498 109.964C168.277 110.356 168.17 110.802 168.19 111.252C168.208 111.731 168.366 112.193 168.645 112.583C168.924 112.972 169.311 113.271 169.758 113.442C169.818 114.184 170.14 114.881 170.666 115.407C171.193 115.933 171.889 116.255 172.631 116.315C172.973 119.381 174.077 124.129 177.659 121.676C179.026 120.739 180.287 115.054 178.93 111.112C179.035 111.112 179.149 111.112 179.263 111.112C179.854 111.09 180.433 110.933 180.954 110.652C181.475 110.371 181.924 109.974 182.267 109.491C183.016 109.738 183.812 109.808 184.593 109.697C185.374 109.587 186.119 109.297 186.77 108.852C187.051 108.95 187.348 108.998 187.646 108.992C188.054 108.973 188.452 108.853 188.802 108.642C189.3 108.98 189.891 109.155 190.493 109.141C191.118 109.122 191.72 108.896 192.204 108.499C192.689 108.103 193.028 107.557 193.17 106.948C193.312 106.338 193.248 105.698 192.989 105.129C192.73 104.559 192.29 104.091 191.737 103.797V103.841Z" fill="#263238"/>
<path d="M174.138 123.989C175.313 125.131 176.88 125.78 178.518 125.802C180.682 125.802 181.146 123.753 179.981 122.036C178.948 120.503 176.582 118.645 174.673 119.469C172.763 120.292 172.702 122.579 174.138 123.989Z" fill="#7F3E3B"/>
<path d="M185.202 116.157C185.325 116.665 185.701 117.033 186.078 116.946C186.455 116.858 186.577 116.394 186.446 115.886C186.315 115.378 185.938 115.01 185.57 115.106C185.202 115.203 185.071 115.632 185.202 116.157Z" fill="#263238"/>
<path d="M190.968 114.887C191.099 115.395 191.476 115.763 191.844 115.676C192.212 115.588 192.343 115.133 192.212 114.625C192.081 114.116 191.704 113.749 191.336 113.836C190.968 113.924 190.854 114.379 190.968 114.887Z" fill="#263238"/>
<path d="M189.215 115.544C190.228 116.964 191.424 118.246 192.771 119.355C192.479 119.68 192.119 119.937 191.716 120.108C191.313 120.279 190.878 120.36 190.441 120.344L189.215 115.544Z" fill="#630F0F"/>
<path d="M188.226 122.193C187.159 122.204 186.124 121.831 185.309 121.142C185.281 121.114 185.266 121.076 185.266 121.037C185.266 120.997 185.281 120.96 185.309 120.932C185.323 120.917 185.34 120.905 185.359 120.896C185.378 120.888 185.398 120.884 185.419 120.884C185.439 120.884 185.459 120.888 185.478 120.896C185.497 120.905 185.514 120.917 185.528 120.932C186.041 121.349 186.642 121.644 187.285 121.796C187.928 121.947 188.597 121.951 189.242 121.808C189.282 121.8 189.323 121.807 189.357 121.828C189.391 121.849 189.416 121.883 189.426 121.922C189.431 121.942 189.432 121.963 189.429 121.983C189.425 122.004 189.417 122.024 189.406 122.041C189.394 122.058 189.379 122.073 189.362 122.084C189.344 122.095 189.324 122.103 189.304 122.106C188.949 122.176 188.587 122.205 188.226 122.193Z" fill="#263238"/>
<path d="M182.906 114.695C182.866 114.703 182.824 114.703 182.784 114.695C182.746 114.679 182.712 114.657 182.684 114.628C182.655 114.599 182.633 114.565 182.618 114.527C182.603 114.489 182.596 114.449 182.598 114.409C182.599 114.368 182.609 114.328 182.626 114.292C182.813 113.848 183.105 113.456 183.478 113.151C183.85 112.846 184.292 112.636 184.763 112.54C184.844 112.532 184.925 112.554 184.99 112.603C185.055 112.652 185.099 112.723 185.114 112.802C185.124 112.884 185.102 112.965 185.053 113.031C185.004 113.096 184.932 113.14 184.851 113.153C184.481 113.236 184.136 113.408 183.846 113.654C183.556 113.899 183.33 114.211 183.187 114.563C183.156 114.608 183.114 114.644 183.064 114.667C183.015 114.69 182.961 114.7 182.906 114.695Z" fill="#263238"/>
<path d="M192.937 112.374C192.891 112.374 192.846 112.364 192.805 112.344C192.764 112.325 192.728 112.296 192.7 112.26C192.454 111.954 192.142 111.706 191.787 111.536C191.432 111.367 191.044 111.279 190.65 111.279C190.569 111.286 190.488 111.26 190.426 111.208C190.363 111.155 190.325 111.08 190.318 110.999C190.311 110.917 190.336 110.837 190.389 110.774C190.441 110.712 190.517 110.673 190.598 110.666C191.09 110.656 191.578 110.759 192.025 110.967C192.471 111.175 192.864 111.482 193.173 111.866C193.225 111.93 193.249 112.012 193.24 112.094C193.232 112.176 193.192 112.251 193.129 112.304C193.075 112.349 193.007 112.373 192.937 112.374Z" fill="#263238"/>
<path d="M171.696 148.921L170.434 151.645C170.014 152.582 169.602 153.528 169.199 154.474C168.393 156.367 167.631 158.285 166.895 160.195C166.159 162.104 165.511 164.032 164.889 165.959C164.267 167.886 163.785 169.805 163.382 171.714V171.881V171.828C163.386 171.781 163.386 171.735 163.382 171.688C163.371 171.591 163.344 171.496 163.303 171.408C163.233 171.241 163.155 171.206 163.19 171.302C163.509 171.751 163.921 172.124 164.398 172.397C165.97 173.356 167.645 174.135 169.392 174.719C173.301 176.062 177.285 177.179 181.323 178.065L180.92 182.927C176.401 183.072 171.88 182.72 167.438 181.876C164.999 181.434 162.628 180.674 160.386 179.616C158.931 178.923 157.622 177.956 156.532 176.769C155.788 175.92 155.227 174.927 154.885 173.852C154.699 173.242 154.588 172.613 154.552 171.977C154.535 171.662 154.535 171.346 154.552 171.031L154.596 170.575V170.339C155.179 165.778 156.221 161.288 157.706 156.936C158.418 154.799 159.204 152.693 160.062 150.62C160.5 149.586 160.938 148.562 161.42 147.537C161.902 146.512 162.366 145.531 162.936 144.436L171.696 148.921Z" fill="#7F3E3B"/>
<path d="M164.835 139.573C158.703 140.449 152.422 162.971 152.422 162.971L167.2 168.595C167.2 168.595 170.914 158.915 173.455 151.399C176.118 143.524 171.387 138.61 164.835 139.573Z" fill="#5CCB3E"/>
<path opacity="0.2" d="M164.835 139.573C158.703 140.449 152.422 162.971 152.422 162.971L167.2 168.595C167.2 168.595 170.914 158.915 173.455 151.399C176.118 143.524 171.387 138.61 164.835 139.573Z" fill="white"/>
<path d="M174.156 361.236H180.656L181.497 346.195H175.006L174.156 361.236Z" fill="#7F3E3B"/>
<path opacity="0.2" d="M174.997 346.195H181.497L181.059 353.948H174.559L174.997 346.195Z" fill="black"/>
<path d="M180.997 360.483H173.7C173.64 360.48 173.579 360.488 173.522 360.508C173.465 360.529 173.412 360.56 173.367 360.601C173.322 360.642 173.286 360.691 173.261 360.746C173.235 360.801 173.221 360.861 173.219 360.921L172.859 366.694C172.858 366.845 172.887 366.994 172.943 367.134C173 367.274 173.084 367.401 173.189 367.508C173.295 367.615 173.421 367.701 173.56 367.76C173.699 367.818 173.848 367.849 173.998 367.85C176.539 367.807 177.756 367.658 181.006 367.658C182.977 367.658 191.369 367.868 194.094 367.868C196.818 367.868 196.722 365.17 195.592 364.924C190.406 363.829 183.993 362.297 182.154 360.877C181.824 360.619 181.416 360.48 180.997 360.483Z" fill="#263238"/>
<path d="M183.294 361.603C183.729 361.645 184.163 361.523 184.512 361.261C184.613 361.155 184.684 361.023 184.716 360.879C184.749 360.736 184.742 360.587 184.696 360.447C184.68 360.353 184.64 360.265 184.58 360.192C184.52 360.118 184.443 360.061 184.354 360.026C183.557 359.711 181.726 360.964 181.516 361.113C181.493 361.13 181.476 361.152 181.465 361.179C181.454 361.205 181.451 361.233 181.455 361.261C181.463 361.289 181.477 361.313 181.497 361.333C181.517 361.353 181.542 361.368 181.569 361.375C182.134 361.511 182.713 361.588 183.294 361.603ZM184.048 360.263C184.114 360.25 184.183 360.25 184.249 360.263C184.292 360.281 184.33 360.31 184.359 360.347C184.388 360.383 184.408 360.427 184.416 360.473C184.447 360.566 184.453 360.666 184.435 360.763C184.416 360.859 184.374 360.949 184.311 361.025C184.004 361.323 183.137 361.358 181.972 361.13C182.593 360.695 183.301 360.399 184.048 360.263Z" fill="#5CCB3E"/>
<path d="M181.601 361.376H181.671C182.319 360.99 183.283 359.624 183.134 358.932C183.107 358.806 183.039 358.693 182.941 358.611C182.842 358.528 182.719 358.481 182.591 358.476C182.476 358.461 182.358 358.472 182.247 358.509C182.137 358.545 182.036 358.606 181.952 358.686C181.303 359.317 181.443 361.183 181.452 361.262C181.454 361.286 181.463 361.309 181.477 361.329C181.49 361.349 181.509 361.365 181.531 361.376C181.554 361.385 181.579 361.385 181.601 361.376ZM182.477 358.748H182.547C182.775 358.748 182.819 358.888 182.845 358.976C182.95 359.466 182.258 360.5 181.724 360.955C181.635 360.236 181.782 359.507 182.144 358.879C182.19 358.836 182.243 358.802 182.302 358.779C182.361 358.756 182.423 358.746 182.486 358.748H182.477Z" fill="#5CCB3E"/>
<path d="M231.864 345.188L238.259 344.075L236.516 329.113L230.121 330.226L231.864 345.188Z" fill="#7F3E3B"/>
<path opacity="0.2" d="M230.121 330.236L236.525 329.123L237.418 336.832L231.015 337.944L230.121 330.236Z" fill="black"/>
<path d="M238.269 343.296L231.06 342.192C230.939 342.169 230.814 342.195 230.712 342.263C230.61 342.332 230.54 342.439 230.517 342.56L229.29 348.21C229.245 348.511 229.32 348.817 229.498 349.063C229.677 349.309 229.945 349.474 230.245 349.524C232.759 349.866 233.986 349.901 237.157 350.4C239.11 350.698 247.371 352.152 250.069 352.572C252.767 352.993 253.091 350.312 251.988 349.892C247.029 348.035 240.915 345.573 239.312 343.874C239.043 343.565 238.674 343.361 238.269 343.296Z" fill="#263238"/>
<path d="M203.566 196.041C203.566 196.041 223.714 243.144 227.787 261.312C232.263 281.206 239.849 334.51 239.849 334.51L228.129 336.551C228.129 336.551 217.336 286.76 211.117 267.566C204.363 246.744 177.391 196.041 177.391 196.041H203.566Z" fill="#263238"/>
<path opacity="0.3" d="M186.957 206.448L186.484 213.57C189.524 219.562 193.028 226.552 196.453 233.648C197.977 226.623 194.088 209.742 186.957 206.448Z" fill="black"/>
<path d="M191.937 196.04C191.937 196.04 191.823 245.665 190.772 264.263C189.615 284.621 183.843 352.082 183.843 352.082H171.947C171.947 352.082 172.306 286.268 171.587 266.111C170.808 244.211 168.793 196.031 168.793 196.031L191.937 196.04Z" fill="#263238"/>
<path d="M171.474 352.187H184.324L185.034 347.676L170.852 348.377L171.474 352.187Z" fill="#5CCB3E"/>
<path opacity="0.3" d="M171.474 352.187H184.324L185.034 347.676L170.852 348.377L171.474 352.187Z" fill="black"/>
<path d="M227.652 336.629L240.31 334.43L240.24 329.857L226.391 332.985L227.652 336.629Z" fill="#5CCB3E"/>
<path opacity="0.3" d="M227.652 336.629L240.31 334.43L240.24 329.857L226.391 332.985L227.652 336.629Z" fill="black"/>
<path d="M240.406 344.75C240.827 344.858 241.274 344.805 241.658 344.601C241.772 344.508 241.86 344.388 241.916 344.252C241.971 344.116 241.991 343.968 241.974 343.822C241.97 343.726 241.942 343.632 241.893 343.55C241.844 343.467 241.776 343.398 241.693 343.349C240.957 342.92 238.951 343.883 238.724 343.997C238.699 344.009 238.679 344.028 238.665 344.051C238.651 344.074 238.644 344.101 238.645 344.128C238.643 344.157 238.651 344.185 238.667 344.209C238.682 344.232 238.705 344.25 238.732 344.26C239.27 344.486 239.831 344.651 240.406 344.75ZM241.352 343.541C241.42 343.546 241.486 343.567 241.544 343.603C241.588 343.624 241.624 343.658 241.647 343.7C241.671 343.743 241.681 343.791 241.676 343.839C241.693 343.935 241.686 344.034 241.654 344.127C241.621 344.219 241.566 344.301 241.492 344.365C241.141 344.619 240.283 344.523 239.162 344.111C239.842 343.764 240.589 343.57 241.352 343.541Z" fill="#5CCB3E"/>
<path d="M238.771 344.268C238.797 344.277 238.824 344.277 238.85 344.268C239.542 343.988 240.707 342.796 240.663 342.078C240.656 341.949 240.605 341.826 240.519 341.729C240.433 341.632 240.318 341.567 240.19 341.544C240.079 341.512 239.962 341.505 239.849 341.525C239.735 341.545 239.627 341.59 239.533 341.657C238.789 342.183 238.657 344.049 238.657 344.128C238.654 344.152 238.658 344.177 238.669 344.198C238.68 344.22 238.697 344.238 238.719 344.25C238.733 344.262 238.752 344.269 238.771 344.268ZM240.041 341.798H240.111C240.33 341.859 240.365 341.973 240.374 342.069C240.374 342.569 239.568 343.48 238.964 343.821C238.988 343.096 239.246 342.399 239.7 341.833C239.799 341.781 239.915 341.768 240.024 341.798H240.041Z" fill="#5CCB3E"/>
<path d="M180.351 178.012L185.677 176.549L186.413 183.285C186.413 183.285 181.157 184.862 179.852 182.103L180.351 178.012Z" fill="#7F3E3B"/>
<path d="M190.511 177.477L190.187 183.548L186.412 183.285L185.676 176.549L190.511 177.477Z" fill="#7F3E3B"/>
<path d="M279.337 336.55C251.357 332.336 230.105 280.039 230.105 219.473C230.105 158.906 251.357 106.609 279.337 102.395L305.415 98.4707V340.474L279.337 336.55Z" fill="#5CCB3E"/>
<path opacity="0.3" d="M279.337 336.55C251.357 332.336 230.105 280.039 230.105 219.473C230.105 158.906 251.357 106.609 279.337 102.395L305.415 98.4707V340.474L279.337 336.55Z" fill="black"/>
<path d="M305.416 340.474C330.656 340.474 351.117 286.3 351.117 219.473C351.117 152.645 330.656 98.4707 305.416 98.4707C280.176 98.4707 259.715 152.645 259.715 219.473C259.715 286.3 280.176 340.474 305.416 340.474Z" fill="#5CCB3E"/>
<path opacity="0.2" d="M313.882 159.432C299.866 159.432 288.574 186.316 288.574 219.481C288.574 252.647 299.901 279.522 313.882 279.522C327.863 279.522 339.189 252.647 339.189 219.481C339.189 186.316 327.863 159.432 313.882 159.432ZM334.03 219.481C334.03 229.021 332.488 237.693 329.965 244.202L322.659 219L329.825 194.323C332.453 200.866 334.065 209.714 334.065 219.473L334.03 219.481ZM318.621 182.943C321.713 182.943 324.578 185.098 326.987 188.804L320.443 211.501L312.892 185.571C314.392 183.969 316.463 183.022 318.656 182.935L318.621 182.943ZM303.23 219.481C303.23 207.13 305.814 196.224 309.765 189.61L318.314 219L309.642 249.064C305.779 242.441 303.265 231.658 303.265 219.473L303.23 219.481ZM318.621 256.019C317.499 255.958 316.401 255.674 315.39 255.183C314.38 254.693 313.477 254.007 312.734 253.164L320.478 226.472L327.232 249.809C324.779 253.742 321.836 256.011 318.656 256.011L318.621 256.019Z" fill="#FAFAFA"/>
<path opacity="0.4" d="M306.654 337.408C286.068 337.408 264.027 290.016 264.027 219.472C264.027 148.928 286.068 101.536 306.654 101.536C327.24 101.536 349.288 148.928 349.288 219.472C349.288 290.016 327.248 337.408 306.654 337.408ZM306.654 102.412C286.506 102.412 264.903 149.445 264.903 219.472C264.903 289.499 286.453 336.532 306.654 336.532C326.854 336.532 348.412 289.491 348.412 219.472C348.412 149.453 326.819 102.412 306.654 102.412Z" fill="#FAFAFA"/>
</g>
<defs>
<clipPath id="clip0_85_5175">
<rect width="438" height="438" fill="white"/>
</clipPath>
</defs>
</svg>
