<svg width="437" height="437" viewBox="0 0 437 437" fill="none" xmlns="http://www.w3.org/2000/svg">
<path d="M437 334.218H0V334.436H437V334.218Z" fill="#EBEBEB"/>
<path d="M393.216 348.281H364.27V348.5H393.216V348.281Z" fill="#EBEBEB"/>
<path d="M289.486 350.658H281.891V350.877H289.486V350.658Z" fill="#EBEBEB"/>
<path d="M363.389 340.169H346.617V340.387H363.389V340.169Z" fill="#EBEBEB"/>
<path d="M83.5996 341.638H45.8516V341.856H83.5996V341.638Z" fill="#EBEBEB"/>
<path d="M96.9191 341.638H91.3867V341.856H96.9191V341.638Z" fill="#EBEBEB"/>
<path d="M196.783 345.327H114.906V345.546H196.783V345.327Z" fill="#EBEBEB"/>
<path d="M207.137 295.238H38.3763C37.0543 295.235 35.7872 294.708 34.8531 293.773C33.9191 292.837 33.3945 291.569 33.3945 290.247V53.0172C33.406 51.7027 33.9357 50.4458 34.8685 49.5196C35.8013 48.5934 37.0618 48.0726 38.3763 48.0703H207.137C208.461 48.0703 209.73 48.5961 210.666 49.532C211.602 50.4679 212.128 51.7373 212.128 53.0609V290.247C212.128 291.571 211.602 292.84 210.666 293.776C209.73 294.712 208.461 295.238 207.137 295.238ZM38.3763 48.2451C37.1122 48.2474 35.9007 48.7512 35.0076 49.6459C34.1146 50.5406 33.613 51.753 33.613 53.0172V290.247C33.613 291.511 34.1146 292.724 35.0076 293.618C35.9007 294.513 37.1122 295.017 38.3763 295.019H207.137C208.402 295.017 209.614 294.513 210.509 293.619C211.403 292.724 211.907 291.512 211.909 290.247V53.0172C211.907 51.7522 211.403 50.5398 210.509 49.6454C209.614 48.7509 208.402 48.2474 207.137 48.2451H38.3763Z" fill="#EBEBEB"/>
<path d="M396.194 295.238H227.424C226.101 295.235 224.833 294.709 223.898 293.773C222.962 292.838 222.436 291.57 222.434 290.247V53.0172C222.447 51.7019 222.979 50.445 223.913 49.519C224.847 48.5931 226.109 48.0725 227.424 48.0703H396.194C397.507 48.0749 398.765 48.5967 399.696 49.5227C400.627 50.4486 401.155 51.7042 401.167 53.0172V290.247C401.167 291.568 400.643 292.834 399.711 293.77C398.779 294.705 397.514 295.233 396.194 295.238ZM227.424 48.2451C226.159 48.2474 224.947 48.7509 224.052 49.6454C223.158 50.5398 222.654 51.7522 222.652 53.0172V290.247C222.654 291.512 223.158 292.724 224.052 293.619C224.947 294.513 226.159 295.017 227.424 295.019H396.194C397.458 295.017 398.671 294.513 399.565 293.619C400.46 292.724 400.963 291.512 400.966 290.247V53.0172C400.963 51.7522 400.46 50.5398 399.565 49.6454C398.671 48.7509 397.458 48.2474 396.194 48.2451H227.424Z" fill="#EBEBEB"/>
<path d="M242.904 201.955L386.957 201.955V72.9527L242.904 72.9527L242.904 201.955Z" fill="#E6E6E6"/>
<path d="M236.827 201.955L384.113 201.955V72.9527L236.827 72.9527L236.827 201.955Z" fill="#F0F0F0"/>
<path d="M242.904 206.326L386.957 206.326V201.956L242.904 201.956V206.326Z" fill="#E6E6E6"/>
<path d="M226.725 206.326L374.012 206.326V201.956L226.725 201.956V206.326Z" fill="#F0F0F0"/>
<path d="M375.625 193.461V81.4492L245.32 81.4492V193.461H375.625Z" fill="#FAFAFA"/>
<path d="M349.445 193.47L299.6 81.4492H248.594L298.438 193.47H349.445Z" fill="white"/>
<path d="M371.697 174.749C371.857 174.749 372.01 174.686 372.123 174.572C372.236 174.459 372.3 174.306 372.3 174.146V86.982C372.3 86.822 372.236 86.6686 372.123 86.5555C372.01 86.4424 371.857 86.3789 371.697 86.3789C371.537 86.3789 371.383 86.4424 371.27 86.5555C371.157 86.6686 371.094 86.822 371.094 86.982V174.146C371.094 174.306 371.157 174.459 371.27 174.572C371.383 174.686 371.537 174.749 371.697 174.749Z" fill="#F0F0F0"/>
<path d="M279.26 193.47L229.416 81.4492H211.77L261.614 193.47H279.26Z" fill="white"/>
<path d="M246.398 193.461V81.4492H245.323V193.461H246.398Z" fill="#E6E6E6"/>
<g opacity="0.5">
<path d="M234.82 93.1161H378.882L379.66 84.752H235.607L234.82 93.1161Z" fill="#E6E6E6"/>
<path d="M234.82 106.926H378.882L379.66 98.5615H235.607L234.82 106.926Z" fill="#E6E6E6"/>
<path d="M234.82 120.735H378.882L379.66 112.371H235.607L234.82 120.735Z" fill="#E6E6E6"/>
<path d="M234.82 134.543H378.882L379.66 126.179H235.607L234.82 134.543Z" fill="#E6E6E6"/>
<path d="M234.82 148.361H378.882L379.66 139.997H235.607L234.82 148.361Z" fill="#E6E6E6"/>
<path d="M234.82 162.171H378.882L379.66 153.807H235.607L234.82 162.171Z" fill="#E6E6E6"/>
</g>
<path d="M68.0487 334.218H182.84L182.84 72.9617H68.0487L68.0487 334.218Z" fill="#F0F0F0"/>
<path d="M68.0467 334.218H180.574L180.574 72.9617H68.0467L68.0467 334.218Z" fill="#F5F5F5"/>
<path d="M174.652 334.217L174.652 78.8867H73.9763L73.9763 334.217H174.652Z" fill="#EBEBEB"/>
<path d="M101.308 195.777C95.6004 194.204 89.8931 199.273 84.1859 197.7C83.5571 197.436 83.0167 196.998 82.6281 196.438C82.2395 195.877 82.0189 195.218 81.9922 194.536C81.9922 193.33 82.9798 192.98 84.1859 193.304C89.8931 194.877 95.6004 189.808 101.308 191.381C101.938 191.641 102.481 192.077 102.871 192.636C103.261 193.195 103.483 193.855 103.51 194.536C103.51 195.777 102.514 196.118 101.308 195.777Z" fill="white"/>
<path d="M75.5234 334.217L75.5234 78.8867H73.9852L73.9852 334.217H75.5234Z" fill="#E0E0E0"/>
<path d="M363.139 328.459H383.73V239.171H363.139V328.459Z" fill="#F0F0F0"/>
<path d="M278.249 334.113H379.781V328.459H278.249V334.113Z" fill="#F0F0F0"/>
<path d="M363.148 239.161H274.297V328.449H363.148V239.161Z" fill="#F5F5F5"/>
<path d="M355.042 250.157H282.387V279.436H355.042V250.157Z" fill="#F0F0F0"/>
<path d="M355.042 288.175H282.387V317.454H355.042V288.175Z" fill="#F0F0F0"/>
<path d="M310.568 252.621H326.877C327.987 252.621 328.887 251.723 328.887 250.615C328.887 249.507 327.987 248.609 326.877 248.609H310.568C309.457 248.609 308.557 249.507 308.557 250.615C308.557 251.723 309.457 252.621 310.568 252.621Z" fill="#F5F5F5"/>
<path d="M310.556 290.65H326.874C327.406 290.647 327.916 290.435 328.293 290.058C328.669 289.682 328.882 289.172 328.884 288.639C328.87 288.115 328.653 287.616 328.277 287.249C327.902 286.881 327.399 286.675 326.874 286.673H310.556C310.025 286.675 309.515 286.888 309.14 287.265C308.765 287.641 308.555 288.151 308.555 288.683C308.566 289.207 308.782 289.706 309.156 290.073C309.529 290.441 310.032 290.647 310.556 290.65Z" fill="#F5F5F5"/>
<path d="M343.998 237.406C343.594 237.406 343.206 237.246 342.92 236.961C342.633 236.676 342.471 236.289 342.469 235.885V189.493C342.471 189.088 342.633 188.701 342.919 188.414C343.206 188.128 343.593 187.966 343.998 187.964C344.402 187.968 344.787 188.131 345.072 188.417C345.356 188.704 345.517 189.09 345.519 189.493V235.885C345.517 236.288 345.356 236.673 345.071 236.958C344.786 237.243 344.401 237.404 343.998 237.406Z" fill="#EBEBEB"/>
<path d="M358.278 235.604H329.707V239.204H358.278V235.604Z" fill="#F0F0F0"/>
<path d="M351.909 215.748C351.707 215.748 351.514 215.668 351.371 215.525C351.229 215.383 351.148 215.189 351.148 214.988V191.792C351.148 191.589 351.228 191.395 351.371 191.251C351.513 191.107 351.706 191.025 351.909 191.022C352.111 191.025 352.305 191.107 352.447 191.251C352.589 191.395 352.669 191.589 352.669 191.792V215.005C352.665 215.204 352.583 215.393 352.44 215.531C352.298 215.67 352.108 215.748 351.909 215.748Z" fill="#E0E0E0"/>
<path d="M321.777 199.814C321.777 199.814 322.345 182.754 343.994 182.754C365.643 182.754 366.203 199.814 366.203 199.814H321.777Z" fill="#E6E6E6"/>
<path d="M218.499 373.688C312.089 373.688 387.959 369.258 387.959 363.794C387.959 358.33 312.089 353.9 218.499 353.9C124.909 353.9 49.0391 358.33 49.0391 363.794C49.0391 369.258 124.909 373.688 218.499 373.688Z" fill="#F5F5F5"/>
<path d="M204.222 125.908C204.265 124.055 205.97 121.634 212.839 121.197C219.709 120.76 222.261 121.074 225.075 126.441C228.134 132.218 231.63 138.677 229.349 144.594C227.068 150.511 219.875 153.998 214.727 157.127C209.579 160.256 201.914 170.77 201.914 170.77C201.914 170.77 187.624 131.099 204.222 125.908Z" fill="#263238"/>
<path d="M207.355 205.066C207.355 205.066 217.765 258.503 221.462 280.23C225.299 302.823 228.532 351.435 228.532 351.435H234.318C234.318 351.435 241.686 309.483 234.318 278.325C234.817 253.451 229.948 201.719 229.948 201.719L207.355 205.066Z" fill="#FF8B7B"/>
<path d="M214.941 203.938C214.941 203.938 237.77 259.822 245.724 280.37C256.876 295.315 284.905 327.015 286.443 327.653L288.471 323.082C288.471 323.082 271.341 289.582 257.531 273.028C253.861 248.425 236.372 200.766 236.372 200.766L214.941 203.938Z" fill="#FF8B7B"/>
<path d="M204.191 170.306C202.547 172.229 200.861 174.064 199.174 175.934C197.487 177.805 195.748 179.605 194.008 181.423C192.269 183.241 190.512 185.05 188.695 186.807C186.877 188.564 185.05 190.303 183.136 192.051L183.424 191.745C183.014 192.217 182.537 192.626 182.008 192.96C181.576 193.221 181.119 193.441 180.645 193.615C179.883 193.89 179.091 194.069 178.285 194.149C176.957 194.279 175.619 194.279 174.291 194.149C171.898 193.919 169.526 193.51 167.194 192.925C164.922 192.366 162.702 191.71 160.499 191.002C158.297 190.294 156.129 189.508 154.005 188.599C153.557 188.41 153.202 188.05 153.018 187.6C152.835 187.149 152.838 186.644 153.027 186.195C153.189 185.802 153.485 185.477 153.861 185.279C154.238 185.081 154.673 185.022 155.089 185.111C157.248 185.566 159.459 186.029 161.644 186.422C163.829 186.816 166.014 187.2 168.191 187.471C170.293 187.771 172.412 187.937 174.536 187.969C175.47 187.988 176.404 187.915 177.324 187.751C177.641 187.693 177.952 187.602 178.25 187.48C178.307 187.46 178.357 187.427 178.399 187.384C178.399 187.384 178.338 187.384 178.259 187.489L178.547 187.183C180.295 185.435 181.956 183.687 183.634 181.895L188.651 176.433L198.614 165.411C199.26 164.675 200.171 164.226 201.148 164.162C202.125 164.098 203.088 164.425 203.823 165.071C204.559 165.716 205.009 166.628 205.073 167.605C205.137 168.581 204.81 169.544 204.164 170.28L204.191 170.306Z" fill="#FF8B7B"/>
<path d="M156.558 185.61L152.949 179.291L150.414 186.161C150.414 186.161 153.482 189.657 156.401 188.966L156.558 185.61Z" fill="#FF8B7B"/>
<path d="M148.371 179.475L147.497 182.42C147.397 182.75 147.397 183.101 147.496 183.431C147.596 183.761 147.791 184.054 148.056 184.273L150.425 186.196L152.924 179.291L150.704 178.417C150.482 178.324 150.244 178.278 150.003 178.281C149.763 178.285 149.526 178.338 149.307 178.437C149.088 178.536 148.892 178.68 148.731 178.858C148.569 179.037 148.447 179.247 148.371 179.475Z" fill="#FF8B7B"/>
<path d="M204.262 161.488C199.123 160.614 196.85 164.197 194.395 166.898C194.98 171.67 203.397 181.458 203.397 181.458C203.397 181.458 213.605 163.008 204.262 161.488Z" fill="#5CCB3E"/>
<path d="M197.429 167.344C198.085 172.544 200.567 187.14 207.524 208.99L237.861 204.515C235.763 193.52 232.87 183.128 234.207 161.234C234.244 160.631 234.157 160.025 233.951 159.457C233.745 158.888 233.424 158.367 233.009 157.927C232.593 157.488 232.092 157.137 231.536 156.899C230.98 156.661 230.381 156.539 229.776 156.541C227.722 156.541 225.188 156.628 222.548 156.891C218.114 157.229 213.71 157.88 209.368 158.84C206.571 159.521 203.608 160.43 201.354 161.165C200.086 161.581 199.001 162.425 198.286 163.552C197.57 164.679 197.267 166.019 197.429 167.344Z" fill="#5CCB3E"/>
<path d="M209.364 158.822L222.544 156.873C222.544 156.873 221.941 161.934 213.638 168.585C207.328 162.729 209.364 158.822 209.364 158.822Z" fill="white"/>
<path d="M219.047 142.225C218.837 146.595 219.161 154.461 222.543 156.873C220.414 160.323 217.5 163.222 214.039 165.333C212.732 164.788 211.603 163.891 210.777 162.741C209.951 161.591 209.462 160.234 209.363 158.822C213.926 156.995 213.288 153.508 211.985 150.335L219.047 142.225Z" fill="#FF8B7B"/>
<path opacity="0.2" d="M216.167 145.537L211.98 150.327C212.299 151.063 212.55 151.826 212.732 152.608C214.48 152.083 216.691 149.732 216.604 147.81C216.599 147.032 216.45 146.261 216.167 145.537Z" fill="black"/>
<path d="M222.37 133.792C221.723 140.933 221.601 143.965 217.887 147.531C212.293 152.907 203.667 150.555 202.155 143.362C200.8 136.895 202.076 126.302 209.147 123.654C210.707 123.057 212.395 122.869 214.048 123.109C215.702 123.35 217.266 124.01 218.593 125.026C219.919 126.043 220.962 127.383 221.623 128.917C222.285 130.452 222.542 132.13 222.37 133.792Z" fill="#FF8B7B"/>
<path d="M216.891 128.231C216.262 132.505 218.787 137.741 220.972 137.793C223.157 137.845 224.801 129.595 224.801 129.595L216.891 128.231Z" fill="#263238"/>
<path d="M204.754 126.048C209.412 129.352 223.256 134.308 223.545 130.034C223.833 125.76 218.056 122.308 213.782 122.308C209.508 122.308 206.065 124.012 204.754 126.048Z" fill="#263238"/>
<path opacity="0.2" d="M220.335 273.78L234.319 268.283C234.249 264.953 234.136 261.422 233.97 257.795L218.5 263.406C219.138 267.112 219.776 270.625 220.335 273.78Z" fill="black"/>
<path opacity="0.2" d="M252.587 250.968L236.418 256.859C237.694 260.022 238.926 263.099 240.08 266.001L254.938 260.136C254.221 257.173 253.461 254.097 252.587 250.968Z" fill="black"/>
<path d="M211.9 135.67C211.9 136.255 211.568 136.719 211.184 136.701C210.799 136.684 210.511 136.212 210.528 135.635C210.546 135.058 210.86 134.586 211.245 134.595C211.629 134.604 211.918 135.084 211.9 135.67Z" fill="#263238"/>
<path d="M205.317 135.482C205.333 134.898 205.038 134.416 204.657 134.405C204.275 134.395 203.953 134.859 203.936 135.443C203.92 136.027 204.215 136.509 204.596 136.52C204.978 136.53 205.3 136.066 205.317 135.482Z" fill="#263238"/>
<path d="M204.831 134.447L203.441 134.001C203.441 134.001 204.132 135.12 204.831 134.447Z" fill="#263238"/>
<path d="M207.033 136.535C206.476 137.848 205.741 139.077 204.848 140.188C205.139 140.41 205.475 140.566 205.833 140.645C206.191 140.723 206.561 140.722 206.919 140.643L207.033 136.535Z" fill="#FF5652"/>
<path d="M208.985 142.811C208.661 142.859 208.333 142.88 208.006 142.873C207.962 142.868 207.921 142.848 207.89 142.816C207.86 142.784 207.842 142.742 207.84 142.698C207.84 142.675 207.844 142.653 207.853 142.632C207.862 142.611 207.875 142.593 207.892 142.577C207.908 142.562 207.927 142.55 207.948 142.542C207.97 142.534 207.992 142.531 208.015 142.532C208.738 142.568 209.46 142.434 210.122 142.139C210.784 141.845 211.368 141.398 211.825 140.836C211.838 140.818 211.854 140.802 211.873 140.79C211.891 140.778 211.912 140.77 211.934 140.766C211.956 140.761 211.979 140.762 212 140.766C212.022 140.771 212.043 140.78 212.061 140.793C212.08 140.805 212.095 140.821 212.107 140.84C212.12 140.859 212.128 140.88 212.132 140.901C212.136 140.923 212.136 140.946 212.131 140.968C212.126 140.989 212.118 141.01 212.105 141.029C211.338 142.008 210.218 142.648 208.985 142.811Z" fill="#263238"/>
<path d="M223.911 137.575C223.744 138.242 223.447 138.869 223.036 139.419C222.625 139.97 222.108 140.433 221.516 140.783C219.934 141.709 218.676 140.407 218.728 138.668C218.772 137.103 219.655 134.735 221.438 134.516C221.827 134.475 222.22 134.531 222.581 134.681C222.942 134.831 223.261 135.068 223.507 135.373C223.753 135.677 223.918 136.038 223.989 136.422C224.06 136.807 224.033 137.203 223.911 137.575Z" fill="#FF8B7B"/>
<path d="M214.349 132.664C214.303 132.67 214.256 132.665 214.212 132.65C214.169 132.635 214.129 132.61 214.096 132.577C213.79 132.274 213.417 132.047 213.007 131.917C212.596 131.786 212.161 131.755 211.736 131.825C211.653 131.832 211.57 131.808 211.502 131.759C211.435 131.709 211.388 131.638 211.369 131.556C211.35 131.475 211.36 131.389 211.399 131.315C211.437 131.241 211.501 131.183 211.579 131.152C212.113 131.06 212.662 131.096 213.18 131.257C213.698 131.418 214.171 131.7 214.559 132.079C214.592 132.11 214.617 132.147 214.635 132.188C214.653 132.23 214.662 132.274 214.662 132.319C214.662 132.364 214.653 132.408 214.635 132.45C214.617 132.491 214.592 132.528 214.559 132.559C214.533 132.59 214.501 132.615 214.465 132.633C214.429 132.651 214.389 132.661 214.349 132.664Z" fill="#263238"/>
<path d="M203.644 132.113C203.601 132.106 203.56 132.089 203.524 132.065C203.488 132.041 203.457 132.01 203.434 131.974C203.408 131.937 203.389 131.896 203.379 131.852C203.369 131.808 203.368 131.763 203.377 131.719C203.385 131.675 203.402 131.633 203.427 131.595C203.452 131.558 203.484 131.526 203.521 131.502C203.96 131.182 204.469 130.972 205.006 130.89C205.543 130.807 206.092 130.855 206.606 131.03C206.69 131.064 206.756 131.131 206.79 131.214C206.825 131.298 206.825 131.392 206.79 131.475C206.774 131.517 206.749 131.556 206.718 131.588C206.686 131.621 206.649 131.647 206.607 131.665C206.566 131.683 206.521 131.692 206.476 131.693C206.431 131.693 206.386 131.685 206.344 131.668C205.936 131.533 205.501 131.499 205.077 131.567C204.653 131.635 204.251 131.805 203.906 132.061C203.829 132.112 203.734 132.131 203.644 132.113Z" fill="#263238"/>
<path d="M211.413 134.595L210.023 134.158C210.023 134.158 210.714 135.303 211.413 134.595Z" fill="#263238"/>
<path d="M207.523 208.99L217.671 268.998L255.663 257.733C252.587 226.015 244.721 210.309 237.86 204.515L207.523 208.99Z" fill="#263238"/>
<path opacity="0.2" d="M222.914 242.71L230.509 230.229L229.207 221.445L222.914 242.71Z" fill="black"/>
<path d="M233.826 159.539C234.472 160.116 235.268 160.78 236.002 161.392C236.736 162.004 237.531 162.633 238.318 163.227C239.882 164.407 241.456 165.57 243.09 166.619C246.198 168.723 249.6 170.357 253.185 171.469C253.394 171.539 253.613 171.574 253.823 171.627L254.137 171.705H254.015C253.665 171.705 253.534 171.863 253.63 171.828C254.132 171.489 254.563 171.055 254.898 170.552C255.963 169.022 256.882 167.395 257.642 165.692C258.516 163.944 259.285 162.065 260.011 160.177C260.736 158.289 261.479 156.375 262.161 154.487C262.311 154.056 262.617 153.696 263.019 153.479C263.42 153.261 263.889 153.201 264.332 153.31C264.776 153.419 265.163 153.69 265.418 154.07C265.672 154.449 265.776 154.91 265.709 155.361C265.113 159.585 264.154 163.749 262.842 167.807C262.149 169.978 261.223 172.067 260.081 174.039C259.352 175.314 258.37 176.426 257.196 177.308C256.234 177.987 255.088 178.359 253.91 178.374C253.738 178.387 253.566 178.387 253.394 178.374L252.984 178.321L252.538 178.243C252.249 178.19 251.944 178.155 251.664 178.085C249.41 177.609 247.212 176.894 245.109 175.953C243.078 175.062 241.112 174.028 239.227 172.859C237.361 171.731 235.555 170.505 233.817 169.188C232.949 168.536 232.101 167.863 231.273 167.169C230.399 166.461 229.648 165.788 228.774 164.958C228.106 164.282 227.725 163.376 227.708 162.426C227.691 161.476 228.04 160.556 228.683 159.857C229.326 159.158 230.213 158.733 231.161 158.671C232.108 158.608 233.044 158.913 233.773 159.522L233.826 159.539Z" fill="#FF8B7B"/>
<path d="M229.447 156.524C234.691 156.219 236.684 158.945 238.843 161.882C237.777 166.567 232.096 174.581 232.096 174.581C232.096 174.581 219.999 157.084 229.447 156.524Z" fill="#5CCB3E"/>
<path d="M261.883 154.916L263.194 147.216L267.94 152.827C267.94 152.827 266.279 157.197 263.299 157.538L261.883 154.916Z" fill="#FF8B7B"/>
<path d="M267.529 145.126L270.379 147.626C270.63 147.847 270.79 148.152 270.831 148.484C270.871 148.816 270.788 149.151 270.597 149.426L267.442 153.892L263.203 147.215L265.825 145.1C266.069 144.907 266.371 144.804 266.682 144.809C266.993 144.814 267.292 144.926 267.529 145.126Z" fill="#FF8B7B"/>
<path d="M217.557 362.369C218.443 361.723 219.429 361.227 220.476 360.9C220.476 360.9 225.65 357.972 228.342 349.189L234.329 347.694C234.477 347.657 234.632 347.652 234.783 347.679C234.934 347.707 235.077 347.766 235.204 347.852C235.33 347.939 235.437 348.052 235.516 348.183C235.596 348.313 235.647 348.46 235.666 348.612C235.718 349.084 235.753 349.626 235.814 350.063C235.88 351.014 235.88 351.969 235.814 352.921C235.762 355.884 235.43 362.535 235.43 362.535H234.739C234.735 360.51 234.612 358.488 234.372 356.478C234.023 354.52 232.624 356.836 231.873 359.047C231.121 361.259 227.983 363.627 223.456 363.732C218.168 363.889 216.018 363.653 217.557 362.369Z" fill="#263238"/>
<path d="M284.299 341.732C284.469 340.649 284.815 339.601 285.322 338.63C285.322 338.63 286.903 332.896 282.586 324.785L285.75 319.498C285.827 319.365 285.932 319.251 286.057 319.162C286.182 319.073 286.325 319.012 286.476 318.983C286.626 318.954 286.781 318.958 286.931 318.994C287.08 319.03 287.22 319.097 287.34 319.192C287.716 319.489 288.127 319.847 288.477 320.066C289.195 320.694 289.873 321.369 290.504 322.085C292.567 324.217 297.059 329.164 297.059 329.164L296.57 329.662C295.134 328.232 293.614 326.889 292.016 325.642C290.391 324.506 291.055 327.119 292.078 329.225C293.1 331.332 292.567 335.212 289.456 338.49C285.802 342.388 284.124 343.742 284.299 341.732Z" fill="#263238"/>
<path opacity="0.9" d="M261.257 90.4071L169.103 81.571C166.834 81.3638 164.576 82.0614 162.819 83.5118C161.063 84.9622 159.951 87.0479 159.725 89.3146L146.519 227.241C146.304 229.509 146.998 231.77 148.448 233.528C149.898 235.286 151.986 236.397 154.254 236.619L246.399 245.455C248.668 245.664 250.928 244.968 252.685 243.517C254.442 242.066 255.554 239.979 255.777 237.711L268.992 99.8288C269.103 98.7023 268.991 97.5649 268.663 96.4816C268.334 95.3983 267.795 94.3904 267.077 93.5155C266.358 92.6405 265.475 91.9157 264.476 91.3823C263.478 90.849 262.384 90.5176 261.257 90.4071ZM241.531 143.214C240.893 149.8 238.209 156.02 233.854 161.001C229.5 165.983 223.694 169.475 217.253 170.988C210.812 172.5 204.059 171.957 197.942 169.435C191.825 166.913 186.652 162.538 183.15 156.924C179.647 151.311 177.991 144.742 178.413 138.139C178.836 131.536 181.316 125.231 185.506 120.111C189.695 114.99 195.384 111.31 201.772 109.588C208.16 107.866 214.928 108.188 221.123 110.509C223.6 111.436 225.949 112.672 228.115 114.189C232.73 117.398 236.407 121.778 238.766 126.88C241.126 131.981 242.083 137.62 241.54 143.214H241.531Z" fill="white"/>
<path d="M214.676 56.6428L224.657 58.5569C225.883 58.8154 226.97 59.5162 227.711 60.5253C228.453 61.5345 228.797 62.7815 228.678 64.0281L226.746 81.613C226.721 81.8434 226.677 82.0714 226.615 82.2947C226.347 83.338 225.69 84.2388 224.777 84.8112C223.865 85.3837 222.768 85.5841 221.712 85.3712L211.731 83.4921C210.613 83.2545 209.608 82.6493 208.874 81.7733C208.141 80.8973 207.722 79.8008 207.684 78.6589C207.663 78.4263 207.663 78.1923 207.684 77.9597L209.616 60.3748C209.672 59.7842 209.852 59.2121 210.145 58.6959C210.437 58.1796 210.835 57.7308 211.312 57.3787C211.79 57.0265 212.336 56.779 212.916 56.6522C213.495 56.5254 214.095 56.5222 214.676 56.6428ZM218.845 65.0332C218.383 64.9405 217.907 64.9461 217.447 65.0498C216.987 65.1534 216.554 65.3527 216.177 65.6346C215.799 65.9166 215.485 66.275 215.255 66.6864C215.025 67.0977 214.885 67.5529 214.842 68.0223C214.739 69.0176 215.009 70.0157 215.6 70.8231C216.191 71.6305 217.061 72.1897 218.041 72.3923C218.503 72.4865 218.98 72.4819 219.44 72.3788C219.901 72.2758 220.334 72.0766 220.712 71.7944C221.09 71.5122 221.404 71.1533 221.634 70.7412C221.863 70.3291 222.003 69.8732 222.044 69.4032C222.145 68.4083 221.874 67.4112 221.283 66.6042C220.693 65.7973 219.824 65.2376 218.845 65.0332Z" fill="#263238"/>
<path d="M245.435 93.8938C245.232 93.8938 245.033 93.8363 244.862 93.7281C244.69 93.6198 244.552 93.4651 244.465 93.282L240.611 85.3198C240.35 84.7777 239.954 84.3118 239.461 83.9673C238.968 83.6228 238.395 83.4114 237.796 83.3533L193.467 79.1057C192.869 79.048 192.266 79.1456 191.716 79.3891C191.166 79.6325 190.689 80.0135 190.329 80.4954L185.033 87.5922C184.949 87.707 184.842 87.8041 184.721 87.8778C184.599 87.9516 184.463 88.0006 184.323 88.0221C184.182 88.0436 184.038 88.0372 183.9 88.0032C183.762 87.9691 183.631 87.9082 183.517 87.8239C183.402 87.7395 183.305 87.6334 183.231 87.5115C183.157 87.3896 183.108 87.2544 183.087 87.1136C183.065 86.9728 183.072 86.8291 183.106 86.6908C183.14 86.5525 183.201 86.4222 183.285 86.3075L188.581 79.2106C189.165 78.4349 189.937 77.8214 190.824 77.4282C191.711 77.0351 192.684 76.8754 193.651 76.9644L237.971 81.212C238.937 81.3098 239.863 81.6524 240.659 82.2076C241.456 82.7628 242.098 83.5121 242.525 84.3847L246.37 92.3468C246.45 92.5104 246.487 92.6915 246.478 92.8733C246.469 93.0551 246.413 93.2316 246.317 93.3862C246.221 93.5408 246.088 93.6685 245.929 93.7573C245.77 93.8461 245.591 93.893 245.409 93.8938H245.435Z" fill="#5CCB3E"/>
<path d="M154.7 118.462L153.992 118.392L154.482 113.261L155.198 113.331L154.7 118.462ZM155.574 108.533L154.866 108.463L155.976 96.8389L156.693 96.9088L155.574 108.533Z" fill="#5CCB3E"/>
<path d="M247.228 245.804C246.936 245.807 246.644 245.792 246.354 245.76L154.208 236.933C151.845 236.703 149.669 235.545 148.158 233.713C146.648 231.881 145.925 229.525 146.149 227.161L159.356 89.2792C159.588 86.917 160.746 84.7429 162.578 83.2328C164.409 81.7226 166.764 80.9992 169.127 81.2209L261.325 90.0221C263.689 90.2522 265.865 91.4098 267.377 93.2413C268.889 95.0727 269.614 97.4288 269.392 99.7934L256.134 237.728C255.915 239.941 254.884 241.995 253.238 243.492C251.593 244.988 249.452 245.821 247.228 245.83V245.804ZM168.279 81.8939C166.232 81.8993 164.259 82.6651 162.744 84.0427C161.229 85.4202 160.28 87.3113 160.081 89.3491L146.831 227.24C146.634 229.414 147.302 231.579 148.692 233.263C150.081 234.947 152.079 236.015 154.251 236.234L246.467 245.052C248.641 245.254 250.807 244.587 252.491 243.197C254.175 241.806 255.239 239.805 255.452 237.632L268.667 99.7497C268.867 97.5763 268.2 95.4118 266.812 93.7275C265.424 92.0431 263.427 90.9752 261.255 90.7562L169.066 81.9288C168.804 81.9026 168.541 81.8939 168.279 81.8939ZM210.039 172.248C209.008 172.248 207.967 172.196 206.927 172.099C202.387 171.661 197.992 170.259 194.037 167.986C190.082 165.713 186.658 162.622 183.993 158.92C181.329 155.217 179.485 150.989 178.586 146.517C177.686 142.044 177.752 137.432 178.778 132.987C179.805 128.543 181.768 124.368 184.537 120.743C187.306 117.118 190.817 114.126 194.835 111.967C198.853 109.807 203.286 108.531 207.837 108.222C212.388 107.913 216.953 108.58 221.226 110.177C223.735 111.11 226.114 112.361 228.305 113.9C232.971 117.145 236.689 121.575 239.076 126.733C241.463 131.891 242.433 137.591 241.887 143.249C241.13 151.175 237.448 158.535 231.561 163.896C225.673 169.257 218.001 172.234 210.039 172.248ZM209.96 108.857C203.891 108.861 197.954 110.627 192.87 113.941C187.786 117.255 183.774 121.974 181.321 127.525C178.868 133.076 178.08 139.22 179.053 145.21C180.025 151.201 182.716 156.78 186.799 161.27C190.882 165.76 196.181 168.967 202.052 170.503C207.924 172.039 214.114 171.836 219.873 169.92C225.631 168.004 230.709 164.457 234.49 159.71C238.271 154.963 240.592 149.22 241.171 143.179C241.703 137.649 240.754 132.078 238.421 127.037C236.088 121.996 232.455 117.666 227.895 114.494C225.754 112.988 223.427 111.766 220.973 110.858C218.401 109.89 215.711 109.27 212.975 109.014C211.962 108.909 210.957 108.857 209.96 108.857Z" fill="#5CCB3E"/>
<path opacity="0.8" d="M221.122 110.509C215.276 108.323 208.914 107.912 202.835 109.327C196.756 110.742 191.23 113.92 186.95 118.463C182.67 123.005 179.826 128.71 178.774 134.863C177.723 141.015 178.511 147.341 181.04 153.047L151.324 177.589L159.785 89.3146C160.01 87.0479 161.123 84.9622 162.879 83.5118C164.636 82.0614 166.894 81.3638 169.163 81.571L199.7 84.4989L209.471 96.3503L221.122 110.509Z" fill="#5CCB3E"/>
<path opacity="0.5" d="M268.99 99.785L263.073 161.393L241.223 134.92C240.52 130.768 238.999 126.798 236.748 123.239C234.498 119.68 231.563 116.604 228.113 114.189L257.375 90.0225L261.255 90.3983C263.524 90.6217 265.612 91.7349 267.061 93.4942C268.511 95.2535 269.205 97.5155 268.99 99.785Z" fill="#5CCB3E"/>
<path d="M257.373 90.0207L228.112 114.187C225.946 112.67 223.596 111.434 221.12 110.507L209.434 96.3485L199.637 84.4971L257.373 90.0207Z" fill="#5CCB3E"/>
<path opacity="0.5" d="M233.273 185.262L178.584 180.025C177.666 179.937 176.851 180.61 176.763 181.528L176.489 184.382C176.402 185.299 177.074 186.115 177.992 186.202L232.682 191.44C233.599 191.527 234.415 190.855 234.502 189.937L234.776 187.083C234.864 186.166 234.191 185.35 233.273 185.262Z" fill="#5CCB3E"/>
<path opacity="0.5" d="M227.935 195.967L181.806 191.55C180.889 191.462 180.073 192.135 179.985 193.052L179.712 195.906C179.624 196.824 180.297 197.639 181.215 197.727L227.343 202.144C228.261 202.232 229.076 201.559 229.164 200.642L229.437 197.788C229.525 196.87 228.852 196.055 227.935 195.967Z" fill="#5CCB3E"/>
<path opacity="0.5" d="M174.348 219.3L160.637 217.987L160.422 220.232L174.133 221.545L174.348 219.3Z" fill="#5CCB3E"/>
<path opacity="0.5" d="M188.495 220.66L177.438 219.602L177.223 221.846L188.28 222.905L188.495 220.66Z" fill="#5CCB3E"/>
<path opacity="0.5" d="M191.938 226.085L160.156 223.042L159.941 225.287L191.723 228.33L191.938 226.085Z" fill="#5CCB3E"/>
<path opacity="0.5" d="M198.295 218.417L160.844 214.672L160.618 216.927L198.069 220.672L198.295 218.417Z" fill="#5CCB3E"/>
<path d="M223.745 58.1471L213.606 56.303C213.003 56.196 212.384 56.2091 211.785 56.3415C211.186 56.4738 210.62 56.7228 210.117 57.0743C209.615 57.4257 209.186 57.8727 208.857 58.3897C208.527 58.9067 208.303 59.4836 208.196 60.0874L205.032 77.6985C204.986 77.9286 204.966 78.1631 204.971 78.3977C204.935 79.5157 205.301 80.6096 206.001 81.4816C206.702 82.3536 207.691 82.9462 208.791 83.1523L218.903 84.9964C220.004 85.1951 221.139 84.991 222.102 84.4213C223.065 83.8516 223.791 82.9544 224.147 81.8937C224.23 81.6731 224.292 81.4447 224.33 81.212L227.485 63.6009C227.706 62.3824 227.436 61.1263 226.736 60.1052C226.035 59.0842 224.961 58.3805 223.745 58.1471ZM217.321 64.6759C218.05 64.8006 218.726 65.1394 219.262 65.6491C219.799 66.1588 220.172 66.8165 220.333 67.5386C220.495 68.2606 220.439 69.0145 220.171 69.7044C219.903 70.3943 219.437 70.989 218.83 71.413C218.224 71.837 217.505 72.0712 216.765 72.0857C216.025 72.1003 215.298 71.8946 214.675 71.4947C214.052 71.0949 213.563 70.519 213.268 69.8402C212.974 69.1614 212.887 68.4103 213.021 67.6825C213.2 66.7174 213.751 65.8613 214.555 65.2988C215.36 64.7364 216.353 64.5127 217.321 64.6759Z" fill="#263238"/>
<path opacity="0.2" d="M223.745 58.1471L213.606 56.303C213.003 56.196 212.384 56.2091 211.785 56.3415C211.186 56.4738 210.62 56.7228 210.117 57.0743C209.615 57.4257 209.186 57.8727 208.857 58.3897C208.527 58.9067 208.303 59.4836 208.196 60.0874L205.032 77.6985C204.986 77.9286 204.966 78.1631 204.971 78.3977C204.935 79.5157 205.301 80.6096 206.001 81.4816C206.702 82.3536 207.691 82.9462 208.791 83.1523L218.903 84.9964C220.004 85.1951 221.139 84.991 222.102 84.4213C223.065 83.8516 223.791 82.9544 224.147 81.8937C224.23 81.6731 224.292 81.4447 224.33 81.212L227.485 63.6009C227.706 62.3824 227.436 61.1263 226.736 60.1052C226.035 59.0842 224.961 58.3805 223.745 58.1471ZM217.321 64.6759C218.05 64.8006 218.726 65.1394 219.262 65.6491C219.799 66.1588 220.172 66.8165 220.333 67.5386C220.495 68.2606 220.439 69.0145 220.171 69.7044C219.903 70.3943 219.437 70.989 218.83 71.413C218.224 71.837 217.505 72.0712 216.765 72.0857C216.025 72.1003 215.298 71.8946 214.675 71.4947C214.052 71.0949 213.563 70.519 213.268 69.8402C212.974 69.1614 212.887 68.4103 213.021 67.6825C213.2 66.7174 213.751 65.8613 214.555 65.2988C215.36 64.7364 216.353 64.5127 217.321 64.6759Z" fill="white"/>
<path opacity="0.2" d="M242.593 231.373C245.233 229.194 245.607 225.289 243.429 222.649C241.25 220.009 237.345 219.636 234.705 221.814C232.066 223.992 231.692 227.898 233.87 230.537C236.048 233.177 239.954 233.551 242.593 231.373Z" fill="#5CCB3E"/>
<path opacity="0.8" d="M226.191 229.797C228.831 227.619 229.205 223.714 227.026 221.074C224.848 218.434 220.942 218.06 218.303 220.239C215.663 222.417 215.289 226.322 217.468 228.962C219.646 231.602 223.551 231.976 226.191 229.797Z" fill="#5CCB3E"/>
</svg>
